<?xml version="1.0" encoding="utf-8"?>
<!-- Generator: Adobe Illustrator 23.0.1, SVG Export Plug-In . SVG Version: 6.00 Build 0)  -->
<svg version="1.1" id="Layer_1" xmlns="http://www.w3.org/2000/svg" xmlns:xlink="http://www.w3.org/1999/xlink" x="0px" y="0px"
	 viewBox="0 0 24 24" style="enable-background:new 0 0 24 24;" xml:space="preserve">
<style type="text/css">
	.st0{fill-rule:evenodd;clip-rule:evenodd;fill:#EEEEEE;}
</style>
<path class="st0" d="M12,0C5.4,0,0,5.4,0,12s5.4,12,12,12s12-5.4,12-12S18.6,0,12,0z M19.3,13l-0.1,0l-6.4-0.1l0,6.4
	c0,0.5-0.4,0.8-0.8,0.8c-0.5,0-0.8-0.4-0.8-0.8l0-6.5l-6.5-0.1c-0.4,0-0.8-0.3-0.8-0.7l0-0.1c0-0.4,0.3-0.8,0.7-0.8l0.1,0l6.5,0.1
	l0-6.6c0-0.5,0.4-0.8,0.8-0.8c0.5,0,0.8,0.4,0.8,0.8l0,6.6l6.4,0.1c0.4,0,0.8,0.3,0.8,0.7l0,0.1C20,12.6,19.7,12.9,19.3,13z"/>
</svg>
