<?xml version="1.0" encoding="utf-8"?>
<!-- Generator: Adobe Illustrator 23.0.1, SVG Export Plug-In . SVG Version: 6.00 Build 0)  -->
<svg version="1.1" id="Layer_1" xmlns="http://www.w3.org/2000/svg" xmlns:xlink="http://www.w3.org/1999/xlink" x="0px" y="0px"
	 viewBox="0 0 56 56" style="enable-background:new 0 0 56 56;" xml:space="preserve">
<style type="text/css">
	.st0{fill-rule:evenodd;clip-rule:evenodd;fill:none;}
	.st1{fill:#68385B;}
</style>
<path class="st0" d="M56,28c0,15.5-12.5,28-28,28C12.5,56,0,43.5,0,28C0,12.5,12.5,0,28,0C43.5,0,56,12.5,56,28z"/>
<path class="st1" d="M28,23.5c-2.5,0-4.5,2-4.5,4.5s2,4.5,4.5,4.5s4.5-2,4.5-4.5S30.5,23.5,28,23.5z M28,30.2c-1.2,0-2.2-1-2.2-2.2
	s1-2.2,2.2-2.2s2.2,1,2.2,2.2S29.2,30.2,28,30.2z M45.4,26.9H40c-0.5-5.7-5.1-10.3-10.8-10.8v-5.4c0-0.6-0.5-1.1-1.1-1.1
	c-0.6,0-1.1,0.5-1.1,1.1V16c-5.7,0.5-10.3,5.1-10.8,10.8h-5.4c-0.6,0-1.1,0.5-1.1,1.1c0,0.6,0.5,1.1,1.1,1.1H16
	c0.5,5.7,5.1,10.3,10.8,10.8v5.4c0,0.6,0.5,1.1,1.1,1.1c0.6,0,1.1-0.5,1.1-1.1V40c5.7-0.5,10.3-5.1,10.8-10.8h5.4
	c0.6,0,1.1-0.5,1.1-1.1C46.5,27.4,46,26.9,45.4,26.9z M28,37.8c-5.4,0-9.8-4.4-9.8-9.8s4.4-9.8,9.8-9.8c5.4,0,9.8,4.4,9.8,9.8
	C37.8,33.4,33.4,37.8,28,37.8z"/>
</svg>
