<?xml version="1.0" encoding="utf-8"?>
<!-- Generator: Adobe Illustrator 23.0.1, SVG Export Plug-In . SVG Version: 6.00 Build 0)  -->
<svg version="1.1" id="Layer_1" xmlns="http://www.w3.org/2000/svg" xmlns:xlink="http://www.w3.org/1999/xlink" x="0px" y="0px"
	 viewBox="0 0 16 16" style="enable-background:new 0 0 16 16;" xml:space="preserve">
<style type="text/css">
	.st0{fill:#D0021B;}
</style>
<path class="st0" d="M8.6,11.1c0,0.3-0.3,0.6-0.6,0.6c-0.4,0-0.7-0.3-0.7-0.7s0.3-0.7,0.7-0.7C8.4,10.4,8.7,10.7,8.6,11.1z
	 M14.1,12.7c-0.4,0.7-1.2,1.2-2,1.2H3.9c-0.8,0-1.6-0.4-2-1.1c-0.4-0.7-0.4-1.6,0-2.3L6,3.3c0.4-0.7,1.1-1.1,2-1.1
	c0.8,0,1.6,0.4,2,1.2l4.1,7.2C14.5,11.2,14.5,12,14.1,12.7z M13.2,11L9.1,3.8C8.9,3.4,8.5,3.2,8,3.2c-0.5,0-0.9,0.2-1.1,0.6L2.8,11
	c-0.2,0.4-0.2,0.9,0,1.3c0.2,0.4,0.6,0.6,1.1,0.6h8.2c0.5,0,0.9-0.2,1.1-0.6C13.4,11.8,13.4,11.4,13.2,11z M7.8,5.7
	C7.5,5.8,7.3,6.1,7.3,6.5c0,0.2,0,0.4,0,0.6c0,0.8,0.1,1.6,0.1,2.4c0,0.3,0.2,0.5,0.5,0.5c0.3,0,0.5-0.2,0.5-0.5c0-0.2,0-0.3,0-0.5
	c0-0.5,0.1-1,0.1-1.5l0.1-1c0-0.1,0-0.2-0.1-0.3C8.5,5.8,8.1,5.7,7.8,5.7z"/>
</svg>
