<?xml version="1.0" encoding="utf-8"?>
<!-- Generator: Adobe Illustrator 23.0.1, SVG Export Plug-In . SVG Version: 6.00 Build 0)  -->
<svg version="1.1" id="Layer_1" xmlns="http://www.w3.org/2000/svg" xmlns:xlink="http://www.w3.org/1999/xlink" x="0px" y="0px"
	 viewBox="0 0 16 16" style="enable-background:new 0 0 16 16;" xml:space="preserve">
<style type="text/css">
	.st0{fill:#68385B;}
</style>
<path class="st0" d="M12.7,6.2l-4.3,4.4c-0.2,0.2-0.5,0.2-0.7,0c0,0,0,0,0,0L3.3,6.2C3.1,6,3.1,5.7,3.3,5.4c0.2-0.2,0.4-0.2,0.6-0.1
	c0,0,0,0,0,0l3.7,3.9c0.2,0.2,0.5,0.2,0.7,0c0,0,0,0,0,0L12,5.4c0.2-0.2,0.4-0.2,0.6,0c0,0,0,0,0,0C12.9,5.7,12.8,6,12.7,6.2z"/>
</svg>
