<?xml version="1.0" encoding="utf-8"?>
<!-- Generator: Adobe Illustrator 23.0.1, SVG Export Plug-In . SVG Version: 6.00 Build 0)  -->
<svg version="1.1" id="Layer_1" xmlns="http://www.w3.org/2000/svg" xmlns:xlink="http://www.w3.org/1999/xlink" x="0px" y="0px"
	 viewBox="0 0 16 16" style="enable-background:new 0 0 16 16;" xml:space="preserve">
<style type="text/css">
	.st0{fill:#4A4A4A;}
</style>
<path class="st0" d="M14,4.6C13.9,4.6,13.9,4.5,14,4.6c-0.2-0.2-0.4-0.3-0.6-0.3c-0.2,0-0.4,0.1-0.5,0.2L8.2,9.6
	C8.2,9.7,8.1,9.7,8,9.7c-0.1,0-0.2,0-0.2-0.1L3.1,4.6c0,0-0.1-0.1-0.1-0.1C2.7,4.2,2.3,4.3,2,4.6C1.8,4.9,1.8,5.4,2.1,5.7l5.4,5.7
	l0,0c0.1,0.1,0.3,0.2,0.4,0.2c0,0,0,0,0,0c0.2,0,0.3-0.1,0.5-0.2l5.4-5.7C14.2,5.4,14.2,4.9,14,4.6z"/>
</svg>
