<?xml version="1.0" encoding="utf-8"?>
<!-- Generator: Adobe Illustrator 23.0.1, SVG Export Plug-In . SVG Version: 6.00 Build 0)  -->
<svg version="1.1" id="Layer_1" xmlns="http://www.w3.org/2000/svg" xmlns:xlink="http://www.w3.org/1999/xlink" x="0px" y="0px"
	 viewBox="0 0 24 24" style="enable-background:new 0 0 24 24;" xml:space="preserve">
<style type="text/css">
	.st0{fill:#33375B;}
</style>
<path class="st0" d="M21.3,10.2L11,20.5c-0.9,0.9-2.2,1.5-3.5,1.5c-1.3,0-2.6-0.5-3.5-1.5C3,19.5,2.5,18.3,2.5,17
	c0-1.3,0.5-2.6,1.5-3.5L14.3,3.1c1.5-1.5,3.8-1.4,5.3,0.2s1.6,3.9,0.2,5.3l-9.7,9.7c-0.9,0.9-2.4,0.9-3.3,0c-0.9-0.9-0.9-2.4,0-3.3
	l6.6-6.6c0.2-0.2,0.6-0.2,0.8,0s0.2,0.6,0,0.8l-6.6,6.6c-0.5,0.5-0.5,1.2,0,1.7c0.5,0.5,1.2,0.5,1.7,0L19,7.8c1-1,1-2.6-0.2-3.7
	c-1.1-1.1-2.7-1.2-3.7-0.2L4.8,14.2C4,15,3.7,15.9,3.7,17c0,1,0.4,2,1.1,2.7s1.7,1.1,2.7,1.1c1,0,2-0.4,2.7-1.1L20.5,9.4
	c0.2-0.2,0.6-0.2,0.8,0S21.5,10,21.3,10.2z"/>
</svg>
