<?xml version="1.0" encoding="utf-8"?>
<!-- Generator: Adobe Illustrator 23.0.1, SVG Export Plug-In . SVG Version: 6.00 Build 0)  -->
<svg version="1.1" id="Layer_1" xmlns="http://www.w3.org/2000/svg" xmlns:xlink="http://www.w3.org/1999/xlink" x="0px" y="0px"
	 viewBox="0 0 24 24" style="enable-background:new 0 0 24 24;" xml:space="preserve">
<style type="text/css">
	.st0{fill:#34375A;}
</style>
<path class="st0" d="M16.8,3.3H7.2C6.5,3.3,6,3.9,6,4.5v14.9c0,0.7,0.5,1.2,1.2,1.2c0.4,0,0.7-0.2,0.9-0.5l3.8-5l4,5
	c0.2,0.3,0.5,0.4,0.8,0.4c0,0,0.1,0,0.1,0c0.3,0,0.5-0.1,0.7-0.3c0.3-0.2,0.4-0.6,0.4-0.9v-15C18,3.9,17.5,3.3,16.8,3.3z M12.6,14
	c-0.2-0.2-0.4-0.3-0.6-0.4c0,0-0.1,0-0.1,0c-0.2,0-0.4,0.1-0.6,0.2l-4,5.2V4.6h9.4l0,14.5L12.6,14z"/>
</svg>
