<?xml version="1.0" encoding="utf-8"?>
<!-- Generator: Adobe Illustrator 22.1.0, SVG Export Plug-In . SVG Version: 6.00 Build 0)  -->
<svg version="1.1" id="Layer_1" xmlns="http://www.w3.org/2000/svg" xmlns:xlink="http://www.w3.org/1999/xlink" x="0px" y="0px"
	 viewBox="0 0 24 24" style="enable-background:new 0 0 24 24;" xml:space="preserve">
<style type="text/css">
	.st0{fill:#FFFFFF;}
	.st1{fill:#33375B;}
</style>
<path class="st0" d="M18.6,13.3c-0.4-0.4-1-0.7-1.6-0.7s-1.2,0.2-1.6,0.7L14,14.6L9.4,10l1.3-1.3c0.4-0.4,0.7-1,0.7-1.6
	s-0.2-1.2-0.7-1.6L7.8,2.6c-0.4-0.4-1-0.7-1.6-0.7S5,2.1,4.6,2.6L3.8,3.3c-2.5,2.5-2.5,6.7,0,9.2l7.6,7.6c1.2,1.2,2.9,1.9,4.6,1.9
	s3.4-0.7,4.6-1.9l0.7-0.7c0.4-0.4,0.7-1,0.7-1.6s-0.2-1.2-0.7-1.6L18.6,13.3z M21.1,17.8c0,0.4-0.1,0.7-0.4,1l-0.6,0.6l-4.7-4.7
	L16,14c0.3-0.3,0.6-0.4,1-0.4s0.7,0.1,1,0.4l2.8,2.8C21,17.1,21.1,17.4,21.1,17.8z M4,4.7l2.9,2.9c0.2,0.2,0.5,0.2,0.7,0
	s0.2-0.5,0-0.7l-3-3l0.6-0.6c0.3-0.3,0.6-0.4,1-0.4s0.7,0.1,1,0.4L10,6.1c0.5,0.5,0.5,1.4,0,1.9L8.3,9.7C8.2,9.8,8.2,9.9,8.2,10
	s0.1,0.3,0.1,0.3l5.3,5.3c0.2,0.2,0.5,0.2,0.7,0l0.3-0.3l4.7,4.7c-1,0.7-2.1,1.1-3.3,1.1c-1.5,0-2.9-0.6-3.9-1.6l-0.3-0.3
	c-4.4-4.5-4.6-4.6-4.7-4.7l0,0l-2.7-2.7C2.6,9.9,2.3,6.8,4,4.7z M20,1.9h-5.9C13,1.9,12,2.8,12,4v4.5c0,1.1,0.9,2.1,2.1,2.1h1.4
	l1.1,1.4c0.1,0.1,0.2,0.2,0.3,0.2H17c0.2,0,0.3-0.1,0.4-0.2l1.1-1.4H20c1.1,0,2.1-0.9,2.1-2.1V4C22.1,2.8,21.2,1.9,20,1.9z"/>
<path class="st1" d="M17.5,7.9c0.1,0.1,0.1,0.2,0.1,0.3c0,0.1-0.1,0.3-0.1,0.3c-0.1,0.1-0.2,0.1-0.3,0.1c-0.1,0-0.3-0.1-0.3-0.1
	c-0.1-0.1-0.1-0.2-0.1-0.3s0.1-0.3,0.1-0.3C16.9,7.7,17.3,7.7,17.5,7.9z M17.2,3.5c-0.4,0-0.8,0.1-1.1,0.4c-0.3,0.3-0.5,0.7-0.5,1.1
	c0,0.3,0.2,0.5,0.5,0.5c0.3,0,0.5-0.2,0.5-0.5c0-0.1,0.1-0.3,0.2-0.3c0.1-0.1,0.2-0.1,0.4-0.1c0.2,0,0.4,0.2,0.4,0.4
	c0,0.2-0.1,0.4-0.4,0.5c-0.4,0.1-0.6,0.4-0.6,0.7v0.7c0,0.3,0.2,0.5,0.5,0.5s0.5-0.2,0.5-0.5V6.3c0.6-0.2,1-0.8,1-1.5
	C18.5,4.1,17.9,3.5,17.2,3.5z"/>
</svg>
