<?xml version="1.0" encoding="utf-8"?>
<!-- Generator: Adobe Illustrator 23.0.1, SVG Export Plug-In . SVG Version: 6.00 Build 0)  -->
<svg version="1.1" id="Layer_1" xmlns="http://www.w3.org/2000/svg" xmlns:xlink="http://www.w3.org/1999/xlink" x="0px" y="0px"
	 viewBox="0 0 24 24" style="enable-background:new 0 0 24 24;" xml:space="preserve">
<style type="text/css">
	.st0{fill:#FFFFFF;}
</style>
<path class="st0" d="M18.6,13.3c-0.4-0.4-1-0.7-1.6-0.7c-0.6,0-1.2,0.2-1.6,0.7L14,14.6L9.4,10l1.3-1.3c0.4-0.4,0.7-1,0.7-1.6
	c0-0.6-0.2-1.2-0.7-1.6L7.8,2.6c-0.4-0.4-1-0.7-1.6-0.7S5,2.1,4.6,2.6L3.8,3.3c-2.5,2.5-2.5,6.7,0,9.2l7.6,7.6
	c1.2,1.2,2.9,1.9,4.6,1.9c1.7,0,3.4-0.7,4.6-1.9l0.7-0.7c0.4-0.4,0.7-1,0.7-1.6s-0.2-1.2-0.7-1.6L18.6,13.3z M21.1,17.8
	c0,0.4-0.1,0.7-0.4,1l-0.6,0.6l-4.7-4.7L16,14c0.3-0.3,0.6-0.4,1-0.4c0.4,0,0.7,0.1,1,0.4l2.8,2.8C21,17.1,21.1,17.4,21.1,17.8z
	 M4,4.7l2.9,2.9c0.2,0.2,0.5,0.2,0.7,0c0.2-0.2,0.2-0.5,0-0.7L4.6,3.9l0.6-0.6c0.3-0.3,0.6-0.4,1-0.4s0.7,0.1,1,0.4L10,6.1
	c0.5,0.5,0.5,1.4,0,1.9L8.3,9.7C8.2,9.8,8.2,9.9,8.2,10c0,0.1,0.1,0.3,0.1,0.3l5.3,5.3c0.2,0.2,0.5,0.2,0.7,0l0.3-0.3l4.7,4.7
	c-1,0.7-2.1,1.1-3.3,1.1c-1.5,0-2.9-0.6-3.9-1.6l-0.3-0.3c-4.4-4.5-4.6-4.6-4.7-4.7l0,0l-2.7-2.7C2.6,9.9,2.3,6.8,4,4.7z M20,1.9
	h-5.9c-1.1,0-2.1,0.9-2.1,2.1v4.5c0,1.1,0.9,2.1,2.1,2.1h1.4l1.1,1.4c0.1,0.1,0.2,0.2,0.3,0.2l0.1,0c0.2,0,0.3-0.1,0.4-0.2l1.1-1.4
	H20c1.1,0,2.1-0.9,2.1-2.1V4C22.1,2.8,21.2,1.9,20,1.9z M21.1,4v4.5c0,0.6-0.5,1.1-1.1,1.1h-1.7c-0.2,0-0.3,0.1-0.4,0.2l-0.9,1.1
	l-0.9-1.1c-0.1-0.1-0.2-0.2-0.4-0.2h-1.7c-0.6,0-1.1-0.5-1.1-1.1V4c0-0.6,0.5-1.1,1.1-1.1H20C20.6,2.9,21.1,3.4,21.1,4z M17.5,7.9
	c0.1,0.1,0.1,0.2,0.1,0.3c0,0.1-0.1,0.3-0.1,0.3c-0.1,0.1-0.2,0.1-0.3,0.1c-0.1,0-0.3-0.1-0.3-0.1c-0.1-0.1-0.1-0.2-0.1-0.3
	c0-0.1,0.1-0.3,0.1-0.3C17,7.7,17.3,7.7,17.5,7.9z M18.6,4.8c0,0.7-0.3,1.3-1,1.5v0.5c0,0.3-0.2,0.5-0.5,0.5s-0.5-0.2-0.5-0.5V6.1
	c0-0.4,0.2-0.7,0.6-0.7c0.2-0.1,0.4-0.3,0.4-0.5c0-0.2-0.2-0.4-0.4-0.4c-0.1,0-0.3,0-0.4,0.1c-0.1,0.1-0.2,0.2-0.2,0.3
	c0,0.3-0.2,0.5-0.5,0.5s-0.5-0.2-0.5-0.5c0-0.4,0.2-0.8,0.5-1.1c0.3-0.3,0.7-0.4,1.1-0.4C17.9,3.5,18.5,4.1,18.6,4.8z"/>
</svg>
