<?xml version="1.0" encoding="utf-8"?>
<!-- Generator: Adobe Illustrator 23.0.6, SVG Export Plug-In . SVG Version: 6.00 Build 0)  -->
<svg version="1.1" id="Layer_1" xmlns="http://www.w3.org/2000/svg" xmlns:xlink="http://www.w3.org/1999/xlink" x="0px" y="0px"
	 viewBox="0 0 20 20" style="enable-background:new 0 0 20 20;" xml:space="preserve">
<style type="text/css">
	.st0{opacity:0.2;fill-rule:evenodd;clip-rule:evenodd;enable-background:new    ;}
</style>
<path class="st0" d="M20,0.8v18.4c0,0.4-0.4,0.8-0.8,0.8H0.8C0.4,20,0,19.6,0,19.2V0.8C0,0.4,0.4,0,0.8,0h18.4C19.6,0,20,0.4,20,0.8
	z M16.3,3.7h-3.7v-1h4c0.4,0,0.7,0.3,0.7,0.7v4h-1V3.7z M3.7,12.3h-1v4.3c0,0.4,0.3,0.7,0.7,0.7h4.3v-1h-4
	C3.7,16.3,3.7,12.3,3.7,12.3z M16.3,12.3v4h-3.7v1h4c0.4,0,0.7-0.3,0.7-0.7v-4.3C17.3,12.3,16.3,12.3,16.3,12.3z M2.7,3.3v4h1V3.7h4
	v-1H3.3C3,2.7,2.7,3,2.7,3.3z"/>
</svg>
