<?xml version="1.0" encoding="utf-8"?>
<!-- Generator: Adobe Illustrator 24.0.2, SVG Export Plug-In . SVG Version: 6.00 Build 0)  -->
<svg version="1.1" id="Layer_1" xmlns="http://www.w3.org/2000/svg" xmlns:xlink="http://www.w3.org/1999/xlink" x="0px" y="0px"
	 viewBox="0 0 16 14" style="enable-background:new 0 0 16 14;" xml:space="preserve">
<style type="text/css">
	.st0{fill:#FFFFFF;}
</style>
<path class="st0" d="M8,4.9c-1.6,0-2.9,1.3-2.9,2.9c0,0,0,0,0,0c0,1.6,1.3,2.9,2.9,2.9c0,0,0,0,0,0c1.6,0,2.9-1.3,2.9-2.9
	c0,0,0,0,0,0C10.9,6.2,9.6,4.9,8,4.9C8,4.9,8,4.9,8,4.9z M8,3.7c2.3,0,4.1,1.8,4.1,4.1c0,2.3-1.8,4.1-4.1,4.1
	c-2.3,0-4.1-1.8-4.1-4.1C3.9,5.5,5.7,3.7,8,3.7z M5.1,0.2L4.3,2.3H1.4C0.6,2.3,0,2.9,0,3.7v8.2c0,0.8,0.6,1.4,1.4,1.4h13.1
	c0.8,0,1.4-0.6,1.4-1.4V3.7c0-0.8-0.6-1.4-1.4-1.4h-2.9l-0.8-2.1H5.1z"/>
</svg>
