<?xml version="1.0" encoding="utf-8"?>
<!-- Generator: Adobe Illustrator 23.0.1, SVG Export Plug-In . SVG Version: 6.00 Build 0)  -->
<svg version="1.1" id="Layer_1" xmlns="http://www.w3.org/2000/svg" xmlns:xlink="http://www.w3.org/1999/xlink" x="0px" y="0px"
	 viewBox="0 0 24 24" style="enable-background:new 0 0 24 24;" xml:space="preserve">
<style type="text/css">
	.st0{fill:none;}
</style>
<path class="st0" d="M4.7,1.5h4.8c0.7,0,1.3,0.6,1.3,1.3v8.5c0,0.7-0.6,1.3-1.3,1.3H4.7c-0.7,0-1.3-0.6-1.3-1.3V2.8
	C3.4,2.1,3.9,1.5,4.7,1.5z M4.7,3.3v7.5c0,0.3,0.2,0.5,0.5,0.5H9c0.3,0,0.5-0.2,0.5-0.5V3.3C9.5,3,9.2,2.8,9,2.8H5.2
	C4.9,2.8,4.7,3,4.7,3.3z M19.3,11.4h-4.8c-0.7,0-1.3,0.6-1.3,1.3v8.5c0,0.7,0.6,1.3,1.3,1.3h4.8c0.7,0,1.3-0.6,1.3-1.3v-8.5
	C20.6,12,20.1,11.4,19.3,11.4z M19.3,20.7c0,0.3-0.2,0.5-0.5,0.5H15c-0.3,0-0.5-0.2-0.5-0.5v-7.5c0-0.3,0.2-0.5,0.5-0.5h3.8
	c0.3,0,0.5,0.2,0.5,0.5V20.7z M9.5,15.1H4.7c-0.7,0-1.3,0.6-1.3,1.3v4.8c0,0.7,0.6,1.3,1.3,1.3h4.8c0.7,0,1.3-0.6,1.3-1.3v-4.8
	C10.8,15.7,10.2,15.1,9.5,15.1z M9.5,20.7c0,0.3-0.2,0.5-0.5,0.5H5.2c-0.3,0-0.5-0.2-0.5-0.5v-3.8c0-0.3,0.2-0.5,0.5-0.5H9
	c0.3,0,0.5,0.2,0.5,0.5V20.7z M19.3,1.5h-4.8c-0.7,0-1.3,0.6-1.3,1.3v4.8c0,0.7,0.6,1.3,1.3,1.3h4.8c0.7,0,1.3-0.6,1.3-1.3V2.8
	C20.6,2.1,20.1,1.5,19.3,1.5z M19.3,7.1c0,0.3-0.2,0.5-0.5,0.5H15c-0.3,0-0.5-0.2-0.5-0.5V3.3c0-0.3,0.2-0.5,0.5-0.5h3.8
	c0.3,0,0.5,0.2,0.5,0.5V7.1z"/>
</svg>
