<?xml version="1.0" encoding="utf-8"?>
<!-- Generator: Adobe Illustrator 23.0.1, SVG Export Plug-In . SVG Version: 6.00 Build 0)  -->
<svg version="1.1" id="Layer_1" xmlns="http://www.w3.org/2000/svg" xmlns:xlink="http://www.w3.org/1999/xlink" x="0px" y="0px"
	 viewBox="0 0 24 24" style="enable-background:new 0 0 24 24;" xml:space="preserve">
<style type="text/css">
	.st0{fill:none;}
</style>
<path class="st0" d="M19.9,3.4c-1.4,0-2.6,1.1-2.6,2.5c0,0.8,0.4,1.5,0.9,1.9l-2.4,4.5c-0.2-0.1-0.4-0.1-0.7-0.1
	c-0.6,0-1.1,0.2-1.5,0.5l-1.8-1.6c0.2-0.4,0.3-0.8,0.3-1.2c0-1.4-1.2-2.5-2.6-2.5C8.2,7.4,7,8.5,7,9.9c0,0.7,0.3,1.3,0.7,1.7l-2.7,4
	c-0.3-0.1-0.6-0.2-0.9-0.2c-1.4,0-2.6,1.1-2.6,2.5s1.2,2.5,2.6,2.5c1.4,0,2.6-1.1,2.6-2.5c0-0.7-0.3-1.3-0.7-1.7l2.7-4
	c0.3,0.1,0.6,0.2,0.9,0.2c0.6,0,1.1-0.2,1.5-0.5l1.8,1.6c-0.2,0.4-0.3,0.8-0.3,1.2c0,1.4,1.2,2.5,2.6,2.5c1.4,0,2.6-1.1,2.6-2.5
	c0-0.8-0.4-1.5-0.9-1.9l2.4-4.5c0.2,0.1,0.4,0.1,0.7,0.1c1.4,0,2.6-1.1,2.6-2.5S21.3,3.4,19.9,3.4z"/>
</svg>
