<?xml version="1.0" encoding="utf-8"?>
<!-- Generator: Adobe Illustrator 23.0.1, SVG Export Plug-In . SVG Version: 6.00 Build 0)  -->
<svg version="1.1" id="Layer_1" xmlns="http://www.w3.org/2000/svg" xmlns:xlink="http://www.w3.org/1999/xlink" x="0px" y="0px"
	 viewBox="0 0 80 80" style="enable-background:new 0 0 80 80;" xml:space="preserve">
<style type="text/css">
	.st0{fill:#68385B;}
	.st1{fill:#F5A623;}
</style>
<path class="st0" d="M30,31.2H12.2c-0.8,0-1.4,0.7-1.4,1.5c0,0.8,0.6,1.5,1.4,1.5H30c0.8,0,1.4-0.7,1.4-1.5
	C31.4,31.8,30.8,31.2,30,31.2z M47.7,39H12.2c-0.8,0-1.4,0.7-1.4,1.5c0,0.8,0.6,1.5,1.4,1.5h35.5c0.8,0,1.4-0.7,1.4-1.5
	C49.1,39.7,48.4,39,47.7,39z M47.7,46.9H12.2c-0.8,0-1.4,0.7-1.4,1.5s0.6,1.5,1.4,1.5h35.5c0.8,0,1.4-0.7,1.4-1.5
	S48.4,46.9,47.7,46.9z M53.1,19.4c3.7,0,6.7,3,6.7,6.7v28.6c0,3.7-3,6.7-6.7,6.7l-23.2,0.1L16.3,76.3V61.4H6.7c-3.7,0-6.7-3-6.7-6.7
	V26.2c0-3.7,3-6.7,6.7-6.7L53.1,19.4z"/>
<path class="st1" d="M80,10.5v28.6c0,3.7-3,6.7-6.7,6.7h-2.8v14.9L61,50.2V25.2c0-3.7-3-6.7-6.7-6.7l-34.1,0.1v-8.3
	c0-3.7,3-6.7,6.7-6.7l46.4,0.1C77,3.8,80,6.8,80,10.5z"/>
</svg>
