<?xml version="1.0" encoding="utf-8"?>
<!-- Generator: Adobe Illustrator 23.0.1, SVG Export Plug-In . SVG Version: 6.00 Build 0)  -->
<svg version="1.1" id="Layer_1" xmlns="http://www.w3.org/2000/svg" xmlns:xlink="http://www.w3.org/1999/xlink" x="0px" y="0px"
	 viewBox="0 0 16 16" style="enable-background:new 0 0 16 16;" xml:space="preserve">
<style type="text/css">
	.st0{fill:#68385B;}
</style>
<path class="st0" d="M8.3,11.1L8.3,11.1L8.3,11.1c0,0.2-0.1,0.3-0.3,0.3H2.8c-0.2,0-0.3-0.1-0.3-0.3v0l0,0c0-0.1,0-0.2,0.1-0.2
	c0.1-0.1,0.1-0.1,0.2-0.1H8c0.1,0,0.2,0,0.2,0.1C8.3,10.9,8.3,11,8.3,11.1z M8,8.9H4.1c-0.2,0-0.3,0.1-0.3,0.3
	c0,0.2,0.1,0.3,0.3,0.3H8c0.2,0,0.3-0.1,0.3-0.3C8.3,9.1,8.2,8.9,8,8.9z M2.8,9.6c0.2,0,0.3-0.1,0.3-0.3c0-0.2-0.1-0.3-0.3-0.3
	S2.5,9.1,2.5,9.2C2.5,9.4,2.6,9.6,2.8,9.6z M15.3,10.3c0.1,0.1,0.1,0.2,0.1,0.3c0,0.1-0.2,0.2-0.3,0.2c-0.9,0-1.8-0.3-2.4-1
	c-0.5,0.2-1.2,0.3-1.9,0.3c-0.2,2.4-2.5,4.3-5.3,4.3c-0.7,0-1.6-0.1-2.2-0.3c-0.6,0.6-1.5,1-2.4,1c-0.1,0-0.2-0.1-0.3-0.2
	c0-0.1,0-0.2,0.1-0.3c0.5-0.5,0.7-1.1,0.5-1.8C0.4,12,0,10.9,0,9.9c0-2.6,2.5-4.5,5.2-4.6c0.2-2.4,2.5-4.4,5.3-4.4
	c2.8,0,5.5,2,5.5,4.7c0,1.1-0.4,2.1-1.2,3C14.6,9.1,14.8,9.8,15.3,10.3z M10.2,9.9c0-2.3-2.2-4-4.7-4c-2.6,0-4.9,1.8-4.9,4
	c0,0.9,0.4,1.9,1.1,2.6c0,0,0.1,0.1,0.1,0.1c0.2,0.6,0.1,1.3-0.2,1.8c0.5-0.1,1-0.4,1.4-0.8c0.1-0.1,0.2-0.1,0.3-0.1
	c0.6,0.2,1.4,0.4,2.1,0.4C8.1,13.9,10.2,12.1,10.2,9.9z M14.4,10.1c-0.3-0.6-0.4-1.2-0.2-1.8c0,0,0-0.1,0.1-0.1
	c0.7-0.7,1.1-1.6,1.1-2.6c0-1.4-0.9-2.6-2.2-3.3c-0.8-0.4-1.7-0.7-2.7-0.7c-0.6,0-1.2,0.1-1.7,0.3C7.1,2.3,6,3.7,5.8,5.2
	c0.8,0,1.6,0.3,2.3,0.6h5c0.2,0,0.3,0.1,0.3,0.3s-0.1,0.3-0.3,0.3H9.1c1,0.8,1.6,1.9,1.7,3.1c0.7,0,1.4-0.2,1.8-0.4
	c0.1,0,0.3,0,0.3,0.1C13.4,9.7,13.9,10,14.4,10.1z M8,4C7.8,4,7.7,4.1,7.7,4.3S7.8,4.6,8,4.6s0.3-0.1,0.3-0.3S8.2,4,8,4z M13.2,4
	H9.2C9.1,4,8.9,4.1,8.9,4.3s0.1,0.3,0.3,0.3h3.9c0.2,0,0.3-0.1,0.3-0.3S13.4,4,13.2,4z"/>
</svg>
