<?xml version="1.0" encoding="utf-8"?>
<!-- Generator: Adobe Illustrator 23.0.1, SVG Export Plug-In . SVG Version: 6.00 Build 0)  -->
<svg version="1.1" id="Layer_1" xmlns="http://www.w3.org/2000/svg" xmlns:xlink="http://www.w3.org/1999/xlink" x="0px" y="0px"
	 viewBox="0 0 16 16" style="enable-background:new 0 0 16 16;" xml:space="preserve">
<style type="text/css">
	.st0{fill:#417505;}
</style>
<path class="st0" d="M15.3,5.2L7,12.1L4.1,8.9C3.8,8.7,3.8,8.3,4.1,8C4.4,7.8,4.8,7.8,5,8l2.1,2.2l7.4-6.1C14.8,4,15.2,4,15.4,4.3
	C15.6,4.6,15.6,5,15.3,5.2z"/>
<path class="st0" d="M14.3,6.4c0.1,0.5,0.2,1,0.2,1.6c0,3.6-2.9,6.5-6.5,6.5S1.5,11.6,1.5,8S4.4,1.5,8,1.5c2.3,0,4.3,1.2,5.5,3
	l0.8-0.6c-1.3-2-3.6-3.4-6.3-3.4C3.9,0.5,0.5,3.9,0.5,8s3.4,7.5,7.5,7.5s7.5-3.4,7.5-7.5c0-0.8-0.1-1.6-0.4-2.3L14.3,6.4z"/>
</svg>
