<?xml version="1.0" encoding="utf-8"?>
<!-- Generator: Adobe Illustrator 23.0.1, SVG Export Plug-In . SVG Version: 6.00 Build 0)  -->
<svg version="1.1" id="Layer_1" xmlns="http://www.w3.org/2000/svg" xmlns:xlink="http://www.w3.org/1999/xlink" x="0px" y="0px"
	 viewBox="0 0 16 16" style="enable-background:new 0 0 16 16;" xml:space="preserve">
<style type="text/css">
	.st0{fill:#68385B;}
</style>
<g>
	<path class="st0" d="M4.3,7.6c-0.2-0.2-0.6-0.2-0.9,0s-0.2,0.6,0,0.9l3,2.8c0.3,0.2,0.7,0.2,0.9-0.1l7.5-9.4
		c0.2-0.3,0.2-0.7-0.1-0.9c-0.3-0.2-0.7-0.2-0.9,0.1L6.9,9.9L4.3,7.6z"/>
	<path class="st0" d="M13.9,4.5v8.8c0,0.4-0.3,0.8-0.8,0.8H2.8c-0.4,0-0.8-0.3-0.8-0.8V2.9c0-0.4,0.3-0.8,0.8-0.8h8.8l0.9-1.1H2.8
		c-1,0-1.8,0.8-1.8,1.8v10.4c0,1,0.8,1.8,1.8,1.8h10.4c1,0,1.8-0.8,1.8-1.8V3.2L13.9,4.5z"/>
</g>
</svg>
