<?xml version="1.0" encoding="utf-8"?>
<!-- Generator: Adobe Illustrator 23.0.1, SVG Export Plug-In . SVG Version: 6.00 Build 0)  -->
<svg version="1.1" id="Layer_1" xmlns="http://www.w3.org/2000/svg" xmlns:xlink="http://www.w3.org/1999/xlink" x="0px" y="0px"
	 viewBox="0 0 16 16" style="enable-background:new 0 0 16 16;" xml:space="preserve">
<style type="text/css">
	.st0{fill:#4A4A4A;}
</style>
<path class="st0" d="M13.5,1h-11C1.6,1,1,1.6,1,2.5v11C1,14.4,1.6,15,2.5,15h11c0.9,0,1.5-0.7,1.5-1.5v-11C15,1.6,14.4,1,13.5,1z
	 M14,13.5c0,0.2-0.2,0.5-0.5,0.5h-11C2.3,14,2,13.7,2,13.5v-11C2,2.3,2.3,2,2.5,2h11C13.7,2,14,2.3,14,2.5V13.5z"/>
</svg>
