<?xml version="1.0" encoding="utf-8"?>
<!-- Generator: Adobe Illustrator 23.0.1, SVG Export Plug-In . SVG Version: 6.00 Build 0)  -->
<svg version="1.1" id="Layer_1" xmlns="http://www.w3.org/2000/svg" xmlns:xlink="http://www.w3.org/1999/xlink" x="0px" y="0px"
	 viewBox="0 0 16 16" style="enable-background:new 0 0 16 16;" xml:space="preserve">
<style type="text/css">
	.st0{fill-rule:evenodd;clip-rule:evenodd;fill:#34375A;}
</style>
<path class="st0" d="M13.8,13.8c-0.3,0.3-0.8,0.3-1.2,0L8,9.2l-4.6,4.5C3.1,14,2.6,14,2.3,13.8l-0.1-0.1c-0.3-0.3-0.3-0.8,0-1.2
	L6.9,8L2.2,3.4c-0.3-0.3-0.3-0.8,0-1.2s0.8-0.3,1.2,0l4.7,4.7l4.6-4.5c0.3-0.3,0.8-0.3,1.1-0.1l0.1,0.1c0.3,0.3,0.3,0.8,0,1.2
	L9.2,8.1l4.6,4.6C14.1,12.9,14.1,13.4,13.8,13.8z"/>
</svg>
