<?xml version="1.0" encoding="utf-8"?>
<!-- Generator: Adobe Illustrator 23.0.1, SVG Export Plug-In . SVG Version: 6.00 Build 0)  -->
<svg version="1.1" id="Layer_1" xmlns="http://www.w3.org/2000/svg" xmlns:xlink="http://www.w3.org/1999/xlink" x="0px" y="0px"
	 viewBox="0 0 16 16" style="enable-background:new 0 0 16 16;" xml:space="preserve">
<style type="text/css">
	.st0{fill:none;}
</style>
<path class="st0" d="M15.2,13.8L9.5,8.1l5.7-5.6c0.4-0.4,0.4-1,0-1.4L15.1,1c-0.4-0.3-1-0.3-1.4,0.1L8.1,6.6L2.2,0.8
	c-0.4-0.4-1-0.4-1.4,0c-0.4,0.4-0.4,1,0,1.4L6.6,8l-5.8,5.7c-0.4,0.4-0.4,1,0,1.4l0.1,0.1c0.4,0.3,1,0.3,1.4-0.1L8,9.5l5.7,5.7
	c0.4,0.4,1,0.4,1.4,0C15.6,14.8,15.6,14.2,15.2,13.8z"/>
</svg>
