<?xml version="1.0" encoding="utf-8"?>
<!-- Generator: Adobe Illustrator 23.0.1, SVG Export Plug-In . SVG Version: 6.00 Build 0)  -->
<svg version="1.1" id="Layer_1" xmlns="http://www.w3.org/2000/svg" xmlns:xlink="http://www.w3.org/1999/xlink" x="0px" y="0px"
	 viewBox="0 0 16 16" style="enable-background:new 0 0 16 16;" xml:space="preserve">
<style type="text/css">
	.st0{fill:none;}
</style>
<path class="st0" d="M15.2,15.2c-0.4,0.4-1,0.4-1.4,0L8,9.5l-5.8,5.7c-0.4,0.4-1,0.4-1.4,0.1l-0.1-0.1c-0.4-0.4-0.4-1,0-1.4L6.6,8
	L0.8,2.2c-0.4-0.4-0.4-1,0-1.4c0.4-0.4,1-0.4,1.4,0l5.8,5.8l5.7-5.6c0.4-0.4,1-0.4,1.4-0.1l0.1,0.1c0.4,0.4,0.4,1,0,1.4L9.5,8.1
	l5.7,5.7C15.6,14.2,15.6,14.8,15.2,15.2z"/>
</svg>
