<?xml version="1.0" encoding="utf-8"?>
<!-- Generator: Adobe Illustrator 23.0.1, SVG Export Plug-In . SVG Version: 6.00 Build 0)  -->
<svg version="1.1" id="Layer_1" xmlns="http://www.w3.org/2000/svg" xmlns:xlink="http://www.w3.org/1999/xlink" x="0px" y="0px"
	 viewBox="0 0 30 30" style="enable-background:new 0 0 30 30;" xml:space="preserve">
<style type="text/css">
	.st0{fill-rule:evenodd;clip-rule:evenodd;fill:none;}
	.st1{fill-rule:evenodd;clip-rule:evenodd;fill:#2F2F2F;}
</style>
<circle class="st0" cx="15" cy="15" r="15"/>
<path class="st1" d="M20.8,19.9L15.9,15l4.9-4.9l0.1-0.1c0.2-0.2,0.1-0.6-0.1-0.8c0,0,0,0,0,0l0,0l-0.1-0.1
	c-0.2-0.2-0.6-0.1-0.8,0.1L15,14.1l-4.9-4.9c-0.2-0.2-0.6-0.2-0.9,0c0,0,0,0,0,0l0,0L9.1,9.3C8.9,9.6,9,9.9,9.2,10.1l4.9,4.9
	l-4.9,4.9c-0.2,0.2-0.2,0.6,0,0.9c0,0,0,0,0,0l0,0c0.2,0.2,0.6,0.2,0.9,0l4.9-4.9l4.9,4.9l0.1,0.1c0.2,0.2,0.6,0.1,0.8-0.1
	c0,0,0,0,0,0l0,0C21.1,20.5,21.1,20.1,20.8,19.9z"/>
</svg>
