<?xml version="1.0" encoding="utf-8"?>
<!-- Generator: Adobe Illustrator 23.0.1, SVG Export Plug-In . SVG Version: 6.00 Build 0)  -->
<svg version="1.1" id="Layer_1" xmlns="http://www.w3.org/2000/svg" xmlns:xlink="http://www.w3.org/1999/xlink" x="0px" y="0px"
	 viewBox="0 0 36 36" style="enable-background:new 0 0 36 36;" xml:space="preserve">
<style type="text/css">
	.st0{opacity:0.5;fill-rule:evenodd;clip-rule:evenodd;}
	.st1{fill:#FFFFFF;}
</style>
<circle class="st0" cx="18" cy="18" r="18"/>
<g>
	<path class="st1" d="M21.2,25.9c0.4,0,0.7-0.3,0.7-0.6l0.3-11.1c0-0.4-0.3-0.7-0.6-0.7s-0.7,0.3-0.7,0.6l-0.3,11.1
		C20.6,25.5,20.8,25.8,21.2,25.9z"/>
	<path class="st1" d="M26,9.5l-4.1,0l-0.3-1.1c-0.3-1-1.2-1.7-2.2-1.7h-2.9c-1,0-1.9,0.7-2.2,1.7L14,9.5l-4.1,0
		c-0.4,0-0.8,0.4-0.8,0.8c0,0.5,0.4,0.8,0.8,0.8l0.2,0l0.6,16.1c0,1.2,1,2.1,2.1,2.1h10.3c1.1,0,2.1-0.9,2.1-2.1l0.6-16.1l0.2,0
		c0.4,0,0.8-0.4,0.8-0.8C26.8,9.9,26.5,9.5,26,9.5z M15.9,8.8c0.1-0.3,0.4-0.5,0.7-0.5h2.9c0.3,0,0.6,0.2,0.7,0.5l0.2,0.6h-4.6
		L15.9,8.8z M23.7,27.1c0,0.3-0.3,0.5-0.5,0.5H12.9c-0.3,0-0.5-0.2-0.5-0.5l-0.6-16h12.5L23.7,27.1z"/>
	<path class="st1" d="M14.8,25.9c0.4,0,0.6-0.3,0.6-0.7l-0.3-11.1c0-0.4-0.3-0.6-0.7-0.6s-0.6,0.3-0.6,0.7l0.3,11.1
		C14.2,25.6,14.5,25.9,14.8,25.9z"/>
	<path class="st1" d="M18.1,25.9c0.4,0,0.8-0.3,0.8-0.7V14.1c0-0.4-0.3-0.7-0.8-0.7c-0.4,0-0.8,0.3-0.8,0.7v11.1
		C17.4,25.6,17.7,25.9,18.1,25.9z"/>
</g>
</svg>
