<?xml version="1.0" encoding="utf-8"?>
<!-- Generator: Adobe Illustrator 23.0.1, SVG Export Plug-In . SVG Version: 6.00 Build 0)  -->
<svg version="1.1" id="Layer_1" xmlns="http://www.w3.org/2000/svg" xmlns:xlink="http://www.w3.org/1999/xlink" x="0px" y="0px"
	 viewBox="0 0 16 16" style="enable-background:new 0 0 16 16;" xml:space="preserve">
<style type="text/css">
	.st0{fill:#4A4A4A;}
</style>
<path class="st0" d="M1.9,3.3c0-0.3,0.2-0.5,0.5-0.5H7c0.3,0,0.5,0.2,0.5,0.5c0,0.3-0.2,0.5-0.5,0.5H2.3C2.1,3.8,1.9,3.5,1.9,3.3z
	 M1.9,6.1c0,0.3,0.2,0.5,0.5,0.5h7.5c0.3,0,0.5-0.2,0.5-0.5c0-0.3-0.2-0.5-0.5-0.5H2.3C2.1,5.7,1.9,5.9,1.9,6.1z M15.7,7.9
	c0,0-3.4,4.1-3.5,4.1v2.6c0,0.8-0.6,1.4-1.4,1.4H1.4C0.6,16,0,15.4,0,14.6V1.4C0,0.6,0.6,0,1.4,0H9c0.4,0,0.7,0.1,1,0.4l1.8,1.7
	c0.3,0.3,0.4,0.6,0.4,1v4.6l1.3-1.6c0.5-0.6,1.4-0.7,2-0.2C16.1,6.4,16.2,7.3,15.7,7.9z M9.4,2.8h1.8c0,0,0.1,0.1-1.8-1.7V2.8z
	 M11.2,3.8H8.9c-0.3,0-0.5-0.2-0.5-0.5V0.9h-7c-0.3,0-0.5,0.2-0.5,0.5v13.2c0,0.3,0.2,0.5,0.5,0.5h9.4c0.3,0,0.5-0.2,0.5-0.5v-1.5
	c-0.1,0.1-0.2,0.2-0.4,0.2l-1.7,0.7c-0.2,0.1-0.4,0-0.5-0.1c-0.1-0.1-0.2-0.3-0.2-0.5L9,11.7c0.1-0.2,0.2-0.4,0.3-0.6
	c0.2-0.2,1.8-2.1,2-2.4V3.8z M10.1,11.6L10,11.7c0,0.1-0.1,0.1-0.1,0.2l-0.2,0.9l0.9-0.4c0.1,0,0.1-0.1,0.2-0.1l0.2-0.2L10.1,11.6z
	 M14.9,6.6c-0.2-0.2-0.5-0.1-0.7,0.1l-0.3,0.4l0.7,0.6L15,7.3C15.1,7.1,15.1,6.8,14.9,6.6z M7,11.3H2.3c-0.3,0-0.5,0.2-0.5,0.5
	c0,0.3,0.2,0.5,0.5,0.5H7c0.3,0,0.5-0.2,0.5-0.5C7.5,11.5,7.3,11.3,7,11.3z M9.8,8.5H2.3c-0.3,0-0.5,0.2-0.5,0.5
	c0,0.3,0.2,0.5,0.5,0.5h7.5c0.3,0,0.5-0.2,0.5-0.5S10.1,8.5,9.8,8.5z"/>
</svg>
