<?xml version="1.0" encoding="utf-8"?>
<!-- Generator: Adobe Illustrator 23.0.1, SVG Export Plug-In . SVG Version: 6.00 Build 0)  -->
<svg version="1.1" id="Layer_1" xmlns="http://www.w3.org/2000/svg" xmlns:xlink="http://www.w3.org/1999/xlink" x="0px" y="0px"
	 viewBox="0 0 24 24" style="enable-background:new 0 0 24 24;" xml:space="preserve">
<style type="text/css">
	.st0{fill:#2F2F2F;}
	.st1{fill:#FFFFFF;}
</style>
<g>
	<path class="st0" d="M17.9,7h-2.4V3.5C15.5,3.2,15.3,3,15,3H5C4.7,3,4.5,3.2,4.5,3.5v11.2c0,0.9,0.7,1.6,1.6,1.6H8
		c0.3,0,0.5-0.2,0.5-0.5S8.3,15.3,8,15.3H7.6c0.1-0.2,0.2-0.5,0.2-0.7v-6C7.8,8.3,8.1,8,8.5,8s0.7,0.3,0.7,0.7v11.2c0,0,0,0.1,0,0.1
		l0,0.1c0,0,0,0,0,0l0,0c0,0,0,0.1,0.1,0.1l0.7,0.7c0.1,0.1,0.2,0.1,0.3,0.1h0c0.1,0,0.2,0,0.3-0.1l1-1l1,1c0.2,0.2,0.5,0.2,0.7,0
		l1-1l1,1v0c0.2,0.2,0.5,0.2,0.7,0l1-1l1,1c0.1,0.1,0.2,0.1,0.3,0.1c0.1,0,0.2-0.1,0.3-0.1l0.7-0.7c0.1-0.1,0.1-0.2,0.1-0.3V8.7
		C19.5,7.8,18.8,7,17.9,7z M14.6,4V7H8.5C7.6,7,6.8,7.8,6.8,8.7v6c0,0.4-0.3,0.7-0.7,0.7c-0.4,0-0.7-0.3-0.7-0.7V4H14.6z"/>
	<path class="st1" d="M13,20.1l-1.1-1.1c-0.1-0.1-0.1-0.1-0.2-0.1c-0.1,0-0.2,0-0.2,0.1l-1.1,1.1L10,19.7v-11c0,0,0-0.1,0-0.1
		c0,0,0,0,0,0c0,0,0-0.1,0-0.1c0,0,0,0,0,0c0,0,0-0.1,0-0.1c0,0,0,0,0,0c0,0,0-0.1,0-0.1c0,0,0,0,0,0c0,0,0-0.1,0-0.1c0,0,0,0,0,0
		c0,0,0-0.1-0.1-0.1c0,0,0,0,0,0c0,0,0,0,0,0h8.2c0.5,0,0.8,0.4,0.8,0.8v11.1l-0.3,0.3l-1.1-1.1c-0.1-0.1-0.3-0.1-0.5,0l-1.1,1.1
		l-1.1-1.1c-0.1-0.1-0.3-0.1-0.5,0L13,20.1z"/>
	<path class="st0" d="M17.4,9.7c0.2,0,0.3,0.1,0.3,0.3s-0.1,0.3-0.3,0.3h-6.1c-0.2,0-0.3-0.1-0.3-0.3s0.1-0.3,0.3-0.3H17.4z
		 M15.8,11.4c0.2,0,0.3,0.1,0.3,0.3c0,0.2-0.1,0.3-0.3,0.3h-4.5c-0.2,0-0.3-0.1-0.3-0.3c0-0.2,0.1-0.3,0.3-0.3H15.8z M17.4,13
		c0.2,0,0.3,0.1,0.3,0.3c0,0.2-0.1,0.3-0.3,0.3h-6.1c-0.2,0-0.3-0.1-0.3-0.3c0-0.2,0.1-0.3,0.3-0.3H17.4z M17.4,14.9
		c0.2,0,0.3,0.1,0.3,0.3c0,0.2-0.1,0.3-0.3,0.3h-4.2c-0.2,0-0.3-0.1-0.3-0.3c0-0.2,0.1-0.3,0.3-0.3H17.4z M11.9,14.9
		c0.2,0,0.3,0.1,0.3,0.3c0,0.2-0.1,0.3-0.3,0.3h-0.6c-0.2,0-0.3-0.1-0.3-0.3c0-0.2,0.1-0.3,0.3-0.3H11.9z M15.7,16.5
		c0.2,0,0.3,0.1,0.3,0.3c0,0.2-0.1,0.3-0.3,0.3h-2.6c-0.2,0-0.3-0.1-0.3-0.3c0-0.2,0.1-0.3,0.3-0.3H15.7z M11.9,16.5
		c0.2,0,0.3,0.1,0.3,0.3c0,0.2-0.1,0.3-0.3,0.3h-0.6c-0.2,0-0.3-0.1-0.3-0.3s0.1-0.3,0.3-0.3H11.9z"/>
</g>
</svg>
