<svg xmlns="http://www.w3.org/2000/svg" width="16" height="16" viewBox="0 0 16 16"><defs><clipPath id="80aua"><path fill="#fff" d="M19.892 30.515v-11.03h11.216v11.03zm3.833-2.643l-2.012-1.899a.494.494 0 0 0-.678.72l2.402 2.266c.21.199.546.175.726-.051l6.01-7.538a.494.494 0 1 0-.773-.616z"/></clipPath></defs><g><g><g><g><g><g/></g></g><g><g><g><path fill="none" stroke="#fff" stroke-miterlimit="50" stroke-width="1.1" d="M28.76 31.456h-8.32c-.572 0-1.04-.468-1.04-1.04v-8.32c0-.572.468-1.04 1.04-1.04h8.32c.572 0 1.04.468 1.04 1.04v8.32c0 .572-.468 1.04-1.04 1.04z"/></g><g><path fill="#fff" d="M29.4 20.754a.494.494 0 1 1 .773.616l-6.01 7.538a.494.494 0 0 1-.726.051l-2.402-2.267a.494.494 0 0 1 .678-.719l2.012 1.899z"/><path fill="none" stroke="#417505" stroke-miterlimit="50" stroke-width="2" d="M29.4 20.754a.494.494 0 1 1 .773.616l-6.01 7.538a.494.494 0 0 1-.726.051l-2.402-2.267a.494.494 0 0 1 .678-.719l2.012 1.899v0z" clip-path="url(&quot;#80aua&quot;)"/></g></g></g></g></g></g></svg>