<?xml version="1.0" encoding="utf-8"?>
<!-- Generator: Adobe Illustrator 23.0.1, SVG Export Plug-In . SVG Version: 6.00 Build 0)  -->
<svg version="1.1" id="Layer_1" xmlns="http://www.w3.org/2000/svg" xmlns:xlink="http://www.w3.org/1999/xlink" x="0px" y="0px"
	 viewBox="0 0 16 16" style="enable-background:new 0 0 16 16;" xml:space="preserve">
<style type="text/css">
	.st0{fill:#68385B;}
</style>
<g>
	<path class="st0" d="M15.3,7.7c-0.3,0-0.6,0.3-0.6,0.6v4.1c0,1-0.8,1.9-1.9,1.9H3.1c-1,0-1.9-0.8-1.9-1.9V8.1
		c0-0.3-0.3-0.6-0.6-0.6S0,7.9,0,8.1v4.2c0,1.7,1.4,3.1,3.1,3.1h9.8c1.7,0,3.1-1.4,3.1-3.1V8.2C15.9,7.9,15.6,7.7,15.3,7.7z"/>
	<path class="st0" d="M7.6,11.7c0.1,0.1,0.2,0.2,0.4,0.2s0.3-0.1,0.4-0.2l2.9-2.9c0.2-0.2,0.2-0.6,0-0.8c-0.2-0.2-0.6-0.2-0.8,0
		L8.5,9.8V1.2c0-0.3-0.3-0.6-0.6-0.6c-0.3,0-0.6,0.3-0.6,0.6v8.7L5.6,8C5.4,7.9,5,7.9,4.8,8c-0.2,0.2-0.2,0.6,0,0.8L7.6,11.7z"/>
</g>
</svg>
