<?xml version="1.0" encoding="utf-8"?>
<!-- Generator: Adobe Illustrator 23.0.1, SVG Export Plug-In . SVG Version: 6.00 Build 0)  -->
<svg version="1.1" id="Layer_1" xmlns="http://www.w3.org/2000/svg" xmlns:xlink="http://www.w3.org/1999/xlink" x="0px" y="0px"
	 viewBox="0 0 16 16" style="enable-background:new 0 0 16 16;" xml:space="preserve">
<style type="text/css">
	.st0{fill:#68385B;}
</style>
<path class="st0" d="M3.8,8.5C3.7,8.4,3.6,8.2,3.6,8.1c0-0.2,0.1-0.3,0.2-0.5C4,7.5,4.1,7.4,4.3,7.4c0.2,0,0.3,0.1,0.5,0.2l2.6,2.6
	V0.9c0-0.4,0.3-0.7,0.7-0.7c0.4,0,0.7,0.3,0.7,0.7v9.3l2.6-2.6c0.1-0.1,0.3-0.2,0.5-0.2h0c0.2,0,0.3,0.1,0.5,0.2
	c0.3,0.3,0.3,0.7,0,0.9l-3.7,3.7c-0.1,0.1-0.3,0.2-0.5,0.2c-0.2,0-0.3-0.1-0.5-0.2L3.8,8.5z M15.3,10.4c-0.4,0-0.7,0.3-0.7,0.7v3.4
	H1.3v-3.4c0-0.4-0.3-0.7-0.7-0.7c-0.4,0-0.7,0.3-0.7,0.7v4.1c0,0.4,0.3,0.7,0.7,0.7h14.7c0.4,0,0.7-0.3,0.7-0.7v-4.1
	C16,10.7,15.7,10.4,15.3,10.4z"/>
</svg>
