<?xml version="1.0" encoding="utf-8"?>
<!-- Generator: Adobe Illustrator 23.0.1, SVG Export Plug-In . SVG Version: 6.00 Build 0)  -->
<svg version="1.1" id="Layer_1" xmlns="http://www.w3.org/2000/svg" xmlns:xlink="http://www.w3.org/1999/xlink" x="0px" y="0px"
	 viewBox="0 0 16 16" style="enable-background:new 0 0 16 16;" xml:space="preserve">
<style type="text/css">
	.st0{fill:#FFFFFF;}
</style>
<path class="st0" d="M14.1,5.4c0-0.3-0.1-0.5-0.3-0.7c-0.4-0.4-1-0.4-1.4,0L8,9.2L3.6,4.7c-0.4-0.4-1-0.4-1.4,0
	c-0.4,0.4-0.4,1,0,1.4l5.1,5.1c0.2,0.2,0.4,0.3,0.7,0.3c0.3,0,0.5-0.1,0.7-0.3l5.1-5.1C14,6,14.1,5.7,14.1,5.4z M13.9,5.4
	c0,0.2-0.1,0.4-0.2,0.6l-5.1,5.1c-0.3,0.3-0.8,0.3-1.1,0L2.3,6C2,5.7,2,5.2,2.3,4.9c0.2-0.2,0.4-0.2,0.6-0.2c0.2,0,0.4,0.1,0.6,0.2
	l4.5,4.5L8,9.4l4.6-4.6c0.3-0.3,0.8-0.3,1.1,0C13.8,5,13.9,5.2,13.9,5.4z"/>
</svg>
