<?xml version="1.0" encoding="utf-8"?>
<!-- Generator: Adobe Illustrator 23.0.1, SVG Export Plug-In . SVG Version: 6.00 Build 0)  -->
<svg version="1.1" id="Layer_1" xmlns="http://www.w3.org/2000/svg" xmlns:xlink="http://www.w3.org/1999/xlink" x="0px" y="0px"
	 viewBox="0 0 24 24" style="enable-background:new 0 0 24 24;" xml:space="preserve">
<style type="text/css">
	.st0{fill:#33375B;}
</style>
<path class="st0" d="M21.3,7.9l-2.1-2.1c-0.1-0.1-0.2-0.1-0.3-0.1l0,0l0,0c-0.1,0-0.2,0.1-0.3,0.1L9.5,15c-0.1,0.1-0.1,0.1-0.1,0.2
	l-0.5,2.6c0,0.1,0,0.3,0.1,0.4c0.1,0.1,0.2,0.1,0.3,0.1c0,0,0.1,0,0.1,0l2.6-0.5c0.1,0,0.2-0.1,0.2-0.1l9.1-9.2
	c0.1-0.1,0.1-0.2,0.1-0.3C21.4,8.1,21.4,8,21.3,7.9z M18.5,7.1l0.4-0.4l1.5,1.5L20,8.6L18.5,7.1z M9.9,17.4l0.4-1.9l7.7-7.8l1.5,1.5
	L11.7,17L9.9,17.4z M7.6,18.1c0,0.3-0.2,0.5-0.5,0.5H2.8c-0.3,0-0.5-0.2-0.5-0.5s0.2-0.5,0.5-0.5h4.3C7.4,17.6,7.6,17.8,7.6,18.1z"
	/>
</svg>
