<?xml version="1.0" encoding="utf-8"?>
<!-- Generator: Adobe Illustrator 23.0.1, SVG Export Plug-In . SVG Version: 6.00 Build 0)  -->
<svg version="1.1" id="Layer_1" xmlns="http://www.w3.org/2000/svg" xmlns:xlink="http://www.w3.org/1999/xlink" x="0px" y="0px"
	 viewBox="0 0 24 24" style="enable-background:new 0 0 24 24;" xml:space="preserve">
<style type="text/css">
	.st0{fill:none;}
</style>
<path class="st0" d="M8.9,21.3c0,0.5-0.4,0.8-0.8,0.8H5.2c-1.9,0-3.4-1.5-3.4-3.4V5.2c0-1.9,1.5-3.4,3.4-3.4h2.8
	c0.5,0,0.8,0.4,0.8,0.8S8.5,3.5,8.1,3.5H5.2c-0.8,0-1.9,0.9-1.9,1.8v13.5c0,0.8,1,1.7,1.9,1.7H8C8.5,20.5,8.9,20.9,8.9,21.3z
	 M21.9,12.7l-6.7,6.7c-0.6,0.6-1.6,0.2-1.6-0.7v-3.2l-7.6,0c-0.5,0-1-0.4-1-1V9.1c0-0.3,0.1-0.5,0.3-0.7C5.5,8.3,5.7,8.2,6,8.2
	l7.6,0V5.3c0-0.8,1-1.3,1.6-0.7l6.7,6.7C22.3,11.7,22.3,12.3,21.9,12.7z"/>
</svg>
