<?xml version="1.0" encoding="utf-8"?>
<!-- Generator: Adobe Illustrator 23.0.1, SVG Export Plug-In . SVG Version: 6.00 Build 0)  -->
<svg version="1.1" id="Layer_1" xmlns="http://www.w3.org/2000/svg" xmlns:xlink="http://www.w3.org/1999/xlink" x="0px" y="0px"
	 viewBox="0 0 16 16" style="enable-background:new 0 0 16 16;" xml:space="preserve">
<style type="text/css">
	.st0{opacity:0.5;fill:#33375B;}
</style>
<path class="st0" d="M5.9,3.1c0,0.4,0,2.2,0,2.2H4.3V8h1.6v8h3.3V8h2.2c0,0,0.2-1.3,0.3-2.7c-0.3,0-2.5,0-2.5,0s0-1.6,0-1.8
	c0-0.3,0.4-0.6,0.7-0.6c0.4,0,1.1,0,1.8,0c0-0.4,0-1.6,0-2.8c-0.9,0-2,0-2.4,0C5.8,0,5.9,2.7,5.9,3.1z"/>
</svg>
