<?xml version="1.0" encoding="utf-8"?>
<!-- Generator: Adobe Illustrator 23.0.1, SVG Export Plug-In . SVG Version: 6.00 Build 0)  -->
<svg version="1.1" id="Layer_1" xmlns="http://www.w3.org/2000/svg" xmlns:xlink="http://www.w3.org/1999/xlink" x="0px" y="0px"
	 viewBox="0 0 24 24" style="enable-background:new 0 0 24 24;" xml:space="preserve">
<style type="text/css">
	.st0{fill-rule:evenodd;clip-rule:evenodd;fill:#FFFFFF;}
</style>
<path class="st0" d="M22.9,10c-0.5,1.9-1.5,3.6-3,4.9l-7.6,6.5c-0.2,0.2-0.5,0.2-0.7,0l-7.4-6.5c-1.5-1.3-2.6-3-3-4.9
	C0.8,8.6,1,7.9,1,7.9l0,0c0.3-3.3,2.6-5.6,5.6-5.6c2.2,0,4.1,1.3,5,3.4l0.2,0.6c0,0.1,0.2,0.1,0.3,0.1c0,0,0.1-0.1,0.1-0.1l0.2-0.6
	c0.9-2,2.9-3.3,5.1-3.3c2.9,0,5.3,2.4,5.6,5.7C23,7.9,23.2,8.6,22.9,10z M24,7.7c-0.4-3.7-3.1-6.4-6.5-6.4c-2.3,0-4.4,1.2-5.5,3.1
	c-1.2-1.9-3.2-3.1-5.4-3.1C3.1,1.3,0.4,4,0,7.7c0,0.2-0.1,1,0.2,2.4c0.5,2,1.6,3.9,3.3,5.4l8,7c0.2,0.2,0.5,0.2,0.7,0l8.2-7
	c1.7-1.5,2.8-3.3,3.3-5.4C24.1,8.8,24,7.9,24,7.7z"/>
</svg>
