<?xml version="1.0" encoding="utf-8"?>
<!-- Generator: Adobe Illustrator 23.0.1, SVG Export Plug-In . SVG Version: 6.00 Build 0)  -->
<svg version="1.1" id="Layer_1" xmlns="http://www.w3.org/2000/svg" xmlns:xlink="http://www.w3.org/1999/xlink" x="0px" y="0px"
	 viewBox="0 0 24 24" style="enable-background:new 0 0 24 24;" xml:space="preserve">
<style type="text/css">
	.st0{fill-rule:evenodd;clip-rule:evenodd;fill:#FFFFFF;}
</style>
<path class="st0" d="M24,7.7c-0.4-3.7-3.1-6.4-6.5-6.4c-2.3,0-4.4,1.2-5.5,3.1c-1.2-1.9-3.2-3.1-5.4-3.1C3.1,1.3,0.4,4,0,7.7
	c0,0.2-0.1,1,0.2,2.4c0.5,2,1.6,3.9,3.3,5.4l8,7c0.2,0.2,0.5,0.2,0.7,0l8.2-7c1.7-1.5,2.8-3.3,3.3-5.4C24.1,8.8,24,7.9,24,7.7z"/>
</svg>
