<?xml version="1.0" encoding="utf-8"?>
<!-- Generator: Adobe Illustrator 24.0.2, SVG Export Plug-In . SVG Version: 6.00 Build 0)  -->
<svg version="1.1" id="Layer_1" xmlns="http://www.w3.org/2000/svg" xmlns:xlink="http://www.w3.org/1999/xlink" x="0px" y="0px"
	 viewBox="0 0 80 80" style="enable-background:new 0 0 80 80;" xml:space="preserve">
<style type="text/css">
	.st0{fill-rule:evenodd;clip-rule:evenodd;fill:#68385B;}
</style>
<path class="st0" d="M0,40C0,17.9,17.9,0,40,0s40,17.9,40,40S62.1,80,40,80S0,62.1,0,40z M54.5,25.7c-0.2-0.4-0.6-0.7-1.1-0.7H26.6
	c-0.5,0-0.9,0.3-1.1,0.7c-0.2,0.4-0.2,0.9,0.1,1.3l9.8,13.8l0,0c0.3,0.4,0.4,0.8,0.5,1.2c0,0.1,0,0.3,0,0.4v11.3
	c0,0.3,0.1,0.7,0.4,0.9c0.2,0.2,0.6,0.4,0.9,0.4c0.2,0,0.3,0,0.5-0.1l5.5-2.1c0.5-0.2,0.8-0.6,0.8-1.2v-9.1c0-0.6,0.2-1.2,0.5-1.7
	l0,0L54.4,27C54.7,26.6,54.7,26.1,54.5,25.7z M43,40.5c-0.3,0.6-0.5,1.3-0.5,2l0,0v9l-5,1.9V42.5l0,0c0-0.7-0.2-1.4-0.5-2
	c-0.1-0.2-0.2-0.4-0.4-0.6l-9.5-13.4h25.7l-9.5,13.4C43.2,40.1,43.1,40.3,43,40.5z"/>
</svg>
