<?xml version="1.0" encoding="utf-8"?>
<!-- Generator: Adobe Illustrator 23.0.1, SVG Export Plug-In . SVG Version: 6.00 Build 0)  -->
<svg version="1.1" id="Layer_1" xmlns="http://www.w3.org/2000/svg" xmlns:xlink="http://www.w3.org/1999/xlink" x="0px" y="0px"
	 viewBox="0 0 24 24" style="enable-background:new 0 0 24 24;" xml:space="preserve">
<style type="text/css">
	.st0{fill:none;}
</style>
<path class="st0" d="M17.7,8l3.9-6.2c0.1-0.1,0.1-0.3,0-0.4c-0.1-0.1-0.2-0.2-0.3-0.2h-18V0.4C3.2,0.2,3,0,2.8,0
	C2.6,0,2.4,0.2,2.4,0.4v1.2v11.6v1.2v9.2c0,0.2,0.2,0.4,0.4,0.4c0.2,0,0.4-0.2,0.4-0.4v-8.8h18c0.1,0,0.3-0.1,0.3-0.2
	c0.1-0.1,0.1-0.3,0-0.4L17.7,8z"/>
</svg>
