<?xml version="1.0" encoding="utf-8"?>
<!-- Generator: Adobe Illustrator 23.0.1, SVG Export Plug-In . SVG Version: 6.00 Build 0)  -->
<svg version="1.1" id="Layer_1" xmlns="http://www.w3.org/2000/svg" xmlns:xlink="http://www.w3.org/1999/xlink" x="0px" y="0px"
	 viewBox="0 0 40 40" style="enable-background:new 0 0 40 40;" xml:space="preserve">
<style type="text/css">
	.st0{fill-rule:evenodd;clip-rule:evenodd;fill:#DB4545;}
	.st1{fill-rule:evenodd;clip-rule:evenodd;fill:#FFFFFF;}
</style>
<g>
	<path class="st0" d="M5,0h30c2.8,0,5,2.2,5,5v30c0,2.8-2.2,5-5,5H5c-2.8,0-5-2.2-5-5V5C0,2.2,2.2,0,5,0z"/>
	<path class="st1" d="M7.3,20C7,13.1,12.9,6.8,19.6,6.7c3.4-0.3,6.7,1.1,9.3,3.3c-1.1,1.2-2.1,2.4-3.3,3.5c-2.3-1.4-5-2.5-7.7-1.5
		c-4.3,1.3-6.9,6.5-5.3,10.8c1.3,4.5,6.6,7,10.8,5.1c2.2-0.8,3.6-2.8,4.2-5c-2.5-0.1-5,0-7.4-0.1c0-1.5,0-3,0-4.5
		c4.1,0,8.3,0,12.4,0c0.3,3.7-0.3,7.7-2.6,10.7c-3.2,4.3-9.2,5.5-14,3.8C10.9,30.9,7.2,25.6,7.3,20z"/>
</g>
</svg>
