<?xml version="1.0" encoding="utf-8"?>
<!-- Generator: Adobe Illustrator 23.0.1, SVG Export Plug-In . SVG Version: 6.00 Build 0)  -->
<svg version="1.1" id="Layer_1" xmlns="http://www.w3.org/2000/svg" xmlns:xlink="http://www.w3.org/1999/xlink" x="0px" y="0px"
	 viewBox="0 0 24 24" style="enable-background:new 0 0 24 24;" xml:space="preserve">
<style type="text/css">
	.st0{fill:#FFFFFF;}
	.st1{fill:#21263E;}
</style>
<path class="st0" d="M7,6.2l0.8,0.3c0,0.1,0.1,0.2,0.1,0.4L7.5,7.6C7.4,7.7,7.4,7.9,7.5,8c0.2,0.3,0.4,0.7,0.7,1c0,0,0.2,0,0.3,0
	l0.8-0.2C9.4,8.9,9.5,9,9.6,9.1l0.1,0.8c0,0.1,0.1,0.3,0.2,0.3c0.4,0.2,0.7,0.3,1.1,0.4c0.1,0,0.3,0,0.4-0.1l0.5-0.6h0.3l0.5,0.6
	c0.1,0.1,0.2,0.1,0.3,0.1h0.1c0.4-0.1,0.8-0.2,1.1-0.4c0.1-0.1,0.2-0.2,0.2-0.3l0.1-0.8C14.6,9,14.7,9,14.8,8.9L15.6,9
	c0.1,0,0.3,0,0.4-0.1c0.3-0.3,0.5-0.6,0.7-1c0.1-0.1,0.1-0.3,0-0.4l-0.4-0.7c0-0.1,0.1-0.2,0.1-0.4l0.7-0.3c0.1-0.1,0.2-0.2,0.2-0.3
	V4.7c0-0.1-0.1-0.3-0.2-0.3l-0.7-0.3c0-0.1-0.1-0.3-0.1-0.4L16.7,3c0.1-0.1,0.1-0.3,0-0.4c-0.2-0.3-0.4-0.7-0.7-1
	c-0.1-0.1-0.2-0.1-0.4-0.1l-0.8,0.2c-0.1-0.1-0.2-0.1-0.3-0.2l-0.1-0.8c0-0.1-0.1-0.3-0.2-0.3c-0.4-0.2-0.7-0.3-1.1-0.4
	c-0.1,0-0.3,0-0.4,0.1l-0.5,0.6h-0.3l-0.5-0.6C11.3,0,11.1,0,11,0c-0.4,0.1-0.8,0.2-1.1,0.4c-0.1,0-0.2,0.2-0.2,0.3L9.6,1.5
	C9.5,1.6,9.4,1.6,9.3,1.7L8.5,1.5c-0.1,0-0.3,0-0.4,0.1C7.9,2,7.7,2.3,7.5,2.6C7.4,2.7,7.4,2.9,7.5,3l0.4,0.7c0,0.1-0.1,0.2-0.1,0.4
	L7,4.4c-0.1,0-0.2,0.2-0.2,0.3v1.1C6.8,6,6.9,6.1,7,6.2z M20.9,11.8c-0.8-0.4-1.8-0.1-2.2,0.6l-1.1,2c-0.2,0.2-0.4,0.4-0.7,0.4
	l-5.1,1.5c-0.1,0-0.2,0-0.3,0c-0.1-0.1-0.2-0.2-0.2-0.3c-0.1-0.2,0.1-0.5,0.3-0.5l2.3-0.7c0.6-0.2,1-0.8,0.9-1.5
	c-0.2-0.6-0.8-1-1.5-0.9c0,0,0,0-0.1,0l-5,1.5c-1.7,0.5-3.2,1.8-3.8,3.5l-2.1,6c-0.1,0.2,0,0.4,0.2,0.5h0.1h4.9l0,0
	c0.2,0,0.3-0.1,0.4-0.3l0.3-1.2c0.1-0.5,0.5-1,1-1.1l9.8-3.2c0.3-0.1,0.6-0.3,0.8-0.7l1.8-3.4C22,13.2,21.7,12.2,20.9,11.8z
	 M20.9,13.7L20.9,13.7l-1.8,3.4c-0.1,0.1-0.2,0.3-0.4,0.3l-9.8,3.2c-0.8,0.3-1.3,0.9-1.5,1.7l-0.2,0.9h-4l1.9-5.4
	c0.5-1.5,1.7-2.6,3.3-3l5-1.5c0.1,0,0.2,0,0.4,0c0.1,0.1,0.2,0.2,0.2,0.3c0,0.3-0.1,0.5-0.4,0.6l-2.3,0.7c-0.6,0.2-1,0.8-0.8,1.5
	c0.1,0.3,0.3,0.6,0.5,0.7c0.3,0.2,0.6,0.2,0.9,0.1l5.1-1.5c0.4-0.1,0.8-0.4,1.1-0.7c0,0,0,0,0-0.1l1.2-2.1c0.2-0.4,0.7-0.6,1.1-0.4
	h0.1C20.9,12.7,21.1,13.2,20.9,13.7z M12,4.3c0.6,0,1,0.5,1,1s-0.5,1-1,1s-1-0.5-1-1S11.4,4.3,12,4.3z"/>
<circle class="st1" cx="12" cy="5.3" r="1"/>
</svg>
