<?xml version="1.0" encoding="utf-8"?>
<!-- Generator: Adobe Illustrator 23.0.1, SVG Export Plug-In . SVG Version: 6.00 Build 0)  -->
<svg version="1.1" id="Layer_1" xmlns="http://www.w3.org/2000/svg" xmlns:xlink="http://www.w3.org/1999/xlink" x="0px" y="0px"
	 viewBox="0 0 24 24" style="enable-background:new 0 0 24 24;" xml:space="preserve">
<style type="text/css">
	.st0{fill:#FFFFFF;}
</style>
<path class="st0" d="M7,6.2l0.8,0.3c0,0.1,0.1,0.2,0.1,0.4L7.5,7.6c-0.1,0.1-0.1,0.3,0,0.4c0.2,0.3,0.4,0.7,0.7,1C8.2,9,8.4,9,8.5,9
	l0.8-0.2C9.4,8.9,9.5,9,9.6,9.1l0.1,0.8c0,0.1,0.1,0.3,0.2,0.3c0.4,0.2,0.7,0.3,1.1,0.4c0.1,0,0.3,0,0.4-0.1l0.5-0.6h0.3l0.5,0.6
	c0.1,0.1,0.2,0.1,0.3,0.1c0,0,0.1,0,0.1,0c0.4-0.1,0.8-0.2,1.1-0.4c0.1-0.1,0.2-0.2,0.2-0.3l0.1-0.8c0.1-0.1,0.2-0.1,0.3-0.2L15.6,9
	c0.1,0,0.3,0,0.4-0.1c0.3-0.3,0.5-0.6,0.7-1c0.1-0.1,0.1-0.3,0-0.4l-0.4-0.7c0-0.1,0.1-0.2,0.1-0.4l0.7-0.3c0.1-0.1,0.2-0.2,0.2-0.3
	V4.7c0-0.1-0.1-0.3-0.2-0.3l-0.7-0.3c0-0.1-0.1-0.3-0.1-0.4L16.7,3c0.1-0.1,0.1-0.3,0-0.4c-0.2-0.3-0.4-0.7-0.7-1
	c-0.1-0.1-0.2-0.1-0.4-0.1l-0.8,0.2c-0.1-0.1-0.2-0.1-0.3-0.2l-0.1-0.8c0-0.1-0.1-0.3-0.2-0.3c-0.4-0.2-0.7-0.3-1.1-0.4
	c-0.1,0-0.3,0-0.4,0.1l-0.5,0.6h-0.3l-0.5-0.6C11.3,0,11.1,0,11,0c-0.4,0.1-0.8,0.2-1.1,0.4C9.8,0.4,9.7,0.6,9.7,0.7L9.6,1.5
	C9.5,1.6,9.4,1.6,9.3,1.7L8.5,1.5c-0.1,0-0.3,0-0.4,0.1C7.9,2,7.7,2.3,7.5,2.6C7.4,2.7,7.4,2.9,7.5,3l0.4,0.7c0,0.1-0.1,0.2-0.1,0.4
	L7,4.4C6.9,4.4,6.8,4.6,6.8,4.7v1.1C6.8,6,6.9,6.1,7,6.2z M7.5,5l0.7-0.3c0.1,0,0.2-0.1,0.2-0.3c0-0.2,0.1-0.4,0.2-0.6
	c0-0.1,0-0.2,0-0.3L8.2,2.8c0.1-0.2,0.2-0.3,0.3-0.5l0.7,0.2c0.1,0,0.2,0,0.3-0.1C9.8,2.3,10,2.1,10.1,2c0.1-0.1,0.2-0.2,0.2-0.3
	L10.4,1c0.2-0.1,0.4-0.1,0.5-0.2l0.5,0.6c0.1,0.1,0.2,0.1,0.3,0.1h0.7c0.1,0,0.2,0,0.3-0.1l0.5-0.6c0.2,0,0.4,0.1,0.5,0.2l0.1,0.8
	C13.8,1.9,13.9,2,14,2c0.2,0.1,0.3,0.2,0.5,0.4c0.1,0.1,0.2,0.1,0.3,0.1l0.7-0.2c0.1,0.2,0.2,0.3,0.3,0.5l-0.4,0.7
	c-0.1,0.1-0.1,0.2,0,0.3c0.1,0.2,0.1,0.4,0.2,0.6c0,0.1,0.1,0.2,0.2,0.3L16.6,5v0.6l-0.7,0.3c-0.1,0-0.2,0.1-0.2,0.3
	c0,0.2-0.1,0.4-0.2,0.6c0,0.1,0,0.2,0,0.3l0.4,0.7c-0.1,0.2-0.2,0.3-0.3,0.5l-0.7-0.2c-0.1,0-0.2,0-0.3,0.1
	c-0.2,0.1-0.3,0.3-0.5,0.4c-0.1,0.1-0.2,0.2-0.2,0.3l-0.1,0.8c-0.2,0.1-0.4,0.1-0.5,0.2l-0.5-0.6C12.6,9.1,12.5,9,12.4,9h-0.7
	c-0.1,0-0.2,0-0.3,0.1l-0.5,0.6c-0.2,0-0.4-0.1-0.5-0.2l-0.1-0.8c0-0.1-0.1-0.2-0.2-0.3C10,8.4,9.8,8.3,9.6,8.1
	C9.5,8.1,9.4,8,9.3,8.1L8.6,8.2C8.4,8.1,8.3,7.9,8.2,7.7l0.4-0.7c0.1-0.1,0.1-0.2,0-0.3C8.6,6.6,8.5,6.3,8.4,6.1
	c0-0.1-0.1-0.2-0.2-0.3L7.5,5.6V5z M20.9,11.8c-0.8-0.4-1.8-0.1-2.2,0.6l-1.1,2c-0.2,0.2-0.4,0.4-0.7,0.4l-5.1,1.5
	c-0.1,0-0.2,0-0.3,0c-0.1-0.1-0.2-0.2-0.2-0.3c-0.1-0.2,0.1-0.5,0.3-0.5l2.3-0.7c0.6-0.2,1-0.8,0.9-1.5c-0.2-0.6-0.8-1-1.5-0.9
	c0,0,0,0-0.1,0l-5,1.5c-1.7,0.5-3.2,1.8-3.8,3.5l-2.1,6c-0.1,0.2,0,0.4,0.2,0.5c0,0,0.1,0,0.1,0l4.9,0h0c0.2,0,0.3-0.1,0.4-0.3
	l0.3-1.2c0.1-0.5,0.5-1,1-1.1l9.8-3.2c0.3-0.1,0.6-0.3,0.8-0.7l1.8-3.4C22,13.2,21.7,12.2,20.9,11.8z M20.9,13.7
	C20.9,13.7,20.9,13.7,20.9,13.7l-1.8,3.4c-0.1,0.1-0.2,0.3-0.4,0.3l-9.8,3.2c-0.8,0.3-1.3,0.9-1.5,1.7l-0.2,0.9l-4,0l1.9-5.4
	c0.5-1.5,1.7-2.6,3.3-3l5-1.5c0.1,0,0.2,0,0.4,0c0.1,0.1,0.2,0.2,0.2,0.3c0,0.3-0.1,0.5-0.4,0.6l-2.3,0.7c-0.6,0.2-1,0.8-0.8,1.5
	c0.1,0.3,0.3,0.6,0.5,0.7c0.3,0.2,0.6,0.2,0.9,0.1l5.1-1.5c0.4-0.1,0.8-0.4,1.1-0.7c0,0,0,0,0-0.1l1.2-2.1c0.2-0.4,0.7-0.6,1.1-0.4
	l0.1,0C20.9,12.7,21.1,13.2,20.9,13.7z M12,7.2c1,0,1.8-0.8,1.8-1.8S12.9,3.6,12,3.6s-1.8,0.8-1.8,1.8S11,7.2,12,7.2z M12,4.3
	c0.6,0,1,0.5,1,1s-0.5,1-1,1s-1-0.5-1-1S11.4,4.3,12,4.3z"/>
</svg>
