<?xml version="1.0" encoding="utf-8"?>
<!-- Generator: Adobe Illustrator 23.0.1, SVG Export Plug-In . SVG Version: 6.00 Build 0)  -->
<svg version="1.1" id="Layer_1" xmlns="http://www.w3.org/2000/svg" xmlns:xlink="http://www.w3.org/1999/xlink" x="0px" y="0px"
	 viewBox="0 0 24 24" style="enable-background:new 0 0 24 24;" xml:space="preserve">
<style type="text/css">
	.st0{fill:none;}
</style>
<path class="st0" d="M20.2,9.1V8.2c0-2.2-0.8-4.3-2.2-5.8C16.6,0.9,14.6,0,12.4,0h-0.8C9.4,0,7.4,0.9,6,2.4C4.6,3.9,3.8,6,3.8,8.2
	v0.9c-1.7,0.1-3.1,1.5-3.1,3.3v1.4c0,1.8,1.5,3.3,3.3,3.3h1.9c0.3,0,0.6-0.3,0.6-0.6V9.7c0-0.3-0.3-0.6-0.6-0.6H5V8.2
	c0-4,2.8-7,6.6-7h0.8c3.8,0,6.6,3,6.6,7v0.9h-0.9c-0.3,0-0.6,0.3-0.6,0.6v6.8c0,0.3,0.3,0.6,0.6,0.6H19c-0.2,3.2-2.4,3.9-3.4,4.1
	c-0.3-0.9-1.1-1.5-2-1.5H12c-1.2,0-2.1,1-2.1,2.1s1,2.1,2.1,2.1h1.5c1,0,1.8-0.7,2-1.6c0.5-0.1,1.3-0.2,2.1-0.7
	c1.1-0.6,2.4-1.9,2.6-4.6c1.7-0.1,3.1-1.5,3.1-3.3v-1.4C23.3,10.7,21.9,9.2,20.2,9.1z M5.3,10.3V16H4c-1.2,0-2.1-0.9-2.1-2.1v-1.4
	c0-1.2,0.9-2.1,2.1-2.1H5.3z M13.5,22.8H12c-0.5,0-0.9-0.4-0.9-0.9S11.5,21,12,21h1.5c0.5,0,0.9,0.4,0.9,0.9S14,22.8,13.5,22.8z
	 M22.1,13.9c0,1.2-0.9,2.1-2.1,2.1h-1.3v-5.6H20c1.2,0,2.1,0.9,2.1,2.1V13.9z"/>
</svg>
