<?xml version="1.0" encoding="utf-8"?>
<!-- Generator: Adobe Illustrator 23.0.1, SVG Export Plug-In . SVG Version: 6.00 Build 0)  -->
<svg version="1.1" id="Layer_1" xmlns="http://www.w3.org/2000/svg" xmlns:xlink="http://www.w3.org/1999/xlink" x="0px" y="0px"
	 viewBox="0 0 24 24" style="enable-background:new 0 0 24 24;" xml:space="preserve">
<style type="text/css">
	.st0{fill:#68385B;}
</style>
<path class="st0" d="M7,2C3.9,2,1.4,4.5,1,8c0,0.2-0.1,1,0.2,2.3c0.5,1.9,1.5,3.6,3,5l7.3,6.6c0.1,0.1,0.2,0.1,0.3,0.1
	c0.1,0,0.2,0,0.3-0.1l7.5-6.6c1.5-1.4,2.6-3.1,3-5C23.1,9,23,8.2,23,8c-0.3-3.5-2.8-6-6-6c-2.1,0-4,1.1-5.1,2.9C10.9,3.1,9,2,7,2
	L7,2z"/>
</svg>
