<?xml version="1.0" encoding="utf-8"?>
<!-- Generator: Adobe Illustrator 23.0.1, SVG Export Plug-In . SVG Version: 6.00 Build 0)  -->
<svg version="1.1" id="Layer_1" xmlns="http://www.w3.org/2000/svg" xmlns:xlink="http://www.w3.org/1999/xlink" x="0px" y="0px"
	 viewBox="0 0 24 24" style="enable-background:new 0 0 24 24;" xml:space="preserve">
<style type="text/css">
	.st0{fill:#FFFFFF;}
</style>
<path class="st0" d="M23.8,11L12.3,1.4c-0.2-0.2-0.5-0.2-0.6,0L0.2,11C0,11.1,0,11.3,0,11.5s0.3,0.3,0.5,0.3h3.6v10.3
	c0,0.3,0.2,0.5,0.5,0.5h5.1c0.3,0,0.5-0.2,0.5-0.5v-5.7h3.5v5.7c0,0.3,0.2,0.5,0.5,0.5h5.1c0.3,0,0.5-0.2,0.5-0.5V11.9h3.6
	c0.2,0,0.4-0.1,0.5-0.3C24,11.3,24,11.1,23.8,11z M19.4,10.9c-0.3,0-0.5,0.2-0.5,0.5v10.3h-4.1V16c0-0.3-0.2-0.5-0.5-0.5H9.7
	c-0.3,0-0.5,0.2-0.5,0.5v5.7H5.1V11.4c0-0.3-0.2-0.5-0.5-0.5H1.9L12,2.5l10.1,8.4H19.4z"/>
</svg>
