<?xml version="1.0" encoding="utf-8"?>
<!-- Generator: Adobe Illustrator 23.0.1, SVG Export Plug-In . SVG Version: 6.00 Build 0)  -->
<svg version="1.1" id="Layer_1" xmlns="http://www.w3.org/2000/svg" xmlns:xlink="http://www.w3.org/1999/xlink" x="0px" y="0px"
	 viewBox="0 0 24 24" style="enable-background:new 0 0 24 24;" xml:space="preserve">
<style type="text/css">
	.st0{fill:none;}
</style>
<path class="st0" d="M24,11.5c-0.1,0.2-0.3,0.3-0.5,0.3h-3.6v10.3c0,0.3-0.2,0.5-0.5,0.5h-5.1c-0.3,0-0.5-0.2-0.5-0.5v-5.7h-3.5v5.7
	c0,0.3-0.2,0.5-0.5,0.5H4.6c-0.3,0-0.5-0.2-0.5-0.5V11.9H0.5c-0.2,0-0.4-0.1-0.5-0.3s0-0.4,0.2-0.6l11.5-9.6c0.2-0.2,0.5-0.2,0.6,0
	L23.8,11C24,11.1,24,11.3,24,11.5z"/>
</svg>
