<?xml version="1.0" encoding="utf-8"?>
<!-- Generator: Adobe Illustrator 23.0.1, SVG Export Plug-In . SVG Version: 6.00 Build 0)  -->
<svg version="1.1" id="Layer_1" xmlns="http://www.w3.org/2000/svg" xmlns:xlink="http://www.w3.org/1999/xlink" x="0px" y="0px"
	 viewBox="0 0 16 16" style="enable-background:new 0 0 16 16;" xml:space="preserve">
<style type="text/css">
	.st0{fill:#68385B;}
</style>
<path class="st0" d="M15.9,7.3C16,7.4,16,7.5,16,7.7c-0.1,0.1-0.2,0.2-0.3,0.2h-2.4v6.9c0,0.2-0.2,0.3-0.3,0.3H9.5
	c-0.2,0-0.3-0.2-0.3-0.3V11H6.8v3.8c0,0.2-0.2,0.3-0.3,0.3H3.1c-0.2,0-0.3-0.2-0.3-0.3V7.9H0.3C0.2,7.9,0.1,7.8,0,7.7
	C0,7.5,0,7.4,0.1,7.3l7.7-6.4c0.1-0.1,0.3-0.1,0.4,0L15.9,7.3z"/>
</svg>
