<?xml version="1.0" encoding="utf-8"?>
<!-- Generator: Adobe Illustrator 24.0.2, SVG Export Plug-In . SVG Version: 6.00 Build 0)  -->
<svg version="1.1" id="Layer_1" xmlns="http://www.w3.org/2000/svg" xmlns:xlink="http://www.w3.org/1999/xlink" x="0px" y="0px"
	 viewBox="0 0 22 29" style="enable-background:new 0 0 22 29;" xml:space="preserve">
<style type="text/css">
	.st0{fill:#FFFFFF;}
</style>
<path class="st0" d="M21.3,26.5l-2.1-8.7c-0.5-1.9-2.8-3.5-5.2-3.5h-0.1c-0.3,0-0.6,0.2-0.7,0.5c-0.2,0.5-0.8,1-1.8,1
	s-1.6-0.5-1.8-1c-0.1-0.3-0.4-0.5-0.7-0.5H8.8c-2.4,0-4.7,1.5-5.2,3.5l-2.1,8.7c0,0.1,0,0.2,0,0.4c0.1,0.3,0.3,0.5,0.5,0.5
	c0.1,0,0.1,0,0.2,0c0,0,0,0,0,0h6c0.4,0,0.7-0.3,0.7-0.7C9,26.3,8.6,26,8.2,26H3.1L5,18.2C5.3,17,6.9,16,8.5,15.9
	c0.6,0.9,1.7,1.5,2.9,1.5s2.4-0.6,2.9-1.5c1.6,0.1,3.2,1.1,3.5,2.3l1.9,7.8h-5.1c-0.4,0-0.7,0.3-0.7,0.7c0,0.4,0.3,0.7,0.7,0.7h6
	c0.1,0,0.1,0,0.2,0c0,0,0,0,0.1,0c0.2-0.1,0.3-0.2,0.4-0.3v0C21.3,26.9,21.3,26.7,21.3,26.5L21.3,26.5z M11.4,1.9
	c0.9,0,1.8,0.3,2.6,0.8c-1.1,0.7-2.5,0.9-3.8,0.6C9.7,3.2,9.3,3.4,9.2,3.8C9.1,4.2,9.4,4.6,9.7,4.7c1.8,0.5,3.8,0.1,5.3-1
	c0.7,0.9,1.1,1.9,1.1,3.1c0,2.6-2.1,4.8-4.8,4.8c-2.6,0-4.8-2.1-4.8-4.8C6.6,4.1,8.7,1.9,11.4,1.9z M4.4,7.2c0,0.4,0.4,0.7,0.8,0.7
	c0,0,0.1,0,0.1,0c0.5,3,3.1,5.1,6.1,5.1c3,0,5.6-2.2,6.1-5.1c0.4,0.1,0.8-0.2,0.8-0.6c0,0,0-0.1,0-0.1l0.1-1.1
	c0-0.4-0.3-0.7-0.7-0.8c-0.1,0-0.2,0-0.3,0.1c-0.3-1.2-0.9-2.3-1.8-3.2c0,0-0.1-0.1-0.1-0.1c-1.1-1-2.6-1.6-4.2-1.6
	c-2.9,0-5.4,2-6.1,4.9C5,5.2,4.5,5.4,4.4,5.7c0,0.1-0.1,0.2-0.1,0.3L4.4,7.2z M21,27.6v-0.2c-0.1,0-0.1,0.1-0.2,0.1c0,0,0,0-0.1,0
	c-0.1,0-0.1,0-0.2,0l0,0h-6c-0.5,0-0.9-0.4-0.9-0.9s0.4-0.9,0.9-0.9h4.9l-1.8-7.6c-0.3-1.1-1.7-2.1-3.2-2.2c-0.6,0.9-1.7,1.5-3,1.5
	c-1.2,0-2.4-0.6-3-1.5c-1.6,0.2-3,1.1-3.2,2.2l-1.8,7.6h4.9c0.5,0,0.9,0.4,0.9,0.9s-0.4,0.9-0.9,0.9l-6.1,0c0,0-0.1,0-0.2,0
	c-0.3-0.1-0.6-0.3-0.6-0.6c0-0.1,0-0.3,0-0.4l2.1-8.7c0.5-2,2.8-3.6,5.3-3.6h0.1c0,0,0,0,0,0c0.4,0,0.7,0.2,0.8,0.6
	c0.2,0.4,0.8,0.9,1.7,0.9c0.9,0,1.5-0.4,1.7-0.9c0.1-0.3,0.4-0.6,0.8-0.6c0,0,0,0,0,0H14c2.5,0,4.8,1.6,5.3,3.6l2.1,8.7
	c0.1,0.2,0,0.5-0.1,0.7L21,27.6z M8.8,14.6c-2.4,0-4.6,1.5-5,3.3l-2.1,8.7c0,0.1,0,0.2,0,0.3c0.1,0.2,0.2,0.4,0.4,0.4c0,0,0,0,0.1,0
	l0,0l0.1,0h6c0.3,0,0.6-0.3,0.6-0.6s-0.3-0.6-0.6-0.6H2.9l1.9-8c0.3-1.2,1.9-2.3,3.6-2.5l0.1,0l0,0.1c0.5,0.8,1.6,1.4,2.8,1.4
	c1.2,0,2.3-0.5,2.8-1.4l0-0.1l0.1,0c1.7,0.1,3.3,1.2,3.6,2.4l1.9,8h-5.3c-0.3,0-0.6,0.3-0.6,0.6s0.3,0.6,0.6,0.6l6.1,0
	c0,0,0.1,0,0.1,0l0,0c0.1,0,0.2-0.1,0.3-0.2l0,0c0.1-0.1,0.1-0.2,0.1-0.4L19,17.9c-0.5-1.9-2.7-3.3-5-3.3h-0.1c0,0,0,0,0,0
	c-0.2,0-0.5,0.2-0.5,0.4c-0.2,0.5-0.9,1.1-1.9,1.1c-1,0-1.8-0.5-1.9-1.1c-0.1-0.2-0.3-0.4-0.5-0.4C8.9,14.6,8.9,14.6,8.8,14.6
	L8.8,14.6z M11.4,13.1c-3,0-5.6-2.1-6.2-5.1C4.9,8,4.7,7.9,4.6,7.8C4.4,7.6,4.3,7.4,4.3,7.2L4.2,6.1c0-0.1,0-0.3,0.1-0.4
	c0.2-0.4,0.6-0.6,1-0.5c0.7-2.8,3.2-4.8,6.2-4.8c0,0,0,0,0,0c1.6,0,3.1,0.6,4.3,1.7c0,0,0.1,0.1,0.1,0.1c0.9,0.8,1.5,1.9,1.8,3.1
	c0.1,0,0.2,0,0.2,0c0.2,0,0.4,0.1,0.6,0.3c0.1,0.2,0.2,0.4,0.2,0.6l-0.1,1.1c0,0,0,0.1,0,0.1C18.4,7.7,18.1,8,17.6,8c0,0,0,0,0,0
	C17,11,14.4,13.1,11.4,13.1z M5.4,7.7l0,0.1c0.5,2.9,3,5,6,5c2.9,0,5.4-2.1,6-5l0-0.1l0.1,0c0.3,0.1,0.6-0.1,0.7-0.4c0,0,0,0,0-0.1
	l0.1-1.1c0-0.2,0-0.3-0.1-0.4s-0.2-0.2-0.4-0.2c-0.1,0-0.2,0-0.3,0l-0.2,0.1l0-0.2c-0.3-1.2-0.9-2.2-1.8-3.1c0,0-0.1,0-0.1-0.1
	c-1.1-1-2.6-1.6-4.1-1.6c0,0,0,0,0,0c-2.9,0-5.3,1.9-5.9,4.7l0,0.2L5.3,5.5C5,5.4,4.6,5.5,4.5,5.8c0,0.1-0.1,0.2,0,0.3l0.1,1.1
	c0,0.2,0.1,0.3,0.2,0.4C4.9,7.7,5,7.7,5.2,7.7c0,0,0,0,0.1,0L5.4,7.7z M11.4,11.7c-2.7,0-4.9-2.2-4.9-4.9c0-2.7,2.2-4.9,4.9-4.9l0,0
	c0.9,0,1.9,0.3,2.7,0.8l0.2,0.1L14,2.8c-1.2,0.7-2.6,1-4,0.6c-0.1,0-0.3,0-0.4,0.1C9.5,3.6,9.4,3.7,9.4,3.8c0,0.1,0,0.3,0.1,0.4
	c0.1,0.1,0.2,0.2,0.3,0.3c1.8,0.5,3.7,0.1,5.2-1l0.1-0.1l0.1,0.1c0.7,0.9,1.1,2,1.1,3.1C16.3,9.4,14.1,11.7,11.4,11.7z M11.4,2.1
	c-2.6,0-4.6,2.1-4.6,4.6c0,2.6,2.1,4.6,4.6,4.6c2.6,0,4.6-2.1,4.6-4.6c0-1-0.3-2-1-2.8C13.5,5,11.6,5.3,9.7,4.8
	C9.5,4.8,9.3,4.6,9.2,4.4C9.1,4.2,9,4,9.1,3.7c0.1-0.2,0.2-0.4,0.4-0.5c0.2-0.1,0.4-0.1,0.7-0.1c1.2,0.3,2.5,0.2,3.5-0.4
	C13,2.3,12.2,2.1,11.4,2.1L11.4,2.1z"/>
</svg>
