<?xml version="1.0" encoding="utf-8"?>
<!-- Generator: Adobe Illustrator 23.0.1, SVG Export Plug-In . SVG Version: 6.00 Build 0)  -->
<svg version="1.1" id="Layer_1" xmlns="http://www.w3.org/2000/svg" xmlns:xlink="http://www.w3.org/1999/xlink" x="0px" y="0px"
	 viewBox="0 0 24 24" style="enable-background:new 0 0 24 24;" xml:space="preserve">
<style type="text/css">
	.st0{fill:none;}
</style>
<path class="st0" d="M12,8C13.1,8,14,7.1,14,6c0-1.1-0.9-1.9-1.9-1.9c-1.1,0-1.9,0.9-1.9,1.9C10.1,7.1,10.9,8,12,8z M12,5L12,5
	c0.6,0,1,0.5,1,1s-0.5,1-1,1c-0.6,0-1-0.5-1-1C11,5.5,11.5,5,12,5z M17.5,1.4C15.8,0.5,13.9,0,12,0C5.5,0,0.3,5.3,0.3,11.8
	c0,3.1,1.2,6,3.3,8.2l-0.5,3.5c0,0.3,0.1,0.5,0.4,0.5c0.1,0,0.2,0,0.3-0.1l2.7-1.8c5.7,3,12.8,0.9,15.9-4.9
	C25.4,11.5,23.2,4.4,17.5,1.4z M19.7,19.4c-2,2.1-4.8,3.2-7.7,3.2c-1.9,0-3.7-0.5-5.3-1.4c-0.1-0.1-0.3-0.1-0.5,0l-2.1,1.4l0.4-2.7
	c0-0.1,0-0.3-0.1-0.4C0.2,15.3,0.1,8.4,4.3,4.2c4.2-4.3,11-4.3,15.3-0.1C23.9,8.3,23.9,15.1,19.7,19.4z M14.7,16.9h-0.4v-6.9
	c0-0.3-0.2-0.5-0.5-0.5h-4c-0.3,0-0.5,0.2-0.5,0.5v1.7c0,0.3,0.2,0.5,0.5,0.5h0.4v4.7H9.8c-0.3,0-0.5,0.2-0.5,0.5v1.7
	c0,0.3,0.2,0.5,0.5,0.5h4.8c0.3,0,0.5-0.2,0.5-0.5v-1.7C15.1,17.1,14.9,16.9,14.7,16.9z M10.3,18.6v-0.7h0.4c0.3,0,0.5-0.2,0.5-0.5
	v-5.6c0-0.3-0.2-0.5-0.5-0.5h-0.4v-0.7h3.1v6.9c0,0.3,0.2,0.5,0.5,0.5h0.4l0,0.7H10.3z"/>
</svg>
