<?xml version="1.0" encoding="utf-8"?>
<!-- Generator: Adobe Illustrator 23.0.1, SVG Export Plug-In . SVG Version: 6.00 Build 0)  -->
<svg version="1.1" id="Layer_1" xmlns="http://www.w3.org/2000/svg" xmlns:xlink="http://www.w3.org/1999/xlink" x="0px" y="0px"
	 viewBox="0 0 16 16" style="enable-background:new 0 0 16 16;" xml:space="preserve">
<style type="text/css">
	.st0{opacity:0.5;fill:#33375B;}
</style>
<path class="st0" d="M11.3,8c0,1.8-1.5,3.3-3.3,3.3S4.8,9.8,4.8,8S6.2,4.7,8,4.7S11.3,6.2,11.3,8z M12.7,2.8c-0.3,0-0.5,0.2-0.5,0.5
	s0.2,0.5,0.5,0.5s0.5-0.2,0.5-0.5S13,2.8,12.7,2.8z M16,2.3v11.3c0,1.3-1.1,2.3-2.3,2.3H2.3C1.1,16,0,14.9,0,13.7V2.3
	C0,1.1,1.1,0,2.3,0h11.3C14.9,0,16,1.1,16,2.3z M12.2,8c0-2.3-1.9-4.2-4.2-4.2S3.8,5.6,3.8,8s1.9,4.2,4.2,4.2S12.2,10.3,12.2,8z
	 M14.1,3.3c0-0.8-0.6-1.4-1.4-1.4s-1.4,0.6-1.4,1.4s0.6,1.4,1.4,1.4S14.1,4.1,14.1,3.3z"/>
</svg>
