<?xml version="1.0" encoding="utf-8"?>
<!-- Generator: Adobe Illustrator 23.0.1, SVG Export Plug-In . SVG Version: 6.00 Build 0)  -->
<svg version="1.1" id="Layer_1" xmlns="http://www.w3.org/2000/svg" xmlns:xlink="http://www.w3.org/1999/xlink" x="0px" y="0px"
	 viewBox="0 0 24 24" style="enable-background:new 0 0 24 24;" xml:space="preserve">
<style type="text/css">
	.st0{fill:#FFFFFF;}
</style>
<path class="st0" d="M24,12.2c-0.1-1.4-1.2-2.4-2.6-2.4h-7.2V6.7L16.6,5L16.6,5c0.1-0.1,0.2-0.3,0.2-0.5c0-0.2-0.1-0.4-0.3-0.6
	l-2.4-1.7l0-0.2c-0.2-1.2-1.3-2-2.5-2h-9L2.4,0C1.1,0.1,0,1.2,0,2.6v9l0,0.2c0.1,1.4,1.2,2.4,2.6,2.4h7.2v3.1L7.4,19L7.4,19
	c-0.1,0.1-0.2,0.3-0.2,0.5c0,0.2,0.1,0.4,0.3,0.6l2.4,1.7l0,0.2c0.2,1.2,1.3,2,2.5,2h9l0.2,0c1.4-0.1,2.4-1.2,2.4-2.6v-9L24,12.2z
	 M13,5.9c-0.1,0.1-0.2,0.3-0.2,0.5v3.4h-0.4l-0.2,0c-1.4,0.1-2.4,1.2-2.4,2.6v0.4H2.6l-0.1,0c-0.6-0.1-1.1-0.6-1.1-1.2v-9l0-0.1
	C1.5,1.9,2,1.4,2.6,1.4h9c0.7,0,1.2,0.5,1.2,1.2c0,0.2,0.1,0.4,0.3,0.6l1.8,1.3L13,5.9L13,5.9z M18.4,19.7c-0.2,0-0.3-0.1-0.3-0.2
	l-0.3-1H16l-0.3,1c0,0.1-0.2,0.2-0.3,0.2c-0.3,0-0.6-0.2-0.6-0.4c0,0,0,0,0-0.1l1.5-4.7c0.1-0.2,0.3-0.3,0.6-0.3
	c0.3,0,0.6,0.1,0.6,0.3l1.5,4.7c0,0,0,0.1,0,0.1C19,19.5,18.6,19.7,18.4,19.7z M8.9,3.9L8.4,3.4L8.8,3l0.5,0.5L8.9,3.9z M16.9,15.4
	l0.7,2.3h-1.3L16.9,15.4z M11.6,4.5c-0.1-0.1-0.3-0.2-0.5-0.3c-0.2-0.1-0.4-0.1-0.6-0.1c-0.2,0-0.4,0-0.6,0.1
	C9.7,4.3,9.5,4.4,9.3,4.5C9.2,4.6,9,4.8,8.8,4.9S8.5,5.3,8.4,5.4C8.3,5.6,8.1,5.7,8,5.9C8,5.9,8,6,8,6C7.9,5.9,7.8,5.8,7.7,5.6
	C7.5,5.4,7.4,5.2,7.3,4.9L6.8,5.7c0.1,0.2,0.2,0.4,0.3,0.6c0.1,0.2,0.2,0.3,0.2,0.5C7.4,6.9,7.4,7,7.5,7.1s0,0.2,0,0.3
	C7.4,7.5,7.2,7.6,7.1,7.7C6.9,7.8,6.7,7.9,6.5,8S6.1,8.1,5.8,8.1c-0.2,0-0.5,0.1-0.8,0.1c-0.2,0-0.4,0-0.6-0.1
	C4.2,8.1,4.1,8,3.9,7.9C3.8,7.8,3.6,7.7,3.5,7.5C3.5,7.3,3.4,7.1,3.4,6.9c0-0.2,0-0.3,0.1-0.5s0.1-0.3,0.1-0.5
	c0.1-0.2,0.1-0.3,0.2-0.5C3.9,5.3,3.9,5.2,4,5H3.9C3.8,5.1,3.7,5.3,3.6,5.5S3.4,5.9,3.3,6.1C3.2,6.3,3.1,6.5,3.1,6.8
	C3,7,3,7.2,3,7.4c0,0.5,0.2,0.9,0.5,1.2C3.8,8.9,4.2,9,4.8,9c0.3,0,0.5,0,0.8-0.1c0.3,0,0.5-0.1,0.7-0.2C6.6,8.7,6.8,8.6,7,8.5
	c0.2-0.1,0.4-0.2,0.5-0.3c0,0,0.1-0.1,0.1-0.2c0-0.1,0.1-0.2,0.1-0.3s0.1-0.2,0.1-0.4c0-0.1,0-0.2,0-0.4C7.9,6.9,8,7,8.2,7
	c0.1,0,0.3,0,0.5,0h2.7c0.1,0,0.1,0,0.2-0.1c0.1-0.1,0.1-0.2,0.2-0.3c0.1-0.1,0.1-0.3,0.2-0.4C12,6,12,5.8,12,5.6
	c0-0.2,0-0.4-0.1-0.6S11.7,4.7,11.6,4.5z M11.5,6.2C11.5,6.2,11.4,6.3,11.5,6.2L8.9,6.3c-0.2,0-0.3,0-0.5,0c-0.1,0-0.1,0-0.2-0.1
	c0.3-0.4,0.7-0.7,1-0.9c0.4-0.2,0.7-0.3,1-0.3c0.2,0,0.4,0,0.6,0.1c0.2,0.1,0.3,0.1,0.4,0.3c0.1,0.1,0.2,0.2,0.2,0.4
	s0.1,0.3,0.1,0.4C11.5,6.1,11.5,6.2,11.5,6.2z"/>
</svg>
