<?xml version="1.0" encoding="utf-8"?>
<!-- Generator: Adobe Illustrator 23.0.1, SVG Export Plug-In . SVG Version: 6.00 Build 0)  -->
<svg version="1.1" id="Layer_1" xmlns="http://www.w3.org/2000/svg" xmlns:xlink="http://www.w3.org/1999/xlink" x="0px" y="0px"
	 viewBox="0 0 50 50" style="enable-background:new 0 0 50 50;" xml:space="preserve">
<style type="text/css">
	.st0{fill-rule:evenodd;clip-rule:evenodd;fill:#2F2F2F;}
	.st1{fill:#FFFFFF;}
</style>
<path class="st0" d="M25,50C11.2,50,0,38.8,0,25S11.2,0,25,0c13.8,0,25,11.2,25,25S38.8,50,25,50z"/>
<path class="st1" d="M19,24.2l10-8.8c0.6-0.5,1.6-0.5,2.1,0.1c0.5,0.6,0.5,1.6-0.1,2.1l-8.7,7.6l8.6,7.1c0.6,0.5,0.7,1.5,0.2,2.1
	c-0.5,0.6-1.5,0.7-2.1,0.2l-10-8.2C18.3,25.9,18.3,24.8,19,24.2z"/>
</svg>
