<?xml version="1.0" encoding="utf-8"?>
<!-- Generator: Adobe Illustrator 23.0.1, SVG Export Plug-In . SVG Version: 6.00 Build 0)  -->
<svg version="1.1" id="Layer_1" xmlns="http://www.w3.org/2000/svg" xmlns:xlink="http://www.w3.org/1999/xlink" x="0px" y="0px"
	 viewBox="0 0 32 32" style="enable-background:new 0 0 32 32;" xml:space="preserve">
<style type="text/css">
	.st0{fill-rule:evenodd;clip-rule:evenodd;fill:#0077B5;}
	.st1{fill:#FFFFFF;}
</style>
<g>
	<path class="st0" d="M4,0h24c2.2,0,4,1.8,4,4v24c0,2.2-1.8,4-4,4H4c-2.2,0-4-1.8-4-4V4C0,1.8,1.8,0,4,0z"/>
	<path class="st1" d="M17.2,14.4C17.2,14.4,17.2,14.4,17.2,14.4L17.2,14.4L17.2,14.4z M27.1,26.8h-4.8v-7.7c0-1.9-0.7-3.3-2.5-3.3
		c-1.3,0-2.1,0.9-2.5,1.8c-0.1,0.3-0.2,0.7-0.2,1.2v8.1h-4.8c0,0,0.1-13.1,0-14.4h4.8v2c0.6-1,1.8-2.4,4.3-2.4
		c3.2,0,5.6,2.1,5.6,6.5V26.8z M7.3,10.4L7.3,10.4c-1.7,0-2.7-1.1-2.7-2.5c0-1.4,1.1-2.5,2.7-2.5C9,5.4,10,6.5,10,7.9
		C10,9.3,9,10.4,7.3,10.4z M9.7,26.8H4.9V12.3h4.8L9.7,26.8L9.7,26.8z"/>
</g>
</svg>
