<?xml version="1.0" encoding="utf-8"?>
<!-- Generator: Adobe Illustrator 23.0.1, SVG Export Plug-In . SVG Version: 6.00 Build 0)  -->
<svg version="1.1" id="Layer_1" xmlns="http://www.w3.org/2000/svg" xmlns:xlink="http://www.w3.org/1999/xlink" x="0px" y="0px"
	 viewBox="0 0 16 16" style="enable-background:new 0 0 16 16;" xml:space="preserve">
<style type="text/css">
	.st0{fill:#68385B;}
</style>
<path class="st0" d="M5.9,1.5v2.3c0,0.5-0.4,0.9-0.9,0.9H1.8c-0.5,0-0.9-0.4-0.9-0.9V1.5c0-0.5,0.4-0.9,0.9-0.9H5
	C5.5,0.7,5.9,1.1,5.9,1.5z M14.2,0.7H8c-0.5,0-0.9,0.4-0.9,0.9v2.3c0,0.5,0.4,0.9,0.9,0.9h6.2c0.5,0,0.9-0.4,0.9-0.9V1.5
	C15.1,1.1,14.7,0.7,14.2,0.7z M5,5.9H1.8c-0.5,0-0.9,0.4-0.9,0.9v2.3c0,0.5,0.4,0.9,0.9,0.9H5c0.5,0,0.9-0.4,0.9-0.9V6.8
	C5.9,6.3,5.5,5.9,5,5.9z M14.2,5.9H8c-0.5,0-0.9,0.4-0.9,0.9v2.3c0,0.5,0.4,0.9,0.9,0.9h6.2c0.5,0,0.9-0.4,0.9-0.9V6.8
	C15.1,6.3,14.7,5.9,14.2,5.9z M5,11.2H1.8c-0.5,0-0.9,0.4-0.9,0.9v2.3c0,0.5,0.4,0.9,0.9,0.9H5c0.5,0,0.9-0.4,0.9-0.9v-2.3
	C5.9,11.6,5.5,11.2,5,11.2z M14.2,11.2H8c-0.5,0-0.9,0.4-0.9,0.9v2.3c0,0.5,0.4,0.9,0.9,0.9h6.2c0.5,0,0.9-0.4,0.9-0.9v-2.3
	C15.1,11.6,14.7,11.2,14.2,11.2z"/>
</svg>
