<?xml version="1.0" encoding="utf-8"?>
<!-- Generator: Adobe Illustrator 23.0.1, SVG Export Plug-In . SVG Version: 6.00 Build 0)  -->
<svg version="1.1" id="Layer_1" xmlns="http://www.w3.org/2000/svg" xmlns:xlink="http://www.w3.org/1999/xlink" x="0px" y="0px"
	 viewBox="0 0 16 16" style="enable-background:new 0 0 16 16;" xml:space="preserve">
<style type="text/css">
	.st0{fill:#68385B;}
</style>
<path class="st0" d="M13.7,6h-1V4.7C12.7,2.1,10.6,0,8,0S3.3,2.1,3.3,4.7V6h-1C2.1,6,2,6.1,2,6.3v8.3C2,15.4,2.6,16,3.3,16h9.4
	c0.7,0,1.3-0.6,1.3-1.3V6.3C14,6.1,13.9,6,13.7,6z M8.8,11.1L9,13c0,0.1,0,0.2-0.1,0.3c-0.1,0.1-0.2,0.1-0.2,0.1H7.3
	c-0.1,0-0.2,0-0.2-0.1C7,13.2,7,13.1,7,13l0.2-1.9c-0.3-0.2-0.5-0.6-0.5-1.1c0-0.7,0.6-1.3,1.3-1.3c0.7,0,1.3,0.6,1.3,1.3
	C9.3,10.4,9.1,10.8,8.8,11.1z M10.7,6H5.3V4.7C5.3,3.2,6.5,2,8,2s2.7,1.2,2.7,2.7V6z"/>
</svg>
