<?xml version="1.0" encoding="utf-8"?>
<!-- Generator: Adobe Illustrator 23.0.1, SVG Export Plug-In . SVG Version: 6.00 Build 0)  -->
<svg version="1.1" id="Layer_1" xmlns="http://www.w3.org/2000/svg" xmlns:xlink="http://www.w3.org/1999/xlink" x="0px" y="0px"
	 viewBox="0 0 85 85" style="enable-background:new 0 0 85 85;" xml:space="preserve">
<style type="text/css">
	.st0{fill:#66375A;}
	.st1{fill-rule:evenodd;clip-rule:evenodd;fill:#34375A;}
	.st2{fill-rule:evenodd;clip-rule:evenodd;fill:#8B7866;}
</style>
<path id="Shape" class="st0" d="M70.9,59.7V22.1c0,0-2.8,2.9-3.8,3.9v0L44.2,48.6v11.1H32.8l0-20.1L8.1,15.2v0.1
	c-1.4-1.4-3.2-3.2-3.2-3.2v49.3l0,0v2.7h4.7V29.4l0-0.3l0.1-0.3l0.1-0.3l0.2-0.3l0.2-0.2l0.3-0.2l0.3-0.1l0.3-0.1h0.3l0.3,0.1
	l0.3,0.1l0.3,0.2l0.2,0.2l0.2,0.3l0.1,0.3l0.1,0.3l0,0.3v35H13v0.2h7.1v0H20V38.7l0.1-0.6l0.2-0.6l0.3-0.5l0.4-0.5l0.5-0.4l0.5-0.3
	l0.6-0.2l0.6-0.1h0.6l0.6,0.1l0.6,0.2l0.5,0.3l0.5,0.4l0.4,0.5l0.3,0.5l0.2,0.6l0.1,0.6v25.4h21.8V48.6l0.1-0.6l0.2-0.6l0.3-0.6
	l0.4-0.5l0.5-0.4l0.6-0.3l0.6-0.2l0.6-0.1h0.7l0.6,0.1l0.6,0.2l0.6,0.3l0.5,0.4l0.4,0.5l0.3,0.6l0.2,0.6l0.1,0.6v15.9h6.8V39.6
	l0-0.3l0.1-0.3l0.1-0.3l0.2-0.3l0.2-0.2l0.3-0.2l0.3-0.1l0.3-0.1h0.3l0.3,0.1l0.3,0.1l0.3,0.2l0.2,0.2l0.2,0.3l0.1,0.3l0.1,0.3
	l0,0.3v24.5h14.2v-4.4H70.9z M8.1,59.7l0-0.9L8.1,59.7L8.1,59.7z"/>
<path class="st1" d="M31.1,34.3V21.4l-0.1-0.6l-0.2-0.6l-0.3-0.5l-0.4-0.5l-0.5-0.4l-0.5-0.3l-0.6-0.2l-0.6-0.1h-0.6l-0.6,0.1
	l-0.6,0.2l-0.5,0.3l-0.5,0.4L25,19.6l-0.3,0.5l-0.2,0.6l-0.1,0.6v6.3L31.1,34.3z M41.9,57.3l0-13.9V17.8l-0.1-0.6l-0.2-0.6L41.3,16
	L41,15.5l-0.5-0.4L40,14.8l-0.6-0.2l-0.6-0.1h-0.6l-0.6,0.1L37,14.8l-0.5,0.3L36,15.5L35.7,16l-0.3,0.5l-0.2,0.6l-0.1,0.6v39.6H41.9
	z M52.5,36.6V21.4l-0.1-0.6l-0.2-0.6L52,19.6l-0.4-0.5l-0.5-0.4l-0.5-0.3l-0.6-0.2l-0.6-0.1h-0.6l-0.6,0.1l-0.6,0.2l-0.5,0.3
	l-0.5,0.4l-0.4,0.5l-0.3,0.5l-0.2,0.6l-0.1,0.6v21.8L52.5,36.6z M4.9,82.4L5.9,80c1.6,1.2,3.5,1.8,5.5,1.8c2.6,0,3.7-0.9,3.7-2.1
	c0-3.5-9.8-1.2-9.8-7.3c0-2.6,2.1-4.9,6.7-4.9c2,0,4.1,0.5,5.5,1.4l-1,2.3c-1.4-0.8-2.9-1.3-4.6-1.3c-2.6,0-3.6,1-3.6,2.2
	c0,3.5,9.8,1.2,9.8,7.2c0,2.6-2.1,4.8-6.7,4.8C8.8,84.3,6.2,83.5,4.9,82.4z M21.1,67.6h3.1v16.3h-3.1V67.6z M43.1,67.6v16.3h-2.5
	l-9.1-11v11h-3.1V67.6H31l9.1,11v-11H43.1z M80.1,67.6v16.3h-2.5l-9.1-11v11h-3.1V67.6H68l9.1,11v-11H80.1z"/>
<path class="st2" d="M39,6.3L38.3,0l-0.7,6.2c-9,1.2-16.8,6.1-22,13l3.5,3.5c4.4-6.2,11.3-10.7,19-11.8c10.1,1.4,18.7,8.7,22.3,18
	l3.7-3.7C59.6,15.4,50.2,7.9,39,6.3z M55.7,70.4L55.7,70.4l-1.5-2.8v0l-9,16.6h3.2l1.7-3.2h8.3l1.6,3.2h3.2L55.7,70.4z M51.1,79
	l3.1-6l3.1,6H51.1z"/>
</svg>
