<?xml version="1.0" encoding="utf-8"?>
<!-- Generator: Adobe Illustrator 23.0.1, SVG Export Plug-In . SVG Version: 6.00 Build 0)  -->
<svg version="1.1" id="Layer_1" xmlns="http://www.w3.org/2000/svg" xmlns:xlink="http://www.w3.org/1999/xlink" x="0px" y="0px"
	 viewBox="0 0 16 16" style="enable-background:new 0 0 16 16;" xml:space="preserve">
<style type="text/css">
	.st0{fill:#34375A;}
</style>
<path class="st0" d="M6.5,13.7c0,0.5-0.4,1-0.8,1H0.8c-0.5,0-0.8-0.4-0.8-1c0-0.5,0.4-1,0.8-1h4.8C6.1,12.7,6.5,13.2,6.5,13.7z
	 M10.4,7H0.8C0.4,7,0,7.5,0,8s0.4,1,0.8,1h9.6c0.5,0,0.8-0.4,0.8-1S10.9,7,10.4,7z M15.2,1.3H0.8C0.4,1.3,0,1.8,0,2.3
	c0,0.5,0.4,1,0.8,1h14.3c0.5,0,0.8-0.4,0.8-1C16,1.8,15.6,1.3,15.2,1.3z"/>
</svg>
