<?xml version="1.0" encoding="utf-8"?>
<!-- Generator: Adobe Illustrator 23.0.1, SVG Export Plug-In . SVG Version: 6.00 Build 0)  -->
<svg version="1.1" id="Layer_1" xmlns="http://www.w3.org/2000/svg" xmlns:xlink="http://www.w3.org/1999/xlink" x="0px" y="0px"
	 viewBox="0 0 24 24" style="enable-background:new 0 0 24 24;" xml:space="preserve">
<style type="text/css">
	.st0{fill:#FFFFFF;}
</style>
<path class="st0" d="M22,3.4H2c-1.1,0-2,0.9-2,2v13.1c0,1.1,0.9,2,2,2h20c1.1,0,2-0.9,2-2V5.5C24,4.3,23.1,3.4,22,3.4z M4.3,15.9
	c-0.1,0.1-0.1,0.2-0.2,0.3s0,0.3,0.1,0.3c0.2,0.2,0.5,0.2,0.7,0l4.4-4.1l1.2,1c0.4,0.3,0.9,0.5,1.5,0.5s1.1-0.2,1.5-0.5l1.2-1
	l4.4,4.1c0.2,0.2,0.5,0.2,0.7,0c0.1-0.1,0.1-0.2,0.1-0.3c0-0.1-0.1-0.2-0.2-0.3l-4.3-4L23,5.2c0,0.1,0,0.2,0,0.3v13.1
	c0,0.6-0.5,1-1,1H2c-0.6,0-1-0.5-1-1V5.5c0-0.1,0-0.2,0-0.3l7.6,6.6L4.3,15.9z"/>
</svg>
