<?xml version="1.0" encoding="utf-8"?>
<!-- Generator: Adobe Illustrator 23.0.1, SVG Export Plug-In . SVG Version: 6.00 Build 0)  -->
<svg version="1.1" id="Layer_1" xmlns="http://www.w3.org/2000/svg" xmlns:xlink="http://www.w3.org/1999/xlink" x="0px" y="0px"
	 viewBox="0 0 24 24" style="enable-background:new 0 0 24 24;" xml:space="preserve">
<style type="text/css">
	.st0{fill-rule:evenodd;clip-rule:evenodd;fill:#33375B;}
	.st1{fill:#FFFFFF;}
</style>
<path class="st0" d="M2.4,0L24,0v24H2.4C1.1,24,0,22.9,0,21.6L0,2.4C0,1.1,1.1,0,2.4,0z"/>
<path class="st1" d="M11.2,11.1 M6.1,11.1c-0.2,0-0.5,0.1-0.7,0.3c-0.2,0.2-0.3,0.4-0.3,0.7l0,0.1c0.1,0.5,0.5,0.8,1,0.8l5.2,0
	 M19,11.9c-0.1-0.5-0.5-0.8-1-0.8l-12,0l5.1,2h-0.1l6.9,0c0.3,0,0.5-0.1,0.7-0.3c0.2-0.2,0.3-0.4,0.3-0.7L19,11.9z"/>
</svg>
