<?xml version="1.0" encoding="utf-8"?>
<!-- Generator: Adobe Illustrator 23.0.1, SVG Export Plug-In . SVG Version: 6.00 Build 0)  -->
<svg version="1.1" id="Layer_1" xmlns="http://www.w3.org/2000/svg" xmlns:xlink="http://www.w3.org/1999/xlink" x="0px" y="0px"
	 viewBox="0 0 24 24" style="enable-background:new 0 0 24 24;" xml:space="preserve">
<style type="text/css">
	.st0{fill:#FFFFFF;}
</style>
<path class="st0" d="M24,12.8c-0.1-0.6-0.7-1.2-2-1.5c-1-0.3-2.2-0.5-3.5-0.5V5.7c0-0.1,0-0.2-0.1-0.3c-0.2-0.6-0.8-1-1.9-1.4
	c-1.1-0.3-2.5-0.5-4-0.5c-1.5,0-2.9,0.2-3.9,0.5C7.7,4.3,6.7,4.8,6.7,5.7c0,0.1,0,0.1,0,0.2L6.8,8c-1.5-0.3-3,0-4.2,0.9
	c-1.3,0.9-2.2,2.2-2.5,3.8C0,13,0,13.3,0,13.7c0,3.2,2.6,5.8,5.7,5.8c1.3,0,2.6-0.5,3.6-1.3c0.9,0.2,1.9,0.3,3,0.3
	c0.1,0.6,0.8,1.1,2,1.5c1,0.3,2.4,0.5,3.8,0.5c1.5,0,2.9-0.2,3.9-0.5c0.9-0.3,1.9-0.8,1.9-1.7V13C24,13,24,12.9,24,12.8z M21.6,13.8
	c-1,0.3-2.3,0.5-3.6,0.5c-1.3,0-2.5-0.2-3.5-0.4c-0.8-0.2-1.2-0.5-1.3-0.7c0,0,0,0,0-0.1c0.1-0.1,0.4-0.4,1.3-0.7
	c0.9-0.3,2.1-0.4,3.4-0.4h0.1c1.4,0,2.7,0.2,3.7,0.5c1,0.3,1.2,0.6,1.2,0.7C22.8,13.1,22.6,13.5,21.6,13.8z M23.1,15.6
	C23.1,15.6,23.1,15.6,23.1,15.6c0,0.1,0,0.1,0,0.2c0,0.1-0.3,0.4-1.2,0.7c-1,0.3-2.3,0.5-3.7,0.5c-2.7,0-4.4-0.6-4.8-1.1l0-1.5
	c0.3,0.2,0.7,0.3,1,0.4c1,0.3,2.4,0.5,3.8,0.5c1.5,0,2.9-0.2,3.9-0.5c0.4-0.1,0.7-0.2,1-0.4L23.1,15.6L23.1,15.6z M18.1,17.7
	c1.5,0,2.9-0.2,4-0.5c0.3-0.1,0.6-0.2,1-0.4v1.4c0,0.1-0.2,0.4-1.2,0.7c-1,0.3-2.3,0.5-3.7,0.5c-1.4,0-2.7-0.2-3.6-0.5
	c-1-0.3-1.2-0.6-1.2-0.7l0-1.3C14.4,17.4,16.2,17.7,18.1,17.7z M8.8,7.3c1,0.3,2.4,0.5,3.8,0.5c1.5,0,2.9-0.2,4-0.5
	c0.3-0.1,0.7-0.2,1-0.4V8c0,0.1-0.1,0.2-0.1,0.2c0,0.1-0.3,0.4-1.2,0.7c-1,0.3-2.3,0.5-3.7,0.5c-1.2,0-2.3-0.1-3.2-0.4c0,0,0,0,0,0
	c0,0,0,0,0,0C8.9,8.7,8.4,8.4,7.8,8.2l0-1.3C8.1,7.1,8.4,7.2,8.8,7.3z M16.3,6.2c-1,0.3-2.3,0.5-3.7,0.5c-1.3,0-2.6-0.2-3.5-0.4
	C8.1,6,7.8,5.6,7.8,5.6c0,0,0,0,0,0c0-0.1,0.3-0.4,1.2-0.7c1-0.3,2.3-0.5,3.6-0.5c1.4,0,2.7,0.2,3.7,0.5c1,0.3,1.2,0.6,1.2,0.7
	C17.5,5.6,17.3,5.9,16.3,6.2z M12.6,10.5c1.5,0,2.9-0.2,4-0.5c0.4-0.1,0.7-0.2,1-0.4v1.2c-1.8,0.1-4.1,0.5-4.9,1.4h0
	c-0.4,0-0.8,0-1.3,0c-0.2-0.6-0.4-1.2-0.8-1.7C11.2,10.4,11.9,10.5,12.6,10.5z M10.4,13.7c0,1.3-0.6,2.6-1.6,3.5
	c-0.9,0.8-2,1.2-3.2,1.2c-0.1,0-0.1,0-0.2,0C4.1,18.5,3,17.9,2.1,17c-1.8-2-1.6-5,0.3-6.8C3.3,9.4,4.4,9,5.6,9C6.1,9,6.6,9,7,9.2
	c1.6,0.5,2.9,1.9,3.2,3.6C10.3,13.1,10.4,13.4,10.4,13.7z M11.4,13.3c0.2,0,0.5,0,0.8,0l0,1.5c-0.3,0-0.6,0-1,0
	c0.1-0.3,0.1-0.7,0.1-1C11.4,13.6,11.4,13.4,11.4,13.3z M12.2,17.5c-0.7,0-1.3-0.1-2-0.2c0.3-0.5,0.6-1,0.8-1.6
	c0.4,0,0.8,0.1,1.1,0.1L12.2,17.5z"/>
</svg>
