<?xml version="1.0" encoding="utf-8"?>
<!-- Generator: Adobe Illustrator 23.0.1, SVG Export Plug-In . SVG Version: 6.00 Build 0)  -->
<svg version="1.1" id="Layer_1" xmlns="http://www.w3.org/2000/svg" xmlns:xlink="http://www.w3.org/1999/xlink" x="0px" y="0px"
	 viewBox="0 0 16 16" style="enable-background:new 0 0 16 16;" xml:space="preserve">
<style type="text/css">
	.st0{fill:#34375A;}
</style>
<path class="st0" d="M10.3,8c0,1.3-1,2.3-2.3,2.3S5.7,9.3,5.7,8s1-2.3,2.3-2.3S10.3,6.7,10.3,8z M16,8.1c-1.4,3-4.4,5.1-8,5.1
	s-6.6-2.1-8-5.1c0-0.1,0-0.2,0-0.3c1.4-3,4.4-5.1,8-5.1s6.6,2.1,8,5.1C16,7.9,16,8.1,16,8.1z M11.6,8c0-2-1.6-3.6-3.6-3.6
	C6,4.4,4.4,6,4.4,8c0,2,1.6,3.6,3.6,3.6C10,11.6,11.6,10,11.6,8z"/>
</svg>
