<?xml version="1.0" encoding="utf-8"?>
<!-- Generator: Adobe Illustrator 23.0.1, SVG Export Plug-In . SVG Version: 6.00 Build 0)  -->
<svg version="1.1" id="Layer_1" xmlns="http://www.w3.org/2000/svg" xmlns:xlink="http://www.w3.org/1999/xlink" x="0px" y="0px"
	 viewBox="0 0 16 16" style="enable-background:new 0 0 16 16;" xml:space="preserve">
<style type="text/css">
	.st0{fill:#34375A;}
</style>
<path class="st0" d="M15.4,3.1L1.6,14c-0.3,0.3-0.8,0.2-1.1-0.1c-0.3-0.3-0.2-0.8,0.1-1c0,0,0,0,0,0L14.4,2c0.3-0.3,0.8-0.2,1.1,0.1
	C15.8,2.4,15.7,2.8,15.4,3.1C15.4,3.1,15.4,3.1,15.4,3.1z M2.4,11.2l2.3-1.8C4.5,8.9,4.4,8.5,4.4,8C4.4,6,6,4.4,8,4.4
	c0.8,0,1.5,0.2,2.1,0.7l1.8-1.4C10.7,3.1,9.4,2.8,8,2.8c-3.5,0-6.6,2.1-8,5.1c0,0.1,0,0.2,0,0.3C0.6,9.3,1.4,10.3,2.4,11.2z M5.7,8
	c0,0.2,0,0.3,0.1,0.5L9,5.9C8.7,5.8,8.4,5.7,8,5.7C6.7,5.7,5.7,6.7,5.7,8z M16,7.9c-0.5-1.2-1.4-2.2-2.3-3l-2.3,1.8
	c0.2,0.4,0.3,0.9,0.3,1.4c0,2-1.6,3.6-3.6,3.6c-0.8,0-1.5-0.3-2.1-0.7l-1.8,1.4c1.2,0.6,2.5,0.9,3.8,0.9c3.5,0,6.6-2.1,8-5.1
	C16,8.1,16,7.9,16,7.9z M8,10.3c1.3,0,2.3-1,2.3-2.3c0-0.2,0-0.3-0.1-0.5L7,10.1C7.3,10.2,7.6,10.3,8,10.3z"/>
</svg>
