<?xml version="1.0" encoding="utf-8"?>
<!-- Generator: Adobe Illustrator 23.0.1, SVG Export Plug-In . SVG Version: 6.00 Build 0)  -->
<svg version="1.1" id="Layer_1" xmlns="http://www.w3.org/2000/svg" xmlns:xlink="http://www.w3.org/1999/xlink" x="0px" y="0px"
	 viewBox="0 0 40 40" style="enable-background:new 0 0 40 40;" xml:space="preserve">
<style type="text/css">
	.st0{fill:none;}
	.st1{fill:#E4E4E4;}
	.st2{fill:#CC4B4C;}
	.st3{fill:#FFFFFF;}
</style>
<path class="st0" d="M26.4,0H5.7c-0.6,0-1,0.5-1,1.4v37.9c0,0.2,0.5,0.7,1,0.7h28.6c0.6,0,1-0.5,1-0.7v-30c0-0.5-0.1-0.7-0.2-0.8
	l-8.3-8.3C26.7,0.1,26.6,0,26.4,0z"/>
<polygon class="st1" points="26.8,0.1 26.8,8.6 35.2,8.6 "/>
<path class="st2" d="M19.8,6.2c-0.1,0-1,1.3,0.1,2.3C20.6,7,19.8,6.2,19.8,6.2z M20.2,12.3c-0.5,1.8-1.2,3.7-1.9,5.4
	c1.5-0.6,3.1-1.1,4.6-1.4C22,15.1,21,13.7,20.2,12.3z M25.6,17c0.6,0.4,0.7,0.7,1.1,0.7c0.2,0,0.6,0,0.9-0.3
	c0.1-0.1,0.1-0.2,0.2-0.3c-0.1,0-0.2-0.1-0.8-0.1C26.5,16.9,26.1,16.9,25.6,17z M15.8,20.1c-1.5,0.9-2.1,1.6-2.2,2
	c0,0.1,0,0.2,0.3,0.5C14.1,22.6,14.7,22.3,15.8,20.1z M13.9,23.8L13.9,23.8c-0.2,0-0.5-0.1-0.7-0.2c-0.7-0.6-0.8-1.2-0.8-1.6
	c0.1-1.2,1.6-2.4,4.3-3.6c1.1-2.4,2.1-5.3,2.7-7.7c-0.7-1.6-1.4-3.6-0.9-4.7c0.2-0.4,0.4-0.7,0.8-0.9c0.2-0.1,0.6-0.1,0.7-0.1
	c0.4,0,0.7,0.5,0.9,0.7c0.2,0.3,0.7,0.8-0.3,4.9c1,2,2.3,4,3.6,5.4c0.9-0.2,1.7-0.3,2.4-0.3c1.1,0,1.8,0.3,2.1,0.8
	c0.2,0.4,0.1,1-0.3,1.5c-0.4,0.6-0.9,0.9-1.6,0.9c-0.9,0-1.9-0.5-3-1.6c-2,0.4-4.4,1.2-6.3,2c-0.6,1.3-1.2,2.3-1.7,3
	C15.2,23.3,14.6,23.8,13.9,23.8z"/>
<path class="st2" d="M34.3,40H5.7c-0.6,0-1-0.5-1-1V27.9h30.7V39C35.4,39.5,34.9,40,34.3,40z"/>
<path class="st3" d="M15,31.2c-0.2-0.2-0.5-0.3-0.8-0.4c-0.3-0.1-0.6-0.1-0.9-0.1h-2.1v7.2h1.2v-2.6h0.9c0.4,0,0.7-0.1,1-0.2
	s0.6-0.3,0.8-0.5s0.4-0.5,0.5-0.7c0.1-0.3,0.2-0.6,0.2-1c0-0.3-0.1-0.7-0.2-0.9S15.3,31.4,15,31.2z M14.6,33.6
	c-0.1,0.2-0.2,0.4-0.3,0.5c-0.1,0.1-0.2,0.2-0.4,0.2c-0.1,0-0.3,0.1-0.4,0.1h-1.1v-2.9h0.9c0.3,0,0.5,0,0.7,0.1
	c0.2,0.1,0.3,0.2,0.4,0.4c0.1,0.1,0.2,0.3,0.2,0.4c0,0.2,0,0.3,0,0.4C14.7,33.2,14.7,33.4,14.6,33.6z M22.1,31.7
	c-0.3-0.3-0.7-0.6-1.1-0.8c-0.5-0.2-1-0.3-1.6-0.3h-2.2v7.2h2.7c0.1,0,0.2,0,0.4,0c0.2,0,0.4-0.1,0.6-0.2c0.2-0.1,0.5-0.2,0.7-0.4
	c0.2-0.2,0.5-0.4,0.7-0.7c0.2-0.3,0.4-0.6,0.5-1.1c0.1-0.4,0.2-0.9,0.2-1.5c0-0.4-0.1-0.8-0.2-1.3C22.6,32.4,22.4,32,22.1,31.7z
	 M21.3,36.2c-0.4,0.5-0.9,0.8-1.7,0.8h-1.2v-5.4h0.7c0.6,0,1,0.1,1.4,0.2s0.6,0.3,0.8,0.6c0.2,0.2,0.3,0.5,0.4,0.8
	c0.1,0.3,0.1,0.6,0.1,0.9C21.8,35,21.6,35.7,21.3,36.2z M25.9,31.5v2.3h3v0.8h-3v3.2h-1.2v-7.2h4.5v0.9H25.9z"/>
</svg>
