<?xml version="1.0" encoding="utf-8"?>
<!-- Generator: Adobe Illustrator 23.0.1, SVG Export Plug-In . SVG Version: 6.00 Build 0)  -->
<svg version="1.1" id="Layer_1" xmlns="http://www.w3.org/2000/svg" xmlns:xlink="http://www.w3.org/1999/xlink" x="0px" y="0px"
	 viewBox="0 0 16 16" style="enable-background:new 0 0 16 16;" xml:space="preserve">
<style type="text/css">
	.st0{fill:#68385B;}
</style>
<path id="Page-1" class="st0" d="M11.5,0h-7C3.7,0,3,0.7,3,1.5v13C3,15.3,3.7,16,4.5,16h7c0.8,0,1.5-0.7,1.5-1.5v-13
	C13,0.7,12.3,0,11.5,0z M6,0.8h4v0.5H6V0.8z M8,15c-0.6,0-1-0.4-1-1s0.4-1,1-1s1,0.4,1,1S8.6,15,8,15z M12,12H4V2h8V12z"/>
</svg>
