<?xml version="1.0" encoding="utf-8"?>
<!-- Generator: Adobe Illustrator 23.0.1, SVG Export Plug-In . SVG Version: 6.00 Build 0)  -->
<svg version="1.1" id="Layer_1" xmlns="http://www.w3.org/2000/svg" xmlns:xlink="http://www.w3.org/1999/xlink" x="0px" y="0px"
	 viewBox="0 0 24 24" style="enable-background:new 0 0 24 24;" xml:space="preserve">
<style type="text/css">
	.st0{fill:#33375B;}
</style>
<path class="st0" d="M3.3,6.7C3.2,6.4,3.4,6.1,3.6,6c0.6-0.2,1.3-0.4,1.9-0.5c0.3-0.1,0.6,0.1,0.7,0.4c0.1,0.3-0.1,0.6-0.4,0.7
	C5.2,6.7,4.6,6.9,4,7.1c-0.1,0-0.1,0-0.2,0C3.6,7.1,3.4,6.9,3.3,6.7z M21.7,8.2c-0.1,0-2-1-5.2-1.6l-0.1-0.5
	c-0.3-1.4-1.5-2.3-2.9-2.3h-2.9c-1.4,0-2.6,1-2.9,2.3L7.5,6.6C4.3,7.2,2.4,8.2,2.3,8.2C2.1,8.3,2,8.5,2,8.7v6.5
	C2,17.8,4.1,20,6.7,20c0.3,0,0.6-0.2,0.6-0.6s-0.2-0.6-0.6-0.6c-2,0-3.6-1.6-3.6-3.6V9.1c0.7-0.3,2.4-1,4.9-1.5
	c0.2,0,0.4-0.2,0.4-0.4l0.2-0.9c0.2-0.9,1-1.5,1.9-1.5h2.9c0.9,0,1.7,0.6,1.9,1.5l0.2,0.9c0,0.2,0.2,0.4,0.4,0.4
	c2.5,0.4,4.3,1.2,4.9,1.5v6.2c0,2-1.6,3.6-3.6,3.6c-0.3,0-0.6,0.2-0.6,0.6s0.2,0.6,0.6,0.6c2.6,0,4.7-2.1,4.7-4.7V8.7
	C22,8.5,21.9,8.3,21.7,8.2z M18.4,13.9c0,3.5-2.9,6.4-6.4,6.4c-3.5,0-6.4-2.9-6.4-6.4c0-3.5,2.9-6.4,6.4-6.4
	C15.5,7.5,18.4,10.4,18.4,13.9z M17.3,13.9c0-2.9-2.4-5.3-5.3-5.3c-2.9,0-5.3,2.4-5.3,5.3c0,2.9,2.4,5.3,5.3,5.3
	C14.9,19.2,17.3,16.8,17.3,13.9z"/>
</svg>
