<?xml version="1.0" encoding="utf-8"?>
<!-- Generator: Adobe Illustrator 23.0.1, SVG Export Plug-In . SVG Version: 6.00 Build 0)  -->
<svg version="1.1" id="Layer_1" xmlns="http://www.w3.org/2000/svg" xmlns:xlink="http://www.w3.org/1999/xlink" x="0px" y="0px"
	 viewBox="0 0 16 16" style="enable-background:new 0 0 16 16;" xml:space="preserve">
<style type="text/css">
	.st0{fill:#FFFFFF;}
</style>
<g>
	<path class="st0" d="M8,13.8l3.9-5.6c1.5-1.9,1.2-5.1-0.5-6.8C10.5,0.5,9.3,0,8,0C6.7,0,5.4,0.5,4.5,1.4C2.8,3.1,2.6,6.3,4.1,8.2
		L8,13.8z M8,2.9c1.1,0,1.9,0.9,1.9,1.9c0,1.1-0.9,1.9-1.9,1.9S6.1,5.9,6.1,4.8C6.1,3.8,6.9,2.9,8,2.9z"/>
	<path class="st0" d="M11,11.5c-0.1,0-0.2,0-0.3,0.1c-0.1,0.1-0.2,0.2-0.2,0.3c0,0.1,0,0.2,0.1,0.3c0.1,0.1,0.2,0.2,0.3,0.2
		c2.6,0.3,3.7,1.1,3.7,1.4c0,0.4-2.2,1.4-6.6,1.4s-6.6-1-6.6-1.4c0-0.3,1.1-1.1,3.7-1.4c0.1,0,0.2-0.1,0.3-0.2
		c0.1-0.1,0.1-0.2,0.1-0.3c0-0.1-0.1-0.2-0.2-0.3c-0.1-0.1-0.2-0.1-0.3-0.1c-2.7,0.3-4.5,1.2-4.5,2.3C0.5,15.1,3.6,16,8,16
		s7.5-0.9,7.5-2.3C15.5,12.7,13.7,11.8,11,11.5z"/>
</g>
</svg>
