<?xml version="1.0" encoding="utf-8"?>
<!-- Generator: Adobe Illustrator 23.0.1, SVG Export Plug-In . SVG Version: 6.00 Build 0)  -->
<svg version="1.1" id="Layer_1" xmlns="http://www.w3.org/2000/svg" xmlns:xlink="http://www.w3.org/1999/xlink" x="0px" y="0px"
	 viewBox="0 0 16 16" style="enable-background:new 0 0 16 16;" xml:space="preserve">
<style type="text/css">
	.st0{fill:#E7E7E7;}
</style>
<path class="st0" d="M8,2C5.5,2,3.5,4,3.5,6.4c0,0.6,0.1,1.2,0.4,1.8c1.1,2.4,3.3,5,3.9,5.7C7.9,14,7.9,14,8,14c0.1,0,0.1,0,0.2-0.1
	c0.6-0.7,2.8-3.3,3.9-5.7c0.3-0.6,0.4-1.2,0.4-1.8C12.5,4,10.5,2,8,2z M8,8.7c-1.3,0-2.3-1-2.3-2.3s1-2.3,2.3-2.3s2.3,1,2.3,2.3
	S9.3,8.7,8,8.7z"/>
</svg>
