<?xml version="1.0" encoding="utf-8"?>
<!-- Generator: Adobe Illustrator 23.0.1, SVG Export Plug-In . SVG Version: 6.00 Build 0)  -->
<svg version="1.1" id="Layer_1" xmlns="http://www.w3.org/2000/svg" xmlns:xlink="http://www.w3.org/1999/xlink" x="0px" y="0px"
	 viewBox="0 0 16 16" style="enable-background:new 0 0 16 16;" xml:space="preserve">
<style type="text/css">
	.st0{fill:#33375B;}
</style>
<path class="st0" d="M15.5,13.7c0,1.3-3.1,2.3-7.5,2.3s-7.5-0.9-7.5-2.3c0-1,1.8-1.9,4.5-2.3c0.1,0,0.2,0,0.3,0.1
	c0.1,0.1,0.2,0.2,0.2,0.3c0,0.1,0,0.2-0.1,0.3c-0.1,0.1-0.2,0.2-0.3,0.2c-2.6,0.3-3.7,1.1-3.7,1.4c0,0.4,2.2,1.4,6.6,1.4
	s6.6-1,6.6-1.4c0-0.3-1.1-1.1-3.7-1.4c-0.1,0-0.2-0.1-0.3-0.2c-0.1-0.1-0.1-0.2-0.1-0.3c0-0.1,0.1-0.2,0.2-0.3
	c0.1-0.1,0.2-0.1,0.3-0.1C13.7,11.8,15.5,12.7,15.5,13.7z M4.1,8.2C2.6,6.3,2.8,3.1,4.5,1.4C5.4,0.5,6.7,0,8,0
	c1.3,0,2.5,0.5,3.4,1.4c1.7,1.7,1.9,4.9,0.5,6.8L8,13.8L4.1,8.2z M4.8,7.7L8,12.3l3.2-4.6c1.2-1.6,1-4.3-0.4-5.6C10,1.3,9,0.9,8,0.9
	c-1.1,0-2,0.4-2.8,1.2C3.8,3.5,3.6,6.1,4.8,7.7z M6.1,4.8c0-1.1,0.9-1.9,1.9-1.9s1.9,0.9,1.9,1.9c0,1.1-0.9,1.9-1.9,1.9
	S6.1,5.9,6.1,4.8z M7,4.8c0,0.6,0.5,1,1,1c0.6,0,1-0.5,1-1c0-0.6-0.5-1-1-1C7.4,3.8,7,4.3,7,4.8z"/>
</svg>
