<?xml version="1.0" encoding="utf-8"?>
<!-- Generator: Adobe Illustrator 23.0.1, SVG Export Plug-In . SVG Version: 6.00 Build 0)  -->
<svg version="1.1" id="Layer_1" xmlns="http://www.w3.org/2000/svg" xmlns:xlink="http://www.w3.org/1999/xlink" x="0px" y="0px"
	 viewBox="0 0 32 32" style="enable-background:new 0 0 32 32;" xml:space="preserve">
<style type="text/css">
	.st0{fill-rule:evenodd;clip-rule:evenodd;fill:#CB2027;}
	.st1{fill:#FFFFFF;}
</style>
<g>
	<path class="st0" d="M4,0h24c2.2,0,4,1.8,4,4v24c0,2.2-1.8,4-4,4H4c-2.2,0-4-1.8-4-4V4C0,1.8,1.8,0,4,0z"/>
	<path class="st1" d="M17.5,21c-1.4-0.1-2-0.8-3-1.4c-0.6,3.1-1.3,6-3.5,7.6c-0.7-4.7,1-8.2,1.7-11.9c-1.3-2.2,0.2-6.5,2.9-5.4
		c3.4,1.3-2.9,8,1.3,8.9c4.4,0.9,6.2-7.6,3.5-10.3C16.4,4.5,8.9,8.4,9.8,14c0.2,1.4,1.7,1.8,0.6,3.7c-2.5-0.6-3.3-2.5-3.2-5.2
		c0.2-4.3,3.9-7.3,7.7-7.7c4.8-0.5,9.2,1.7,9.8,6.2C25.4,16,22.6,21.4,17.5,21z"/>
</g>
</svg>
