<?xml version="1.0" encoding="utf-8"?>
<!-- Generator: Adobe Illustrator 23.0.1, SVG Export Plug-In . SVG Version: 6.00 Build 0)  -->
<svg version="1.1" id="Layer_1" xmlns="http://www.w3.org/2000/svg" xmlns:xlink="http://www.w3.org/1999/xlink" x="0px" y="0px"
	 viewBox="0 0 16 16" style="enable-background:new 0 0 16 16;" xml:space="preserve">
<style type="text/css">
	.st0{fill:#E7E7E7;}
</style>
<path class="st0" d="M13.2,3.1c-1.3-1.4-3.1-2.2-5-2.3L8,0.8l-0.2,0c-1.9,0.1-3.7,0.9-5,2.3l0,0C1.5,4.4,0.8,6.2,0.8,8
	c0,1.8,0.6,3.5,1.8,4.8l0,0l0,0c1.3,1.5,3.1,2.3,5.1,2.4l0.2,0l0.2,0c2-0.1,3.8-0.9,5.1-2.4l0,0c1.2-1.3,1.8-3,1.8-4.7
	C15.2,6.2,14.5,4.4,13.2,3.1z M10.9,3.9C10.5,3.2,10,2.5,9.4,1.8c1,0.2,2,0.7,2.8,1.4C11.8,3.5,11.3,3.7,10.9,3.9z M10.9,7.6H8.4
	V5.3c0.7,0,1.3-0.1,1.9-0.3C10.7,5.8,10.9,6.7,10.9,7.6z M10,4.2C9.5,4.3,9,4.4,8.4,4.4V2.1C9.1,2.7,9.6,3.4,10,4.2z M14.3,8.4
	c-0.1,1.3-0.6,2.5-1.4,3.5c-0.5-0.3-1.1-0.6-1.7-0.8c0.3-0.8,0.5-1.7,0.5-2.6H14.3z M12.3,12.6c-0.8,0.8-1.8,1.3-2.9,1.6
	c0.6-0.7,1.1-1.4,1.5-2.3C11.4,12.1,11.9,12.3,12.3,12.6z M8.4,10.5v-2h2.5c0,0.8-0.2,1.6-0.5,2.4C9.8,10.6,9.1,10.5,8.4,10.5z
	 M10.1,11.6c-0.4,0.9-1,1.6-1.7,2.3v-2.6C9,11.4,9.6,11.5,10.1,11.6z M14.3,7.6h-2.5c0-1-0.2-1.9-0.6-2.8c0.6-0.2,1.1-0.5,1.6-0.8
	C13.7,4.9,14.2,6.2,14.3,7.6z M7.6,2.1v2.3C7,4.4,6.5,4.3,6,4.2C6.4,3.4,6.9,2.7,7.6,2.1z M7.6,5.3v2.3H5.1c0-0.9,0.2-1.8,0.6-2.6
	C6.3,5.2,6.9,5.3,7.6,5.3z M3.8,3.3c0.8-0.7,1.7-1.2,2.8-1.4C6,2.5,5.5,3.2,5.1,3.9C4.7,3.7,4.2,3.5,3.8,3.3z M1.7,7.6
	c0.1-1.3,0.6-2.6,1.5-3.6c0.5,0.3,1,0.6,1.6,0.8C4.4,5.6,4.2,6.6,4.2,7.6H1.7z M5,11.9c0.4,0.8,0.9,1.6,1.5,2.3
	c-1.1-0.3-2.1-0.8-2.9-1.6C4.1,12.3,4.6,12.1,5,11.9z M5.1,8.4h2.5v2c-0.7,0-1.4,0.1-2,0.3C5.3,10,5.1,9.2,5.1,8.4z M4.7,11.1
	c-0.6,0.2-1.1,0.5-1.7,0.8c-0.8-1-1.3-2.2-1.4-3.5h2.5C4.2,9.3,4.4,10.2,4.7,11.1z M5.9,11.6c0.5-0.1,1.1-0.2,1.7-0.3v2.6
	C6.9,13.2,6.3,12.5,5.9,11.6z"/>
</svg>
