<?xml version="1.0" encoding="utf-8"?>
<!-- Generator: Adobe Illustrator 23.0.1, SVG Export Plug-In . SVG Version: 6.00 Build 0)  -->
<svg version="1.1" id="Layer_1" xmlns="http://www.w3.org/2000/svg" xmlns:xlink="http://www.w3.org/1999/xlink" x="0px" y="0px"
	 viewBox="0 0 24 24" style="enable-background:new 0 0 24 24;" xml:space="preserve">
<style type="text/css">
	.st0{fill-rule:evenodd;clip-rule:evenodd;fill:#33375B;}
	.st1{fill-rule:evenodd;clip-rule:evenodd;fill:#FFFFFF;}
</style>
<path class="st0" d="M0,0h21.6C22.9,0,24,1.1,24,2.4v19.2c0,1.3-1.1,2.4-2.4,2.4H0V0z"/>
<path class="st1" d="M19,12.1c0,0.3-0.1,0.5-0.3,0.7C18.6,13,18.4,13,18.1,13l-5,0l0,5.1c0,0.3-0.1,0.5-0.3,0.7
	c-0.2,0.2-0.4,0.3-0.7,0.3c0,0,0,0,0,0c-0.5,0-1-0.4-1-1l0-5.1l-5.1,0c-0.5,0-0.9-0.4-1-0.8l0-0.1c0-0.3,0.1-0.5,0.3-0.7
	c0.2-0.2,0.4-0.3,0.7-0.3l5.1,0l0-5.2c0-0.3,0.1-0.5,0.3-0.7C11.5,5,11.8,4.9,12,4.9c0,0,0,0,0,0c0.5,0,1,0.4,1,1l0,5.2l5,0
	c0.5,0,0.9,0.4,1,0.8L19,12.1z"/>
</svg>
