<?xml version="1.0" encoding="utf-8"?>
<!-- Generator: Adobe Illustrator 24.0.2, SVG Export Plug-In . SVG Version: 6.00 Build 0)  -->
<svg version="1.1" id="Layer_1" xmlns="http://www.w3.org/2000/svg" xmlns:xlink="http://www.w3.org/1999/xlink" x="0px" y="0px"
	 viewBox="0 0 16 20" style="enable-background:new 0 0 16 20;" xml:space="preserve">
<style type="text/css">
	.st0{fill:#68385B;}
</style>
<path class="st0" d="M11.6,14.2c-0.1,0.1-0.2,0.3-0.2,0.4v2l-1.1-1.3c-0.1-0.1-0.2-0.1-0.3-0.1c0,0-0.1,0-0.1,0
	c-0.5,0.2-1.1,0.3-1.6,0.3H7.2c-3,0-5.5-2.9-5.5-6.4c0-3.6,2.5-6.4,5.5-6.4h1.1c3,0,5.5,2.9,5.5,6.4C13.8,11.1,13,13,11.6,14.2z
	 M8.3,1.6H7.2C3.7,1.6,0.8,5,0.8,9.1s2.9,7.5,6.4,7.5h1.1c0.6,0,1.1-0.1,1.6-0.2l1.6,1.9c0.1,0.1,0.2,0.1,0.3,0.1c0.1,0,0.1,0,0.2,0
	c0.2-0.1,0.3-0.3,0.3-0.5v-3c0.7-0.7,1.3-1.5,1.7-2.4c0.5-1.1,0.7-2.2,0.7-3.4C14.7,5,11.8,1.6,8.3,1.6L8.3,1.6z M9.7,7.2
	C9.7,6.2,8.9,5.3,8,5.2c-0.5,0-1,0.2-1.4,0.6C6.2,6.2,6,6.8,6,7.4c0,0.3,0.2,0.5,0.4,0.5c0.2,0,0.4-0.2,0.4-0.5
	c0-0.3,0.1-0.6,0.3-0.8C7.4,6.3,7.7,6.2,8,6.2c0.5,0,0.9,0.5,0.9,1.1c0,0.6-0.3,1.1-0.8,1.2C7.7,8.6,7.4,9,7.4,9.5v1.2
	c0,0.3,0.2,0.5,0.4,0.5c0.2,0,0.4-0.2,0.4-0.5V9.5C9.2,9.2,9.8,8.3,9.7,7.2z M8.2,12.4c-0.1-0.1-0.2-0.1-0.3-0.1
	c-0.1,0-0.2,0.1-0.3,0.1c-0.1,0.1-0.1,0.2-0.1,0.4c0,0.1,0,0.3,0.1,0.4c0.1,0.1,0.2,0.1,0.3,0.1c0.1,0,0.2-0.1,0.3-0.1
	c0.1-0.1,0.1-0.2,0.1-0.4C8.3,12.6,8.3,12.5,8.2,12.4L8.2,12.4z"/>
</svg>
