<?xml version="1.0" encoding="utf-8"?>
<!-- Generator: Adobe Illustrator 23.0.1, SVG Export Plug-In . SVG Version: 6.00 Build 0)  -->
<svg version="1.1" id="Layer_1" xmlns="http://www.w3.org/2000/svg" xmlns:xlink="http://www.w3.org/1999/xlink" x="0px" y="0px"
	 viewBox="0 0 16 16" style="enable-background:new 0 0 16 16;" xml:space="preserve">
<style type="text/css">
	.st0{fill:#33375B;}
</style>
<path class="st0" d="M11.8,8c0,2.1-1.7,3.8-3.8,3.8S4.2,10.1,4.2,8S5.9,4.2,8,4.2S11.8,5.9,11.8,8z M16,8c0,4.4-3.6,8-8,8
	c-4.4,0-8-3.6-8-8c0-4.4,3.6-8,8-8C12.4,0,16,3.6,16,8z M15.1,8c0-3.9-3.2-7.1-7.1-7.1S0.9,4.1,0.9,8s3.2,7.1,7.1,7.1
	S15.1,11.9,15.1,8z"/>
</svg>
