<?xml version="1.0" encoding="utf-8"?>
<!-- Generator: Adobe Illustrator 23.0.1, SVG Export Plug-In . SVG Version: 6.00 Build 0)  -->
<svg version="1.1" id="Layer_1" xmlns="http://www.w3.org/2000/svg" xmlns:xlink="http://www.w3.org/1999/xlink" x="0px" y="0px"
	 viewBox="0 0 24 24" style="enable-background:new 0 0 24 24;" xml:space="preserve">
<style type="text/css">
	.st0{fill:#34375A;}
</style>
<path class="st0" d="M5.5,13.5c0.1,0.4-0.2,0.9-0.6,1c-0.1,0-0.1,0-0.2,0c-0.4,0-0.7-0.3-0.8-0.6c-0.7-2.9,0.2-6,2.5-8.1
	c1.6-1.5,3.8-2.2,6-2.1c1.5,0.1,3,0.6,4.2,1.4l0-1.2c0-0.5,0.3-0.8,0.8-0.9c0.2,0,0.4,0.1,0.6,0.2s0.3,0.4,0.3,0.6l0.1,3.1
	c0,0.5-0.4,0.9-0.8,0.9l-3.2,0.1c-0.5,0-0.8-0.4-0.9-0.8c0-0.5,0.3-0.8,0.8-0.9l1,0C12.8,4.8,9.6,5.1,7.5,7C5.7,8.6,5,11.1,5.5,13.5
	z M20.1,10.2L20.1,10.2c-0.1-0.2-0.2-0.4-0.4-0.5c-0.2-0.1-0.4-0.1-0.6-0.1c-0.2,0.1-0.4,0.2-0.5,0.4c-0.1,0.2-0.1,0.4-0.1,0.6
	c0.6,2.4-0.2,4.8-2,6.5c-1.2,1.1-2.8,1.7-4.4,1.7c-1.2,0-2.4-0.3-3.5-1l1.2-0.1c0.2,0,0.4-0.1,0.6-0.3c0.1-0.2,0.2-0.4,0.2-0.6
	c0-0.2-0.1-0.4-0.3-0.6C10,16,9.8,15.9,9.6,16l-3.2,0.3c-0.2,0-0.4,0.1-0.6,0.3c-0.1,0.2-0.2,0.4-0.2,0.6L6,20.3
	c0,0.4,0.4,0.8,0.9,0.8c0,0,0,0,0,0c0.5,0,0.8-0.4,0.8-0.9L7.5,19c1.2,0.8,2.6,1.3,4.1,1.4c2.2,0.1,4.3-0.7,6-2.1
	C19.9,16.2,20.8,13.1,20.1,10.2z"/>
</svg>
