<?xml version="1.0" encoding="utf-8"?>
<!-- Generator: Adobe Illustrator 23.0.1, SVG Export Plug-In . SVG Version: 6.00 Build 0)  -->
<svg version="1.1" id="Layer_1" xmlns="http://www.w3.org/2000/svg" xmlns:xlink="http://www.w3.org/1999/xlink" x="0px" y="0px"
	 viewBox="0 0 50 50" style="enable-background:new 0 0 50 50;" xml:space="preserve">
<style type="text/css">
	.st0{fill-rule:evenodd;clip-rule:evenodd;fill:#2F2F2F;}
	.st1{fill:#FFFFFF;}
</style>
<path class="st0" d="M0,25C0,11.2,11.2,0,25,0s25,11.2,25,25S38.8,50,25,50S0,38.8,0,25z"/>
<path class="st1" d="M31,26.5l-10,8.2c-0.6,0.5-1.6,0.4-2.1-0.2c-0.5-0.6-0.4-1.6,0.2-2.1l8.6-7.1L19,17.6c-0.6-0.5-0.7-1.5-0.1-2.1
	c0.5-0.6,1.5-0.7,2.1-0.1l10,8.8C31.7,24.8,31.7,25.9,31,26.5z"/>
</svg>
