<?xml version="1.0" encoding="utf-8"?>
<!-- Generator: Adobe Illustrator 23.0.1, SVG Export Plug-In . SVG Version: 6.00 Build 0)  -->
<svg version="1.1" id="Layer_1" xmlns="http://www.w3.org/2000/svg" xmlns:xlink="http://www.w3.org/1999/xlink" x="0px" y="0px"
	 viewBox="0 0 24 24" style="enable-background:new 0 0 24 24;" xml:space="preserve">
<style type="text/css">
	.st0{fill:none;}
</style>
<path class="st0" d="M19.2,15.1v-4.3c0-3-1.9-5.6-4.7-6.7V4.1c0-1.4-1.1-2.5-2.5-2.5c-1.4,0-2.5,1.1-2.5,2.5v0.1
	c-2.8,1-4.7,3.7-4.7,6.7c0,0,0,4.3,0,4.3c-1.2,0-2.2,1-2.2,2.1c0,1.2,1,2.1,2.2,2.1h4c0.1,1.7,1.5,3,3.2,3s3.2-1.3,3.2-3h4
	c1.2,0,2.2-1,2.2-2.1C21.4,16.1,20.4,15.1,19.2,15.1z M12,21c-0.9,0-1.7-0.7-1.8-1.6h3.6C13.7,20.3,12.9,21,12,21z"/>
</svg>
