<?xml version="1.0" encoding="utf-8"?>
<!-- Generator: Adobe Illustrator 23.0.1, SVG Export Plug-In . SVG Version: 6.00 Build 0)  -->
<svg version="1.1" id="Layer_1" xmlns="http://www.w3.org/2000/svg" xmlns:xlink="http://www.w3.org/1999/xlink" x="0px" y="0px"
	 viewBox="0 0 24 24" style="enable-background:new 0 0 24 24;" xml:space="preserve">
<style type="text/css">
	.st0{fill:none;}
</style>
<path class="st0" d="M19.2,15.1v-4.3c0-3-1.9-5.6-4.7-6.7V4.1c0-1.4-1.1-2.5-2.5-2.5c-1.4,0-2.5,1.1-2.5,2.5v0.1
	c-2.8,1-4.7,3.7-4.7,6.7c0,0,0,4.3,0,4.3c-1.2,0-2.2,1-2.2,2.1c0,1.2,1,2.1,2.2,2.1h4c0.1,1.7,1.5,3,3.2,3s3.2-1.3,3.2-3h4
	c1.2,0,2.2-1,2.2-2.1C21.4,16.1,20.4,15.1,19.2,15.1z M12,21c-0.9,0-1.7-0.7-1.8-1.6h3.6C13.7,20.3,12.9,21,12,21z M19.2,18H4.8
	C4.4,18,4,17.6,4,17.2c0-0.4,0.3-0.7,0.7-0.7c0.8,0,1.4-0.6,1.4-1.4v-4.3c0-2.6,1.7-4.8,4.2-5.5l0.5-0.1V4.1C10.9,3.5,11.4,3,12,3
	c0.6,0,1.1,0.5,1.1,1.1v1.1l0.5,0.1c2.5,0.7,4.2,2.9,4.2,5.5v4.3c0,0.8,0.6,1.4,1.4,1.4c0.4,0,0.7,0.3,0.7,0.7
	C20,17.6,19.6,18,19.2,18z"/>
</svg>
