<?xml version="1.0" encoding="utf-8"?>
<!-- Generator: Adobe Illustrator 23.0.1, SVG Export Plug-In . SVG Version: 6.00 Build 0)  -->
<svg version="1.1" id="Layer_1" xmlns="http://www.w3.org/2000/svg" xmlns:xlink="http://www.w3.org/1999/xlink" x="0px" y="0px"
	 viewBox="0 0 16 16" style="enable-background:new 0 0 16 16;" xml:space="preserve">
<style type="text/css">
	.st0{fill:#34375A;}
</style>
<path class="st0" d="M15.3,14.3l-3.5-3.5c0.9-1.1,1.4-2.5,1.4-4c0-3.5-2.9-6.4-6.4-6.4c-3.5,0-6.4,2.9-6.4,6.4
	c0,3.5,2.9,6.4,6.4,6.4c1.5,0,2.9-0.5,4-1.4l3.5,3.5c0.3,0.3,0.7,0.3,1,0C15.6,15.1,15.6,14.6,15.3,14.3z M10.4,10.4L10.4,10.4
	C10.4,10.4,10.4,10.4,10.4,10.4c-0.9,0.9-2.2,1.5-3.5,1.5c-2.7,0-5-2.2-5-5s2.2-5,5-5s5,2.2,5,5C11.8,8.2,11.3,9.5,10.4,10.4z"/>
</svg>
