<?xml version="1.0" encoding="utf-8"?>
<!-- Generator: Adobe Illustrator 23.0.1, SVG Export Plug-In . SVG Version: 6.00 Build 0)  -->
<svg version="1.1" id="Layer_1" xmlns="http://www.w3.org/2000/svg" xmlns:xlink="http://www.w3.org/1999/xlink" x="0px" y="0px"
	 viewBox="0 0 16 16" style="enable-background:new 0 0 16 16;" xml:space="preserve">
<style type="text/css">
	.st0{fill:#4A4A4A;}
</style>
<path class="st0" d="M11.8,8c0,0.3-0.2,0.5-0.5,0.5H4.7C4.4,8.5,4.2,8.3,4.2,8s0.2-0.5,0.5-0.5h6.7C11.6,7.5,11.8,7.7,11.8,8z
	 M11.3,9.7H4.7c-0.3,0-0.5,0.2-0.5,0.5s0.2,0.5,0.5,0.5h6.7c0.3,0,0.5-0.2,0.5-0.5S11.6,9.7,11.3,9.7z M11.3,5.4H4.7
	c-0.3,0-0.5,0.2-0.5,0.5s0.2,0.5,0.5,0.5h6.7c0.3,0,0.5-0.2,0.5-0.5S11.6,5.4,11.3,5.4z M16,8c0,2.1-0.8,4.1-2.3,5.7
	C12.1,15.2,10.1,16,8,16c-1.3,0-2.6-0.3-3.8-1C3.4,15.6,2.3,16,1.3,16l-0.2,0c-0.1,0-0.3,0-0.4,0c-0.3-0.1-0.6-0.3-0.6-0.6
	c0-0.3,0.1-0.6,0.4-0.8c0.5-0.2,0.9-0.7,1.3-1.5C-0.8,9.9-0.6,5.3,2.3,2.3C3.9,0.8,5.9,0,8,0s4.1,0.8,5.7,2.3C15.2,3.9,16,5.9,16,8z
	 M13,3c-1.3-1.3-3.1-2.1-5-2.1C6.1,0.9,4.3,1.6,3,3c-2.6,2.6-2.8,6.9-0.3,9.7c0.1,0.1,0.1,0.3,0.1,0.5c-0.4,0.9-0.8,1.5-1.4,1.9
	c0.5,0,1.5-0.1,2.5-0.9C4,14.1,4.1,14,4.2,14c0.1,0,0.2,0,0.2,0.1c1.1,0.6,2.3,1,3.6,1c1.9,0,3.7-0.7,5-2.1C15.8,10.2,15.8,5.8,13,3
	z"/>
</svg>
