<?xml version="1.0" encoding="utf-8"?>
<!-- Generator: Adobe Illustrator 23.0.1, SVG Export Plug-In . SVG Version: 6.00 Build 0)  -->
<svg version="1.1" id="Layer_1" xmlns="http://www.w3.org/2000/svg" xmlns:xlink="http://www.w3.org/1999/xlink" x="0px" y="0px"
	 viewBox="0 0 40 40" style="enable-background:new 0 0 40 40;" xml:space="preserve">
<style type="text/css">
	.st0{opacity:0.2;fill-rule:evenodd;clip-rule:evenodd;fill:#33375B;}
	.st1{opacity:0.2;fill:#FFFFFF;}
</style>
<circle class="st0" cx="20" cy="20" r="20"/>
<path class="st1" d="M24.4,26.9l-7.5-4.1L29.7,12L24.4,26.9z M16.1,22.6C16,22.6,16,22.6,16.1,22.6C16,22.7,16,22.7,16,22.7
	c0,0,0,0.1,0,0.1l-0.5,4.1l-1.1-5.2L26,14.2L16.1,22.6z M10.3,19.1l17.1-6.6L14,21.2L10.3,19.1z M30.7,10.7
	c-0.1-0.1-0.2-0.1-0.4-0.1L9.4,18.7c-0.1,0-0.2,0.2-0.2,0.3c0,0.1,0.1,0.3,0.2,0.3l4.3,2.4l1.5,7.4c0,0.1,0,0.1,0.1,0.1c0,0,0,0,0,0
	c0.1,0.1,0.1,0.1,0.2,0.1c0,0,0,0,0,0c0,0,0,0,0,0c0.1,0,0.1,0,0.2-0.1c0,0,0,0,0.1,0c0,0,0,0,0,0l3.3-3.3c0.1-0.1,0.1-0.4,0-0.5
	c-0.1-0.1-0.4-0.1-0.5,0L16,28.1l0.6-4.7l7.8,4.3c0.1,0,0.2,0.1,0.2,0c0,0,0,0,0,0c0.1,0,0.1-0.1,0.2-0.2c0,0,0,0,0,0c0,0,0,0,0-0.1
	L30.8,11C30.8,10.9,30.8,10.8,30.7,10.7z"/>
</svg>
