<?xml version="1.0" encoding="utf-8"?>
<!-- Generator: Adobe Illustrator 23.0.1, SVG Export Plug-In . SVG Version: 6.00 Build 0)  -->
<svg version="1.1" id="Layer_1" xmlns="http://www.w3.org/2000/svg" xmlns:xlink="http://www.w3.org/1999/xlink" x="0px" y="0px"
	 viewBox="0 0 24 24" style="enable-background:new 0 0 24 24;" xml:space="preserve">
<style type="text/css">
	.st0{fill:#FFFFFF;}
	.st1{fill:#22263E;}
</style>
<path class="st0" d="M18.3,16.8c0.1,0.3,0.1,0.6,0,0.9L17.8,19c-0.3,0.6-1,0.9-1.6,0.7l-0.8-0.3c-0.5,0.6-1,1.2-1.6,1.6l0.3,0.8
	c0.3,0.6,0,1.3-0.7,1.6l-1.2,0.5C12,24,11.9,24,11.7,24c-0.5,0-0.9-0.3-1.1-0.8l-0.3-0.8c-0.8,0.1-1.5,0.1-2.3,0l-0.3,0.8
	c-0.3,0.6-1,0.9-1.6,0.7l-1.2-0.5c-0.3-0.1-0.5-0.4-0.7-0.7c-0.1-0.3-0.1-0.6,0-0.9L4.5,21c-0.6-0.5-1.2-1-1.6-1.6l-0.8,0.3
	c-0.6,0.3-1.3,0-1.6-0.7L0,17.8c-0.3-0.6,0-1.3,0.7-1.6l0.8-0.3c-0.1-0.8-0.1-1.5,0-2.3l-0.8-0.3c-0.3-0.1-0.5-0.4-0.7-0.7
	c0-0.3,0-0.6,0.1-0.9l0.5-1.2C0.7,10.1,1,9.9,1.3,9.8c0.3-0.1,0.6-0.1,0.9,0L3,10.1c0.5-0.6,1-1.2,1.6-1.6L4.3,7.7
	c-0.1-0.3-0.1-0.6,0-0.9S4.7,6.3,5,6.1l1.2-0.5c0.6-0.3,1.3,0,1.6,0.7l0.5,1.1c0.1,0.2,0,0.5-0.2,0.6S7.6,8,7.5,7.8L6.9,6.6
	C6.8,6.4,6.6,6.4,6.5,6.4L5.3,6.9C5.2,7,5.1,7,5.1,7.1s0,0.2,0,0.3l0.5,1.1c0.1,0.2,0,0.4-0.2,0.5C4.6,9.5,4,10.2,3.5,10.9
	c-0.1,0.2-0.3,0.2-0.5,0.2l-1.1-0.5c-0.1,0-0.2,0-0.3,0s-0.1,0.1-0.2,0.2L0.9,12c0,0.1,0,0.2,0,0.3s0.1,0.1,0.2,0.2L2.2,13
	c0.2,0.1,0.3,0.3,0.3,0.5c-0.2,0.9-0.2,1.8,0,2.7c0,0.2-0.1,0.4-0.3,0.5L1.1,17c-0.2,0.1-0.2,0.3-0.2,0.4l0.5,1.2
	c0.1,0.2,0.3,0.2,0.4,0.2L3,18.4c0.2-0.1,0.4,0,0.5,0.2C4,19.3,4.6,20,5.4,20.5c0.2,0.1,0.2,0.3,0.2,0.5l-0.5,1c0,0.1,0,0.2,0,0.3
	c0,0.1,0.1,0.1,0.2,0.2L6.5,23c0.2,0.1,0.4,0,0.4-0.2l0.5-1.1c0.1-0.2,0.3-0.3,0.5-0.3c0.9,0.2,1.8,0.2,2.7,0c0.2,0,0.4,0.1,0.5,0.3
	l0.5,1.1C11.7,23,11.9,23,12,23l1.2-0.5c0.2-0.1,0.2-0.3,0.2-0.4L12.9,21c-0.1-0.2,0-0.4,0.2-0.5c0.7-0.5,1.4-1.1,1.9-1.9
	c0.1-0.2,0.3-0.2,0.5-0.2l1.1,0.5c0.2,0.1,0.4,0,0.4-0.2l0.5-1.2c0-0.1,0-0.2,0-0.3c0-0.1-0.1-0.1-0.2-0.2l-1.1-0.5
	c-0.2-0.1-0.3-0.4-0.2-0.6c0.1-0.2,0.4-0.3,0.6-0.2l1.1,0.5C17.9,16.3,18.2,16.5,18.3,16.8z M5.3,14.7c0,1,0.4,2,1.2,2.8
	c0.7,0.7,1.7,1.1,2.7,1.1l0,0c1,0,2-0.4,2.8-1.2c0.7-0.7,1.1-1.7,1.1-2.8c0-0.2-0.2-0.4-0.4-0.4l0,0c-0.2,0-0.4,0.2-0.4,0.4
	c0,0.8-0.3,1.6-0.9,2.1s-1.3,0.9-2.1,0.9l0,0c-0.8,0-1.6-0.3-2.1-0.9c-0.6-0.6-0.9-1.3-0.9-2.1s0.3-1.6,0.9-2.1
	c0.6-0.6,1.3-0.9,2.1-0.9c0.2,0,0.4-0.2,0.4-0.4s-0.2-0.4-0.4-0.4l0,0c-1,0-2,0.4-2.8,1.2C5.7,12.7,5.3,13.7,5.3,14.7z M16.9,9
	c-1.1,0-2-0.9-2-2s0.9-2,2-2s2,0.9,2,2S18,9,16.9,9z M23,5.6h-0.5c-0.1-0.5-0.3-1-0.6-1.4l0.4-0.4c0.4-0.4,0.4-1,0-1.4l-0.7-0.7
	c-0.2-0.2-0.4-0.3-0.7-0.3c-0.3,0-0.5,0.1-0.7,0.3l-0.4,0.4c-0.4-0.3-0.9-0.4-1.4-0.6V1c0-0.6-0.4-1-1-1h-0.9c-0.6,0-1,0.4-1,1v0.5
	c-0.5,0.1-1,0.3-1.4,0.6l-0.4-0.4c-0.2-0.2-0.4-0.3-0.7-0.3s-0.5,0.1-0.7,0.3l-0.7,0.7c-0.4,0.4-0.4,1,0,1.4L12,4.2
	c-0.3,0.4-0.4,0.9-0.6,1.4h-0.5c-0.6,0-1,0.4-1,1v0.9c0,0.6,0.4,1,1,1h0.5c0.1,0.5,0.3,1,0.6,1.4l-0.4,0.4c-0.4,0.4-0.4,1,0,1.4
	l0.7,0.7c0.2,0.2,0.4,0.3,0.7,0.3s0.5-0.1,0.7-0.3l0.4-0.4c0.4,0.3,0.9,0.4,1.4,0.6v0.5c0,0.6,0.4,1,1,1h0.9c0.6,0,1-0.4,1-1v-0.5
	c0.5-0.1,1-0.3,1.4-0.6l0.4,0.4c0.2,0.2,0.4,0.3,0.7,0.3c0.3,0,0.5-0.1,0.7-0.3l0.7-0.7c0.4-0.4,0.4-1,0-1.4l-0.4-0.4
	c0.3-0.4,0.4-0.9,0.6-1.4H23c0.6,0,1-0.4,1-1V6.6C24,6,23.6,5.6,23,5.6z"/>
<circle class="st1" cx="16.9" cy="7" r="2"/>
</svg>
