<?xml version="1.0" encoding="utf-8"?>
<!-- Generator: Adobe Illustrator 23.0.1, SVG Export Plug-In . SVG Version: 6.00 Build 0)  -->
<svg version="1.1" id="Layer_1" xmlns="http://www.w3.org/2000/svg" xmlns:xlink="http://www.w3.org/1999/xlink" x="0px" y="0px"
	 viewBox="0 0 24 24" style="enable-background:new 0 0 24 24;" xml:space="preserve">
<style type="text/css">
	.st0{fill:#34375A;}
</style>
<path class="st0" d="M22.2,16.7c0.1,0.1,0.4,0.4,0.4,0.9v2.2c0,1.7-1.3,3-2.9,3H2.9c-1.6,0-2.9-1.4-2.9-3V7.2c0-1.7,1.3-3,2.9-3h3.6
	c0.5,0,0.9,0.4,0.9,0.9C7.4,5.6,7,6,6.5,6H2.9C2.3,6.1,1.8,6.6,1.8,7.2v12.5C1.8,20.4,2.4,21,3,21h16.8c0.6,0,1.2-0.6,1.2-1.2v-2.2
	c0-0.5,0.4-0.9,0.9-0.9h0.2L22.2,16.7z M23.9,8.1L23.9,8.1l-5.5,5.7c-0.2,0.2-0.6,0.4-1,0.2c-0.3-0.2-0.5-0.5-0.5-0.9v-2.5
	c-0.5,0-1,0.1-1.5,0.3c-1.4,0.5-2.6,1.6-3.5,3.2l-0.3,0.5c-0.1,0.3-0.4,0.4-0.7,0.4c-0.1,0-0.2,0-0.3,0c-0.4,0-0.7-0.4-0.7-0.8
	l-0.1-0.6C9.8,13,9.7,12,10,11c0.3-1.9,1.3-3.6,2.8-4.8c0,0,1.4-1.3,4.2-1.5V2.1c0-0.4,0.2-0.7,0.5-0.9c0.4-0.2,0.7,0,0.9,0.2
	l5.5,5.6C24,7.4,24,7.8,23.9,8.1z M18.5,9.8V11l3.4-3.4l-3.4-3.4v1.1c0,0.5-0.4,0.9-0.9,0.9c-2.3,0-3.5,0.8-3.9,1
	c-0.1,0-0.1,0.1-0.1,0.1c-1.1,1-1.9,2.2-2.2,3.8c0,0.1,0,0.2-0.1,0.3c1-1.1,2.1-1.9,3.3-2.3c1.7-0.7,3-0.4,3.2-0.3c0,0,0,0,0,0
	C18.2,8.9,18.5,9.3,18.5,9.8z"/>
</svg>
