<?xml version="1.0" encoding="utf-8"?>
<!-- Generator: Adobe Illustrator 24.0.2, SVG Export Plug-In . SVG Version: 6.00 Build 0)  -->
<svg version="1.1" id="Layer_1" xmlns="http://www.w3.org/2000/svg" xmlns:xlink="http://www.w3.org/1999/xlink" x="0px" y="0px"
	 viewBox="0 0 16 16" style="enable-background:new 0 0 16 16;" xml:space="preserve">
<style type="text/css">
	.st0{fill:#34375A;}
</style>
<path class="st0" d="M0.2,8.6l4.5,4.5c0.1,0.1,0.3,0.2,0.5,0.2l0,0c0.2,0,0.4-0.1,0.5-0.2C5.9,13,6,12.8,6,12.6
	c0-0.2-0.1-0.4-0.2-0.5L2.6,8.9l12.7,0c0.4,0,0.7-0.4,0.7-0.8c0-0.4-0.3-0.8-0.8-0.8l-12.7,0l3.3-3.2c0.3-0.3,0.3-0.8,0-1.1
	C5.7,2.9,5.5,2.8,5.3,2.8S4.9,2.9,4.8,3L0.3,7.5C0.1,7.7,0,7.9,0,8.1S0.1,8.5,0.2,8.6z"/>
</svg>
