<?xml version="1.0" encoding="utf-8"?>
<!-- Generator: Adobe Illustrator 23.0.1, SVG Export Plug-In . SVG Version: 6.00 Build 0)  -->
<svg version="1.1" id="Layer_1" xmlns="http://www.w3.org/2000/svg" xmlns:xlink="http://www.w3.org/1999/xlink" x="0px" y="0px"
	 viewBox="0 0 16 16" style="enable-background:new 0 0 16 16;" xml:space="preserve">
<style type="text/css">
	.st0{fill:#34375A;}
</style>
<path class="st0" d="M15.8,7.5L11.3,3c-0.1-0.1-0.3-0.2-0.5-0.2c0,0,0,0,0,0c-0.2,0-0.4,0.1-0.5,0.2C10.1,3.1,10,3.3,10,3.5
	c0,0.2,0.1,0.4,0.2,0.5l3.2,3.2H0.7C0.3,7.2,0,7.6,0,8c0,0.4,0.3,0.8,0.8,0.8h12.7L10.2,12c-0.3,0.3-0.3,0.8,0,1.1
	c0.1,0.1,0.3,0.2,0.5,0.2c0.2,0,0.4-0.1,0.5-0.2l4.5-4.5C15.9,8.4,16,8.2,16,8C16,7.8,15.9,7.6,15.8,7.5z"/>
</svg>
