<?xml version="1.0" encoding="utf-8"?>
<!-- Generator: Adobe Illustrator 23.0.1, SVG Export Plug-In . SVG Version: 6.00 Build 0)  -->
<svg version="1.1" id="Layer_1" xmlns="http://www.w3.org/2000/svg" xmlns:xlink="http://www.w3.org/1999/xlink" x="0px" y="0px"
	 viewBox="0 0 16 16" style="enable-background:new 0 0 16 16;" xml:space="preserve">
<style type="text/css">
	.st0{opacity:0.5;fill:#33375B;}
</style>
<path class="st0" d="M16,12.2c0,0.1,0,0.1,0,0.2c-0.2,0.4-0.8,0.7-2,0.9c0,0.1-0.1,0.2-0.1,0.3c0,0.1-0.1,0.2-0.1,0.4
	c-0.1,0.2-0.2,0.3-0.5,0.3c-0.1,0-0.2,0-0.4,0c-0.2,0-0.5-0.1-0.8-0.1c-0.2,0-0.4,0-0.6,0.1c-0.4,0.1-0.7,0.3-1.1,0.6
	c-0.7,0.5-1.5,0.7-2.4,0.7c0,0-0.1,0-0.1,0c0,0-0.1,0-0.1,0c-1,0-1.5-0.3-2.1-0.7c-0.4-0.3-0.7-0.5-1.1-0.6c-0.2,0-0.4-0.1-0.6-0.1
	c-0.3,0-0.6,0.1-0.8,0.1c-0.1,0-0.3,0.1-0.4,0.1c-0.3,0-0.4-0.2-0.5-0.4c0-0.1-0.1-0.3-0.1-0.4c0-0.1-0.1-0.2-0.1-0.3
	c-1.3-0.2-1.9-0.5-2.1-0.9c0-0.1,0-0.1,0-0.2c0-0.2,0.1-0.4,0.4-0.4c2.1-0.3,3-2.5,3.1-2.6c0.1-0.2,0.1-0.4,0.1-0.5
	C3.4,8.4,3,8.2,2.7,8.1C2.6,8.1,2.6,8.1,2.5,8c-0.8-0.3-0.9-0.7-0.9-1c0.1-0.5,0.8-0.7,1.2-0.6c0.3,0.1,0.5,0.2,0.7,0.2
	c0.1,0,0.2,0,0.2,0c0-0.1,0-0.2,0-0.3C3.6,5.3,3.5,3.9,3.9,3.1c1.1-2.4,3.3-2.6,4-2.6l0.3,0c0.7,0,2.9,0.2,4,2.6
	c0.4,0.8,0.3,2.2,0.2,3.2l0,0c0,0.1,0,0.2,0,0.3c0,0,0.1,0,0.2,0c0.2,0,0.4-0.1,0.6-0.2c0.1-0.1,0.3-0.1,0.3-0.1
	c0.1,0,0.3,0,0.4,0.1c0.3,0.1,0.5,0.4,0.5,0.6c0,0.3-0.3,0.6-0.9,0.9c-0.1,0-0.1,0-0.2,0.1c-0.3,0.1-0.7,0.2-0.8,0.5
	c-0.1,0.1,0,0.3,0.1,0.5c0,0,0,0,0,0c0.1,0.2,1,2.3,3,2.6C15.8,11.8,16,12,16,12.2z"/>
</svg>
