<?xml version="1.0" encoding="utf-8"?>
<!-- Generator: Adobe Illustrator 23.0.1, SVG Export Plug-In . SVG Version: 6.00 Build 0)  -->
<svg version="1.1" id="Layer_1" xmlns="http://www.w3.org/2000/svg" xmlns:xlink="http://www.w3.org/1999/xlink" x="0px" y="0px"
	 viewBox="0 0 16 16" style="enable-background:new 0 0 16 16;" xml:space="preserve">
<style type="text/css">
	.st0{fill:#E9E9E9;}
</style>
<path class="st0" d="M8,4.3l1,2l0.2,0.5l0.5,0.1L12,7.3L10.3,9L9.9,9.4L10,9.9l0.4,2.2L8.5,11L8,10.8L7.5,11l-1.9,1.1L6,9.9l0.1-0.5
	L5.7,9L4.1,7.3L6.2,7l0.5-0.1L7,6.4L8,4.3 M8,2L6.1,6L2,6.6l3,3.1L4.3,14L8,11.9l3.7,2.1L11,9.7l3-3.1L9.9,5.9L8,2L8,2z"/>
</svg>
