<?xml version="1.0" encoding="utf-8"?>
<!-- Generator: Adobe Illustrator 23.0.1, SVG Export Plug-In . SVG Version: 6.00 Build 0)  -->
<svg version="1.1" id="Layer_1" xmlns="http://www.w3.org/2000/svg" xmlns:xlink="http://www.w3.org/1999/xlink" x="0px" y="0px"
	 viewBox="0 0 24 24" style="enable-background:new 0 0 24 24;" xml:space="preserve">
<style type="text/css">
	.st0{fill:#33375B;}
</style>
<path class="st0" d="M20,5.2V6H4V5.2c0-0.4,0.3-0.7,0.8-0.7l3.8,0l0-0.7c0-0.4,0.3-0.7,0.6-0.7l0.1,0h5.3c0.4,0,0.8,0.3,0.8,0.7
	l0,0.7l3.8,0c0.4,0,0.7,0.3,0.7,0.6L20,5.2z M5.5,6.8h12.9l-1.4,12.9C17,20.4,16.3,21,15.6,21H8.4c-0.8,0-1.4-0.6-1.5-1.3L5.5,6.8z
	 M14.3,18.7c0,0.4,0.3,0.8,0.7,0.8l0.1,0c0.4,0,0.7-0.3,0.8-0.7l0.8-9.7c0-0.4-0.3-0.8-0.7-0.8c-0.4,0-0.8,0.3-0.8,0.7L14.3,18.7z
	 M11.2,18.8c0,0.4,0.3,0.7,0.8,0.7s0.8-0.3,0.8-0.7V9c0-0.4-0.3-0.8-0.8-0.8S11.2,8.6,11.2,9V18.8z M7.4,9.1l0.8,9.7
	c0,0.4,0.4,0.7,0.8,0.7l0.1,0c0.4,0,0.7-0.4,0.7-0.8L9,8.9c0-0.4-0.4-0.7-0.8-0.7C7.7,8.3,7.4,8.6,7.4,9.1z"/>
</svg>
