<?xml version="1.0" encoding="utf-8"?>
<!-- Generator: Adobe Illustrator 23.0.1, SVG Export Plug-In . SVG Version: 6.00 Build 0)  -->
<svg version="1.1" id="Layer_1" xmlns="http://www.w3.org/2000/svg" xmlns:xlink="http://www.w3.org/1999/xlink" x="0px" y="0px"
	 viewBox="0 0 16 16" style="enable-background:new 0 0 16 16;" xml:space="preserve">
<style type="text/css">
	.st0{fill:#33375B;}
</style>
<path class="st0" d="M14.2,2.8v0.6H1.8V2.8c0-0.3,0.3-0.6,0.6-0.6l3,0l0-0.6c0-0.3,0.2-0.5,0.5-0.6l0.1,0h4.1c0.3,0,0.6,0.3,0.6,0.6
	l0,0.6l3,0C13.9,2.2,14.2,2.4,14.2,2.8L14.2,2.8z M3,3.9h10L12,14c-0.1,0.6-0.6,1-1.2,1H5.2c-0.6,0-1.1-0.5-1.2-1L3,3.9z M9.8,13.2
	c0,0.3,0.2,0.6,0.5,0.6l0,0c0.3,0,0.6-0.2,0.6-0.5l0.6-7.6c0-0.3-0.2-0.6-0.5-0.6c-0.3,0-0.6,0.2-0.6,0.5L9.8,13.2z M7.4,13.2
	c0,0.3,0.3,0.6,0.6,0.6s0.6-0.3,0.6-0.6V5.7c0-0.3-0.3-0.6-0.6-0.6S7.4,5.3,7.4,5.7V13.2z M4.5,5.7L5,13.3c0,0.3,0.3,0.5,0.6,0.5
	l0,0c0.3,0,0.6-0.3,0.5-0.6L5.6,5.6c0-0.3-0.3-0.6-0.6-0.5C4.7,5.1,4.4,5.4,4.5,5.7z"/>
</svg>
