<?xml version="1.0" encoding="utf-8"?>
<!-- Generator: Adobe Illustrator 23.0.1, SVG Export Plug-In . SVG Version: 6.00 Build 0)  -->
<svg version="1.1" id="Layer_1" xmlns="http://www.w3.org/2000/svg" xmlns:xlink="http://www.w3.org/1999/xlink" x="0px" y="0px"
	 viewBox="0 0 40 40" style="enable-background:new 0 0 40 40;" xml:space="preserve">
<style type="text/css">
	.st0{fill-rule:evenodd;clip-rule:evenodd;fill:#50ABF1;}
	.st1{fill:#FFFFFF;}
</style>
<g>
	<path class="st0" d="M5,0h30c2.8,0,5,2.2,5,5v30c0,2.8-2.2,5-5,5H5c-2.8,0-5-2.2-5-5V5C0,2.2,2.2,0,5,0z"/>
	<path class="st1" d="M5.3,29.3c2.7,1.7,5.8,2.7,9.2,2.7c9.5,0,17.2-7.7,17.2-17.2c0-0.2,0-0.5,0-0.7c0.3-0.3,2.5-2,3-3.1
		c0,0-1.7,0.7-3.4,0.9c0,0,0,0,0,0c0,0,0,0,0,0c0.2-0.1,2.3-1.6,2.6-3.4c0,0-1.2,0.7-2.9,1.2c-0.3,0.1-0.6,0.2-0.9,0.3
		c-1.1-1.2-2.7-1.9-4.4-1.9c-3.3,0-6,2.7-6,6c0,0.5,0.1,0.9,0.2,1.4c-0.5,0-7.6-0.4-12.4-6.3c0,0-2.9,3.9,1.7,8c0,0-1.4-0.1-2.6-0.8
		c0,0-0.4,4.8,4.8,6c0,0-1,0.4-2.7,0.1c0,0,0.9,3.9,5.6,4.2C14.2,26.7,10.5,30,5.3,29.3L5.3,29.3z"/>
</g>
</svg>
