<?xml version="1.0" encoding="utf-8"?>
<!-- Generator: Adobe Illustrator 23.0.1, SVG Export Plug-In . SVG Version: 6.00 Build 0)  -->
<svg version="1.1" id="Layer_1" xmlns="http://www.w3.org/2000/svg" xmlns:xlink="http://www.w3.org/1999/xlink" x="0px" y="0px"
	 viewBox="0 0 16 16" style="enable-background:new 0 0 16 16;" xml:space="preserve">
<style type="text/css">
	.st0{fill:#FFFFFF;}
</style>
<path class="st0" d="M13.8,9.9L8.7,4.7C8.5,4.6,8.3,4.5,8,4.5c-0.3,0-0.5,0.1-0.7,0.3L2.2,9.9c-0.4,0.4-0.4,1,0,1.4
	c0.4,0.4,1,0.4,1.4,0L8,6.8l4.4,4.4c0.4,0.4,1,0.4,1.4,0c0.2-0.2,0.3-0.4,0.3-0.7C14.1,10.3,14,10,13.8,9.9z M13.7,11.1
	c-0.3,0.3-0.8,0.3-1.1,0L8,6.6L7.9,6.6l-4.5,4.5c-0.2,0.2-0.4,0.2-0.6,0.2c-0.2,0-0.4-0.1-0.6-0.2C2,10.8,2,10.3,2.3,10l5.1-5.1
	c0.3-0.3,0.8-0.3,1.1,0l5.1,5.1c0.1,0.1,0.2,0.3,0.2,0.6C13.9,10.8,13.8,11,13.7,11.1z"/>
</svg>
