<?xml version="1.0" encoding="utf-8"?>
<!-- Generator: Adobe Illustrator 23.0.1, SVG Export Plug-In . SVG Version: 6.00 Build 0)  -->
<svg version="1.1" id="Layer_1" xmlns="http://www.w3.org/2000/svg" xmlns:xlink="http://www.w3.org/1999/xlink" x="0px" y="0px"
	 viewBox="0 0 16 16" style="enable-background:new 0 0 16 16;" xml:space="preserve">
<style type="text/css">
	.st0{fill:#4A4A4A;}
</style>
<path class="st0" d="M13.9,10.3L8.5,4.5C8.3,4.4,8.2,4.3,8,4.3c0,0,0,0,0,0c-0.2,0-0.3,0.1-0.4,0.2l0,0l-5.4,5.7
	c-0.3,0.3-0.3,0.8-0.1,1.2c0.2,0.3,0.7,0.4,1,0.1c0,0,0.1,0,0.1-0.1l4.7-5.1C7.8,6.3,7.9,6.3,8,6.3c0.1,0,0.2,0,0.3,0.1l4.7,5.1
	c0.1,0.1,0.3,0.2,0.5,0.2c0.2,0,0.4-0.1,0.5-0.2c0,0,0.1-0.1,0.1-0.1C14.2,11.1,14.2,10.6,13.9,10.3z"/>
</svg>
