<?xml version="1.0" encoding="utf-8"?>
<!-- Generator: Adobe Illustrator 23.0.1, SVG Export Plug-In . SVG Version: 6.00 Build 0)  -->
<svg version="1.1" id="Layer_1" xmlns="http://www.w3.org/2000/svg" xmlns:xlink="http://www.w3.org/1999/xlink" x="0px" y="0px"
	 viewBox="0 0 24 24" style="enable-background:new 0 0 24 24;" xml:space="preserve">
<style type="text/css">
	.st0{fill:#FFFFFF;}
</style>
<path class="st0" d="M8.9,13.6c0.6,0.4,1.6,0.9,3.1,0.9c1.5,0,2.5-0.5,3.1-0.9c3.9,0.8,4.6,2.4,4.8,6.5l0,0.2l0,0l0,0.1l0,0l0,0.1
	l0,0.2c-0.5,0.5-2.4,1.8-7.5,1.8l-0.4,0c-5.4,0-7.4-1.3-7.9-1.8l0-0.1C4.2,15.9,4.7,14.5,8.9,13.6 M12,0C7.8,0,7.1,2.6,7.1,5.9
	c0,3.2,2.2,5.9,4.9,5.9c2.7,0,4.9-2.6,4.9-5.9C16.9,2.6,16.2,0,12,0L12,0z M14.7,12.2c0,0-0.8,1-2.7,1c-1.9,0-2.7-1-2.7-1
	c-5.7,1-6.5,3-6.6,8.5l0,0.6c0,0,1.4,2.7,9.2,2.7l0.4,0c7.3-0.1,8.7-2.5,8.8-2.7l0,0c0-0.1,0-0.4,0-0.7l0-0.1l0,0.2l0-0.1
	c0-0.1,0-0.2,0-0.3l0-0.1l0,0.1l0,0.1l0-0.2C21,15.3,20,13.1,14.7,12.2L14.7,12.2z M21.2,20.9L21.2,20.9l0,0.2l0,0
	C21.2,21.1,21.2,21,21.2,20.9L21.2,20.9L21.2,20.9z M21.2,21.3L21.2,21.3L21.2,21.3C21.2,21.3,21.2,21.3,21.2,21.3
	C21.2,21.3,21.2,21.3,21.2,21.3L21.2,21.3z"/>
</svg>
