<?xml version="1.0" encoding="utf-8"?>
<!-- Generator: Adobe Illustrator 23.0.1, SVG Export Plug-In . SVG Version: 6.00 Build 0)  -->
<svg version="1.1" id="Layer_1" xmlns="http://www.w3.org/2000/svg" xmlns:xlink="http://www.w3.org/1999/xlink" x="0px" y="0px"
	 viewBox="0 0 16 16" style="enable-background:new 0 0 16 16;" xml:space="preserve">
<style type="text/css">
	.st0{fill-rule:evenodd;clip-rule:evenodd;fill:#9B9B9B;}
</style>
<path class="st0" d="M14.1,13.9c0,0.1,0,0.2,0,0.3c0,0-0.9,1.8-6.1,1.8s-6.1-1.8-6.1-1.8c0-0.2,0-0.3,0-0.4c0,0,0,0,0-0.3
	C2,9.9,2.5,8.8,6.2,8.1c0,0,0.5,0.7,1.8,0.7c1.2,0,1.8-0.7,1.8-0.7c3.8,0.7,4.3,1.8,4.3,5.5C14.1,13.9,14.1,13.9,14.1,13.9z M8,7.8
	c1.8,0,3.2-1.8,3.2-3.9S10.7,0,8,0S4.8,1.8,4.8,3.9C4.8,6.1,6.2,7.8,8,7.8z"/>
</svg>
