<?xml version="1.0" encoding="utf-8"?>
<!-- Generator: Adobe Illustrator 23.0.1, SVG Export Plug-In . SVG Version: 6.00 Build 0)  -->
<svg version="1.1" id="Layer_1" xmlns="http://www.w3.org/2000/svg" xmlns:xlink="http://www.w3.org/1999/xlink" x="0px" y="0px"
	 viewBox="0 0 16 16" style="enable-background:new 0 0 16 16;" xml:space="preserve">
<style type="text/css">
	.st0{opacity:0.5;fill:#4A4A4A;enable-background:new    ;}
</style>
<path class="st0" d="M14.4,2.7L9.6,0.1C9.3,0,9,0,8.7,0C8.5,0.1,8.2,0.3,8.1,0.6L5.3,5.8H1.9C1.4,5.8,1,6.1,1,6.6v8.5
	C1,15.6,1.4,16,1.9,16h11c0.5,0,0.9-0.4,0.9-0.9v-1.9H14c0.2,0,0.4-0.2,0.4-0.4v-2.3c0-0.2-0.2-0.4-0.4-0.4h-0.2V8
	c0-0.4-0.2-0.7-0.6-0.8l1.6-3C15.1,3.7,14.9,3,14.4,2.7z M10.3,1.4l0.5,0.3l-3,5.4H7.2L10.3,1.4z M8.9,0.9c0,0,0-0.1,0.1-0.1
	s0.1,0,0.2,0L9.6,1L6.3,7.1H5.5L8.9,0.9z M1.8,6.6c0,0,0-0.1,0.1-0.1h2.9L4.5,7.1H1.9c0,0,0,0-0.1,0V6.6z M12.9,15
	c0,0,0,0.1-0.1,0.1h-11c0,0-0.1,0-0.1-0.1V8h0.1l11-0.1c0,0,0.1,0,0.1,0.1v2.1h-1.1c-0.6,0-1,0.5-1,1v1c0,0.6,0.5,1,1,1h1.1V15z
	 M13.6,11v1.5h-1.7c-0.2-0.1-0.2-0.2-0.2-0.3v-1c0-0.1,0.1-0.2,0.2-0.2H13.6z M14.1,3.8l-1.8,3.3H8.7l2.7-5L14,3.5
	c0.1,0,0.1,0.1,0.1,0.1C14.1,3.7,14.1,3.7,14.1,3.8z M12.5,3.4c-0.5,0-0.8,0.4-0.8,0.8c0,0.5,0.4,0.8,0.8,0.8c0.5,0,0.8-0.4,0.8-0.8
	C13.4,3.8,13,3.4,12.5,3.4z M12.5,4.6c-0.2,0-0.4-0.2-0.4-0.4c0-0.2,0.2-0.4,0.4-0.4c0.2,0,0.4,0.2,0.4,0.4
	C12.9,4.4,12.7,4.6,12.5,4.6z"/>
</svg>
