<?xml version="1.0" encoding="utf-8"?>
<!-- Generator: Adobe Illustrator 23.0.6, SVG Export Plug-In . SVG Version: 6.00 Build 0)  -->
<svg version="1.1" id="Слой_1" xmlns="http://www.w3.org/2000/svg" xmlns:xlink="http://www.w3.org/1999/xlink" x="0px" y="0px"
	 viewBox="0 0 50 50" style="enable-background:new 0 0 50 50;" xml:space="preserve">
<path d="M0,2c0-1.1,0.9-2,2-2h46c1.1,0,2,0.9,2,2v46c0,1.1-0.9,2-2,2H2c-1.1,0-2-0.9-2-2V2z M8.3,43.3c-0.9,0-1.7-0.7-1.7-1.7V30.8
	h2.5v10h10v2.5L8.3,43.3z M43.3,41.7c0,0.9-0.7,1.7-1.7,1.7h-10v-2.5h9.2v-10h2.5L43.3,41.7z M41.7,6.7c0.9,0,1.7,0.7,1.7,1.7v10
	h-2.5V9.2h-9.2V6.7H41.7z M8.3,6.7h10.8v2.5h-10v9.2H6.7v-10C6.7,7.4,7.4,6.7,8.3,6.7z"/>
</svg>
