<svg xmlns="http://www.w3.org/2000/svg" width="113" height="105" viewBox="0 0 113 105"><g><g><g><g opacity=".07" transform="rotate(30 43 57)"><path fill="#68385b" d="M43.157 90.874c22.11.088 39.973-14.934 39.9-33.552-.074-18.619-18.058-33.783-40.167-33.872-22.11-.088-39.974 14.934-39.9 33.552.074 18.619 18.058 33.784 40.167 33.872z"/></g><g opacity=".07" transform="rotate(-30 74.5 42)"><path fill="#68385b" d="M74.21 75.464c-22.11.088-39.974-14.934-39.9-33.552.074-18.619 18.058-33.783 40.167-33.872 22.11-.088 39.973 14.934 39.9 33.552-.074 18.619-18.058 33.784-40.167 33.872z"/></g></g><g opacity=".2"><path fill="none" stroke="#68385b" stroke-miterlimit="50" stroke-width="2.52" d="M19.8 13.564c.994 0 1.8-.805 1.8-1.797 0-.993-.806-1.797-1.8-1.797s-1.8.804-1.8 1.797c0 .992.806 1.797 1.8 1.797z"/></g><g opacity=".3"><path fill="none" stroke="#68385b" stroke-miterlimit="50" stroke-width="2.52" d="M99 83.644c.994 0 1.8-.805 1.8-1.797 0-.992-.806-1.797-1.8-1.797s-1.8.805-1.8 1.797c0 .992.806 1.797 1.8 1.797z"/></g><g opacity=".5"><g opacity=".5"><path fill="#68385b" d="M2.67 54.89h1.335v5.383H2.67z"/></g><g opacity=".5" transform="rotate(90 2.5 58)"><path fill="#68385b" d="M2.74 54.58h1.196v6.006H2.74z"/></g></g><g opacity=".3"><g opacity=".3"><path fill="#68385b" d="M63.3 99.81h1.051v5.233H63.3z"/></g><g opacity=".3" transform="rotate(90 64 102)"><path fill="#68385b" d="M63.25 100.06h1.163v4.73H63.25z"/></g></g><g opacity=".1" transform="rotate(-28 51.5 2.5)"><g opacity=".1"><path fill="#68385b" d="M50.88-.54h.964v4.854h-.964z"/></g><g opacity=".1" transform="rotate(90 51.5 2.5)"><path fill="#68385b" d="M50.82-.28h1.079v4.34H50.82z"/></g></g><g opacity=".4" transform="rotate(-28 91.5 13)"><g opacity=".4"><path fill="#68385b" d="M90.83 10.56h.964v4.854h-.964z"/></g><g opacity=".4" transform="rotate(90 91.5 13.5)"><path fill="#68385b" d="M90.77 10.81h1.079v4.34H90.77z"/></g></g><g opacity=".7"><path fill="#68385b" d="M19.8 85.434c.994 0 1.8-.805 1.8-1.797 0-.993-.806-1.797-1.8-1.797s-1.8.804-1.8 1.797c0 .992.806 1.797 1.8 1.797z"/></g><g opacity=".5"><path fill="#68385b" d="M68.4 4.574c.994 0 1.8-.805 1.8-1.797 0-.993-.806-1.797-1.8-1.797s-1.8.804-1.8 1.797c0 .992.806 1.797 1.8 1.797z"/></g></g></g></svg>