<?xml version="1.0" encoding="utf-8"?>
<!-- Generator: Adobe Illustrator 23.0.1, SVG Export Plug-In . SVG Version: 6.00 Build 0)  -->
<svg version="1.1" id="Layer_1" xmlns="http://www.w3.org/2000/svg" xmlns:xlink="http://www.w3.org/1999/xlink" x="0px" y="0px"
	 viewBox="0 0 32 32" style="enable-background:new 0 0 32 32;" xml:space="preserve">
<style type="text/css">
	.st0{fill:url(#Rectangle_1_);}
	.st1{fill:#FFFFFF;}
</style>
<g>
	
		<radialGradient id="Rectangle_1_" cx="12.3354" cy="-3.6009" r="0.8822" gradientTransform="matrix(40 0 0 40 -486.8571 172)" gradientUnits="userSpaceOnUse">
		<stop  offset="0" style="stop-color:#FAE100"/>
		<stop  offset="5.440000e-02" style="stop-color:#FADC04"/>
		<stop  offset="0.1167" style="stop-color:#FBCE0E"/>
		<stop  offset="0.1829" style="stop-color:#FCB720"/>
		<stop  offset="0.2514" style="stop-color:#FE9838"/>
		<stop  offset="0.3054" style="stop-color:#FF7950"/>
		<stop  offset="0.4922" style="stop-color:#FF1C74"/>
		<stop  offset="1" style="stop-color:#6C1CD1"/>
	</radialGradient>
	<path id="Rectangle" class="st0" d="M5.1,0h21.8C29.7,0,32,2.3,32,5.1v21.8c0,2.8-2.3,5.1-5.1,5.1H5.1C2.3,32,0,29.7,0,26.9V5.1
		C0,2.3,2.3,0,5.1,0z"/>
	<path id="Shape" class="st1" d="M23.2,7.2H9C8,7.2,7.2,8,7.2,9V23c0,1,0.8,1.8,1.8,1.8h14.2c1,0,1.8-0.8,1.8-1.8V9
		C25,8,24.2,7.2,23.2,7.2z M16.1,12.5c1.9,0,3.5,1.6,3.5,3.5s-1.6,3.5-3.5,3.5s-3.5-1.6-3.5-3.5S14.2,12.5,16.1,12.5z M9.4,23
		C9.2,23,9,22.9,9,22.6v-7.5h1.8c-0.1,0.2-0.1,0.6-0.1,0.9c0,2.9,2.4,5.3,5.4,5.3s5.4-2.4,5.4-5.3c0-0.2,0-0.6-0.1-0.9h1.8v7.5
		c0,0.2-0.2,0.4-0.5,0.4H9.4z M23.2,11.1c0,0.2-0.2,0.5-0.5,0.5H21c-0.2,0-0.5-0.2-0.5-0.5V9.4c0-0.2,0.2-0.5,0.5-0.5h1.8
		c0.2,0,0.5,0.2,0.5,0.5V11.1z"/>
</g>
</svg>
