<svg xmlns="http://www.w3.org/2000/svg" width="13" height="16" viewBox="0 0 13 16"><g><g/><g><path fill="#2f2f2f" d="M3.556 6V4.667C3.556 3.197 4.829 2 6.395 2s2.84 1.196 2.84 2.667V6zm3.909 6.954a.32.32 0 0 1-.089.259.367.367 0 0 1-.265.11H5.69a.367.367 0 0 1-.265-.11.32.32 0 0 1-.089-.259l.225-1.887a1.291 1.291 0 0 1-.582-1.07c0-.734.638-1.33 1.422-1.33.784 0 1.422.596 1.422 1.33 0 .43-.217.822-.582 1.07zM12.445 6h-1.067V4.667C11.378 2.093 9.145 0 6.4 0 3.655 0 1.422 2.093 1.422 4.667V6H.356C.159 6 0 6.15 0 6.333v8.334C0 15.402.638 16 1.422 16h9.956c.784 0 1.422-.598 1.422-1.333V6.333c0-.184-.159-.333-.356-.333z"/></g></g></svg>