<?xml version="1.0" encoding="utf-8"?>
<!-- Generator: Adobe Illustrator 22.1.0, SVG Export Plug-In . SVG Version: 6.00 Build 0)  -->
<svg version="1.1" id="Layer_1" xmlns="http://www.w3.org/2000/svg" xmlns:xlink="http://www.w3.org/1999/xlink" x="0px" y="0px"
	 viewBox="0 0 16 17" style="enable-background:new 0 0 16 17;" xml:space="preserve">
<style type="text/css">
	.st0{fill:#33375B;}
	.st1{fill:none;stroke:#33375B;stroke-width:0.4;stroke-miterlimit:50;}
</style>
<path class="st0" d="M8,4.3c0.6,0,1.2,0.5,1.2,1.2c0,0.6-0.6,1.1-1.2,1.1C7.3,6.5,6.9,6,6.8,5.4C6.8,4.8,7.4,4.3,8,4.3z M8,7.1
	c0.9,0,1.6-0.7,1.6-1.6c0-0.9-0.7-1.6-1.6-1.6c-0.9,0-1.6,0.7-1.6,1.6S7.1,7.1,8,7.1z"/>
<path class="st1" d="M8,4.3c0.6,0,1.2,0.5,1.2,1.2c0,0.6-0.6,1.1-1.2,1.1C7.3,6.5,6.9,6,6.8,5.4C6.8,4.8,7.4,4.3,8,4.3z M8,7.1
	c0.9,0,1.6-0.7,1.6-1.6c0-0.9-0.7-1.6-1.6-1.6c-0.9,0-1.6,0.7-1.6,1.6S7.1,7.1,8,7.1z"/>
<path class="st0" d="M5.1,2.6C5.9,1.9,6.9,1.5,8,1.5c1.1,0,2.1,0.4,2.8,1.2c1.4,1.4,1.6,4.1,0.4,5.7L8,13L4.7,8.3
	C3.5,6.7,3.7,4.1,5.1,2.6L5.1,2.6z M8,13.8l3.6-5.2c1.3-1.8,1.1-4.7-0.4-6.3C10.3,1.5,9.1,1,8,1C6.8,1,5.6,1.5,4.8,2.3
	C3.2,3.9,3,6.8,4.4,8.6L8,13.8z"/>
<path class="st1" d="M5.1,2.6C5.9,1.9,6.9,1.5,8,1.5c1.1,0,2.1,0.4,2.8,1.2c1.4,1.4,1.6,4.1,0.4,5.7L8,13L4.7,8.3
	C3.5,6.7,3.7,4.1,5.1,2.6L5.1,2.6z M8,13.8l3.6-5.2c1.3-1.8,1.1-4.7-0.4-6.3C10.3,1.5,9.1,1,8,1C6.8,1,5.6,1.5,4.8,2.3
	C3.2,3.9,3,6.8,4.4,8.6L8,13.8z"/>
<path class="st0" d="M10.8,12c-0.1,0-0.2,0.1-0.3,0.2c0,0.1,0.1,0.2,0.2,0.3l0,0c2.5,0.3,3.8,1.1,3.8,1.5c0,0.6-2.5,1.5-6.5,1.5
	S1.5,14.6,1.5,14c0-0.5,1.3-1.2,3.8-1.5c0.1,0,0.2-0.1,0.2-0.3S5.3,12,5.2,12C2.7,12.3,1,13.1,1,14c0,1,2.4,2,7,2c4.6,0,7-1,7-2
	C15,13.1,13.3,12.3,10.8,12z"/>
<path class="st1" d="M10.8,12c-0.1,0-0.2,0.1-0.3,0.2c0,0.1,0.1,0.2,0.2,0.3l0,0c2.5,0.3,3.8,1.1,3.8,1.5c0,0.6-2.5,1.5-6.5,1.5
	S1.5,14.6,1.5,14c0-0.5,1.3-1.2,3.8-1.5c0.1,0,0.2-0.1,0.2-0.3S5.3,12,5.2,12C2.7,12.3,1,13.1,1,14c0,1,2.4,2,7,2c4.6,0,7-1,7-2
	C15,13.1,13.3,12.3,10.8,12z"/>
</svg>
