<?xml version="1.0" encoding="utf-8"?>
<!-- Generator: Adobe Illustrator 23.0.1, SVG Export Plug-In . SVG Version: 6.00 Build 0)  -->
<svg version="1.1" id="Layer_1" xmlns="http://www.w3.org/2000/svg" xmlns:xlink="http://www.w3.org/1999/xlink" x="0px" y="0px"
	 viewBox="0 0 32 32" style="enable-background:new 0 0 32 32;" xml:space="preserve">
<style type="text/css">
	.st0{fill-rule:evenodd;clip-rule:evenodd;fill:#FFFC01;}
	.st1{fill:#FFFFFF;}
</style>
<g>
	<path class="st0" d="M4,0h24c2.2,0,4,1.8,4,4v24c0,2.2-1.8,4-4,4H4c-2.2,0-4-1.8-4-4V4C0,1.8,1.8,0,4,0z"/>
	<path class="st1" d="M16.1,25.2c-0.1,0-0.1,0-0.1,0c0,0-0.1,0-0.1,0c-1.2,0-1.9-0.5-2.6-1c-0.5-0.4-1-0.7-1.5-0.8
		c-0.3,0-0.5-0.1-0.8-0.1c-0.5,0-0.8,0.1-1.1,0.1c-0.2,0-0.3,0.1-0.4,0.1c-0.1,0-0.2,0-0.3-0.2c0-0.2-0.1-0.3-0.1-0.5
		c-0.1-0.4-0.1-0.6-0.3-0.6c-1.8-0.3-2.4-0.7-2.5-0.9c0,0,0-0.1,0-0.1c0-0.1,0.1-0.2,0.2-0.2c2.8-0.5,4.1-3.3,4.1-3.5c0,0,0,0,0,0
		c0.2-0.4,0.2-0.7,0.1-0.9c-0.2-0.5-0.8-0.7-1.2-0.8c-0.1,0-0.2-0.1-0.3-0.1c-0.8-0.3-0.9-0.7-0.9-0.8c0.1-0.3,0.4-0.5,0.8-0.5
		c0.1,0,0.2,0,0.2,0c0.4,0.2,0.7,0.3,1,0.3c0.4,0,0.6-0.2,0.6-0.2c0-0.2,0-0.4,0-0.6c-0.1-1.3-0.2-3,0.2-3.9
		c1.3-2.8,3.9-3.1,4.7-3.1c0,0,0.3,0,0.3,0h0c0.8,0,3.5,0.2,4.7,3.1c0.4,0.9,0.3,2.6,0.2,3.9l0,0.1c0,0.2,0,0.4,0,0.5
		c0,0,0.2,0.2,0.5,0.2h0c0.3,0,0.6-0.1,0.9-0.3c0.1,0,0.2-0.1,0.3-0.1c0.1,0,0.2,0,0.3,0.1l0,0c0.3,0.1,0.5,0.3,0.5,0.5
		c0,0.2-0.1,0.5-0.9,0.8c-0.1,0-0.2,0.1-0.3,0.1c-0.4,0.1-1,0.3-1.2,0.8c-0.1,0.2-0.1,0.6,0.1,0.9c0,0,0,0,0,0
		c0.1,0.1,1.3,3,4.1,3.5c0.1,0,0.2,0.1,0.2,0.2c0,0,0,0.1,0,0.1c-0.1,0.3-0.6,0.7-2.5,0.9c-0.2,0-0.2,0.2-0.3,0.6
		c0,0.1-0.1,0.3-0.1,0.4c0,0.1-0.1,0.2-0.3,0.2h0c-0.1,0-0.2,0-0.4-0.1c-0.3-0.1-0.7-0.1-1.1-0.1c-0.3,0-0.5,0-0.8,0.1
		c-0.6,0.1-1,0.4-1.5,0.8C18,24.6,17.3,25.2,16.1,25.2"/>
	<path d="M16.2,6.6L16.2,6.6c0,0-0.4,0-0.4,0c-0.8,0-3.6,0.2-4.9,3.2c-0.4,1-0.3,2.7-0.3,4c0,0.2,0,0.3,0,0.5
		c-0.1,0-0.2,0.1-0.4,0.1c-0.3,0-0.6-0.1-0.9-0.2c-0.1,0-0.2-0.1-0.3-0.1c-0.4,0-0.9,0.3-1,0.7c-0.1,0.3,0.1,0.7,1,1.1
		c0.1,0,0.2,0.1,0.3,0.1c0.4,0.1,1,0.3,1.1,0.7c0.1,0.2,0,0.4-0.1,0.7c0,0,0,0,0,0c-0.1,0.1-1.3,2.9-4,3.3c-0.2,0-0.4,0.2-0.3,0.4
		c0,0.1,0,0.1,0,0.2c0.2,0.5,1.1,0.8,2.6,1.1c0.1,0.1,0.1,0.3,0.1,0.5c0,0.2,0.1,0.3,0.1,0.5c0,0.2,0.2,0.4,0.5,0.4
		c0.1,0,0.3,0,0.5-0.1c0.3-0.1,0.6-0.1,1.1-0.1c0.2,0,0.5,0,0.8,0.1c0.5,0.1,0.9,0.4,1.4,0.7c0.7,0.5,1.5,1.1,2.7,1.1
		c0,0,0.1,0,0.1,0c0,0,0.1,0,0.1,0c1.2,0,2-0.6,2.7-1.1c0.5-0.4,0.9-0.7,1.4-0.7c0.3,0,0.5-0.1,0.8-0.1c0.4,0,0.8,0.1,1.1,0.1
		c0.2,0,0.3,0.1,0.5,0.1h0c0.2,0,0.4-0.1,0.5-0.3c0-0.2,0.1-0.3,0.1-0.5c0-0.2,0.1-0.4,0.1-0.5c1.6-0.2,2.4-0.6,2.6-1.1
		c0-0.1,0-0.1,0-0.2c0-0.2-0.1-0.4-0.3-0.4c-2.7-0.4-3.9-3.2-4-3.3c0,0,0,0,0,0c-0.1-0.3-0.2-0.5-0.1-0.7c0.2-0.4,0.7-0.6,1.1-0.7
		c0.1,0,0.2-0.1,0.3-0.1c0.7-0.3,1-0.6,1-1c0-0.3-0.2-0.6-0.6-0.7l0,0c-0.1-0.1-0.3-0.1-0.4-0.1c-0.1,0-0.2,0-0.4,0.1
		c-0.3,0.2-0.6,0.2-0.9,0.2c-0.2,0-0.3,0-0.3-0.1c0-0.1,0-0.3,0-0.4l0-0.1c0.1-1.4,0.2-3-0.3-4C19.8,6.9,17,6.6,16.2,6.6z M16.2,7
		c0.8,0,3.3,0.2,4.6,2.9c0.4,0.9,0.3,2.5,0.2,3.8c0,0.2,0,0.4,0,0.6l0,0.1l0.1,0.1c0,0,0.2,0.2,0.7,0.3l0,0l0,0c0.3,0,0.7-0.1,1-0.3
		c0.1,0,0.1,0,0.2,0c0.1,0,0.2,0,0.3,0l0,0c0.2,0.1,0.3,0.2,0.3,0.3c0,0.1,0,0.3-0.7,0.6c-0.1,0-0.2,0.1-0.3,0.1
		c-0.5,0.1-1.1,0.4-1.4,0.9c-0.1,0.3-0.1,0.7,0.1,1.1c0.1,0.2,1.4,3.1,4.3,3.6c0,0,0,0,0,0c0,0.1-0.4,0.5-2.3,0.8
		c-0.3,0-0.4,0.4-0.5,0.8c0,0.1-0.1,0.3-0.1,0.4c0,0,0,0-0.1,0h0c-0.1,0-0.2,0-0.4,0c-0.3-0.1-0.7-0.1-1.1-0.1c-0.3,0-0.5,0-0.8,0.1
		c-0.6,0.1-1.1,0.4-1.6,0.8c-0.7,0.5-1.4,1-2.5,1c0,0-0.1,0-0.1,0l0,0l0,0c0,0-0.1,0-0.1,0c-1.1,0-1.8-0.5-2.5-1
		c-0.5-0.4-1-0.7-1.6-0.8c-0.3,0-0.6-0.1-0.8-0.1c-0.5,0-0.9,0.1-1.1,0.1c-0.2,0-0.3,0.1-0.4,0.1c-0.1,0-0.1,0-0.1-0.1
		c0-0.1-0.1-0.3-0.1-0.4C9.2,22.4,9.1,22,8.8,22c-2-0.3-2.3-0.7-2.3-0.8c0,0,0,0,0,0c2.9-0.5,4.2-3.4,4.3-3.6
		c0.2-0.4,0.2-0.8,0.1-1.1c-0.2-0.5-0.9-0.8-1.4-0.9c-0.1,0-0.2-0.1-0.3-0.1c-0.6-0.2-0.8-0.5-0.7-0.6c0-0.2,0.3-0.3,0.6-0.3
		c0.1,0,0.1,0,0.1,0c0.4,0.2,0.8,0.3,1.1,0.3c0.5,0,0.7-0.2,0.8-0.3l0.1-0.1l0-0.1c0-0.2,0-0.4,0-0.6c-0.1-1.3-0.2-2.9,0.2-3.8
		C12.5,7.3,15,7,15.8,7C15.8,7,16.1,7,16.2,7L16.2,7z"/>
</g>
</svg>
