<svg xmlns="http://www.w3.org/2000/svg" width="68" height="77" viewBox="0 0 68 77"><g><g><g><path fill="#34375a" d="M23.507 31.075V19.368l-.052-.552-.15-.53-.247-.492-.334-.442-.407-.37-.468-.291-.517-.197-.542-.104h-.553l-.542.104-.517.197-.468.292-.41.369-.331.442-.247.492-.15.53-.052.552v5.718l5.987 5.989z"/></g><g><path fill="#34375a" d="M33.092 51.948l-.005-12.63V16.085l-.05-.549-.153-.53-.246-.494-.33-.44-.411-.372-.468-.29-.515-.199-.541-.101h-.556l-.542.101-.514.2-.47.29-.408.37-.334.44-.247.495-.15.53-.052.55v35.862h5.992z"/></g><g><path fill="#34375a" d="M42.657 33.162V19.368l-.052-.552-.15-.53-.247-.492-.334-.442-.407-.37-.471-.291-.514-.197-.542-.104h-.553l-.542.104-.517.197-.468.292-.41.369-.331.442-.247.492-.15.53-.052.552v19.769l5.987-5.975z"/></g><g><path fill="#8b7866" d="M30.526 5.685L29.89 0l-.632 5.622c-8.02 1.052-15.05 5.53-19.677 11.803l3.155 3.163c3.937-5.617 10.07-9.717 16.965-10.654 9.03 1.237 16.776 7.903 19.96 16.299l3.33-3.325C48.964 13.963 40.539 7.141 30.527 5.685z"/></g><g><path fill="#66375a" d="M2.871 54.08l.029-.798v.798zm56.22 0V20.036s-2.492 2.584-3.414 3.532v-.022L35.19 44.001V54.08H24.978l.014-18.212L2.894 13.8v.071C1.684 12.638.013 10.93.01 10.93v47.11h4.247V26.6l.027-.286.08-.273.128-.273.175-.23.214-.194.246-.15.273-.104.274-.055h.274l.273.055.274.104.246.15.214.194.172.23.131.273.077.273.027.287v31.691h-.104v.148h6.343v-.017h-.052v-23.38l.052-.547.15-.53.247-.494.334-.44.407-.372.471-.29.514-.199.548-.1h.547l.547.1.515.2.47.29.408.371.331.44.246.494.154.53.049.547v22.99h19.487V43.998l.058-.587.161-.566.274-.527.358-.47.436-.396.5-.311.548-.213.58-.107h.59l.58.107.548.213.5.311.436.396.356.47.273.527.162.566.054.587v14.436h6.047V35.841l.028-.287.08-.274.128-.256.175-.23.213-.194.247-.153.273-.104.274-.051h.287l.274.051.273.104.247.153.213.194.172.23.13.256.078.274.028.287v22.197H67.32V54.08z"/></g><g><path fill="#34375a" d="M.01 74.603l.95-2.128a8.217 8.217 0 0 0 4.878 1.623c2.304 0 3.284-.82 3.284-1.913 0-3.182-8.786-1.092-8.786-6.578 0-2.383 1.899-4.407 5.954-4.407 1.776 0 3.634.464 4.925 1.309l-.867 2.128a8.238 8.238 0 0 0-4.075-1.158c-2.282 0-3.21.885-3.21 2.002 0 3.142 8.757 1.093 8.757 6.516 0 2.36-1.916 4.385-5.979 4.385-2.304-.008-4.605-.724-5.831-1.779z"/></g><g><path fill="#34375a" d="M14.51 61.2h2.736v14.753H14.51z"/></g><g><path fill="#34375a" d="M34.241 61.2v14.753h-2.26l-8.165-9.983v9.994H21.08V61.21h2.26l8.165 9.985V61.2z"/></g><g><path fill="#34375a" d="M67.338 61.2v14.753h-2.263l-8.149-9.983v9.994H54.19V61.21h2.257l8.155 9.996V61.2z"/></g><g><path fill="#8b7866" d="M41.391 71.54l2.797-5.463 2.774 5.464zm4.108-7.796l-1.344-2.525V61.2L36.13 76.264h2.873l1.478-2.898h7.388l1.458 2.898h2.83z"/></g></g></g></svg>