<svg xmlns="http://www.w3.org/2000/svg" width="37" height="36" viewBox="0 0 37 36"><g><g><g><g><path fill="#db4545" d="M.22 1.6A1.6 1.6 0 0 1 1.82 0h32.8a1.6 1.6 0 0 1 1.6 1.6v32.8a1.6 1.6 0 0 1-1.6 1.6H1.82a1.6 1.6 0 0 1-1.6-1.6z"/></g><g><path fill="#fff" d="M7.007 18.015c-.229-6.187 5.047-11.904 11.077-11.978 3.073-.27 6.062.956 8.388 2.956-.954 1.077-1.925 2.142-2.962 3.139-2.047-1.278-4.512-2.251-6.905-1.387-3.859 1.13-6.196 5.81-4.768 9.688 1.183 4.05 5.979 6.273 9.738 4.571 1.946-.716 3.23-2.56 3.792-4.542-2.23-.046-4.461-.017-6.692-.08-.006-1.364-.011-2.722-.006-4.085 3.72-.006 7.446-.017 11.171.017.23 3.34-.25 6.915-2.365 9.595-2.894 3.827-8.242 4.95-12.593 3.449-4.617-1.558-7.975-6.336-7.875-11.343z"/></g></g></g></g></svg>