<?xml version="1.0" encoding="utf-8"?>
<!-- Generator: Adobe Illustrator 22.1.0, SVG Export Plug-In . SVG Version: 6.00 Build 0)  -->
<svg version="1.1" id="Layer_1" xmlns="http://www.w3.org/2000/svg" xmlns:xlink="http://www.w3.org/1999/xlink" x="0px" y="0px"
	 viewBox="0 0 13 16" style="enable-background:new 0 0 13 16;" xml:space="preserve">
<style type="text/css">
	.st0{fill:#2F2F2F;}
</style>
<path class="st0" d="M6.1,7.8c1.8,0,3.2-1.8,3.2-3.9C9.3,1.8,8.9,0,6.1,0C3.4,0,2.9,1.8,2.9,3.9C2.9,6.1,4.3,7.8,6.1,7.8z"/>
<path d="M0.1,13.8C0.1,13.6,0.1,13.8,0.1,13.8"/>
<path d="M12.2,13.9C12.2,13.9,12.2,13.6,12.2,13.9"/>
<path class="st0" d="M12.2,13.6c-0.1-3.8-0.6-4.8-4.3-5.5c0,0-0.5,0.7-1.8,0.7S4.4,8.1,4.4,8.1c-3.7,0.7-4.2,1.7-4.3,5.4
	c0,0.3,0,0.3,0,0.3v0.4c0,0,0.9,1.8,6.1,1.8s6.1-1.8,6.1-1.8v-0.3C12.2,13.8,12.2,13.7,12.2,13.6z"/>
</svg>
