<svg xmlns="http://www.w3.org/2000/svg" width="357" height="307" viewBox="0 0 357 307"><g><g><g><g><g opacity=".5" transform="rotate(-59 113.5 104)"><path fill="#fff3fc" d="M-4.15 103.343c.004-10.488 8.505-18.99 18.993-18.993l197.28-.07a19 19 0 0 1 19.006 19.007v1.358c-.004 10.488-8.506 18.99-18.994 18.993l-197.278.07A19 19 0 0 1-4.15 104.701z"/></g><g opacity=".5" transform="rotate(-59 249.5 143.5)"><path fill="#fff3fc" d="M167.54 142.718c.004-10.488 8.505-18.99 18.993-18.993l126.215-.045a19 19 0 0 1 19.007 19.007v1.358c-.004 10.488-8.505 18.99-18.994 18.993l-126.214.045a19 19 0 0 1-19.007-19.007z"/></g><g opacity=".5" transform="rotate(-59 133 194)"><path fill="#fff3fc" d="M15.35 193.343c.004-10.488 8.505-18.99 18.993-18.993l197.28-.07a19 19 0 0 1 19.006 19.007v1.358c-.004 10.488-8.506 18.99-18.994 18.993l-197.278.07a19 19 0 0 1-19.007-19.007z"/></g><g opacity=".5" transform="rotate(-59 277 214.5)"><path fill="#fff3fc" d="M200.86 213.924c.004-10.488 8.505-18.99 18.993-18.993l114.692-.041a19 19 0 0 1 19.006 19.007v1.358c-.004 10.488-8.505 18.99-18.993 18.993l-114.691.04a19 19 0 0 1-19.007-19.006z"/></g><g opacity=".1"><path fill="none" stroke="#34375a" stroke-miterlimit="50" stroke-width="3" d="M302 241a5 5 0 1 0 0-10 5 5 0 0 0 0 10z"/></g><g opacity=".05"><path fill="none" stroke="#68385b" stroke-miterlimit="50" stroke-width="3" d="M10.158 305.329c4.505 0 8.158-3.655 8.158-8.165 0-4.509-3.653-8.164-8.158-8.164C5.652 289 2 292.655 2 297.164c0 4.51 3.652 8.165 8.158 8.165z"/></g><g opacity=".1"><path fill="none" stroke="#34375a" stroke-miterlimit="50" stroke-width="3" d="M44.5 82a6.5 6.5 0 1 0 0-13 6.5 6.5 0 0 0 0 13z"/></g><g opacity=".1"><path fill="none" stroke="#34375a" stroke-miterlimit="50" stroke-width="3" d="M266.158 25.329c4.505 0 8.158-3.655 8.158-8.165 0-4.509-3.653-8.164-8.158-8.164-4.506 0-8.158 3.655-8.158 8.164 0 4.51 3.652 8.165 8.158 8.165z"/></g><g opacity=".1"><path fill="none" stroke="#68385b" stroke-miterlimit="50" stroke-width="3" d="M134.545 50.35a1.92 1.92 0 0 0-3.184.02l-8.376 12.588a1.92 1.92 0 0 0 1.599 2.984h16.98a1.92 1.92 0 0 0 1.586-3.004z"/></g><g opacity=".1"><path fill="none" stroke="#68385b" stroke-miterlimit="50" stroke-width="3" d="M54.36 211.39a1.152 1.152 0 0 0-1.904.012l-5.249 7.803a1.152 1.152 0 0 0 .956 1.795h10.64a1.152 1.152 0 0 0 .948-1.807z"/></g><g opacity=".05"><path fill="none" stroke="#34375a" stroke-miterlimit="50" stroke-width="3" d="M346.545 132.35a1.92 1.92 0 0 0-3.184.02l-8.376 12.588a1.92 1.92 0 0 0 1.599 2.984h16.98a1.92 1.92 0 0 0 1.586-3.004z"/></g></g><g><g><path fill="#d3d3d3" d="M144.5 90.65h103.69v114H144.5z"/></g><g><path fill="#3171bd" d="M145.3 71.41h102.69v21.655H145.3z"/></g><g><path fill="#fff" d="M144.5 90.65h81.028v115.124s16.967-7.43 16.967-3.124c0 4.305-16.967 21-16.967 21H144.5z"/></g><g><path fill="#4a90e2" d="M144.5 71.41h81.028v21.655H144.5z"/></g><g><path d="M229.778 216.39v-8.723c0-1.56 1.269-2.83 2.828-2.83h8.719zm-84.227.948l-.001-35.257c1.56.177 4.752 0 6.36 0 12.571 0 23.864-5.571 31.543-14.373h20.666a3.373 3.373 0 1 0 0-6.744h-15.862a41.536 41.536 0 0 0 5.346-17.1h10.516a3.373 3.373 0 1 0 0-6.744h-10.473a41.532 41.532 0 0 0-5.103-17.1h15.575a3.373 3.373 0 1 0 0-6.744H183.89c-7.684-9.096-19.168-14.885-31.981-14.885-1.608 0-5.6.213-7.161.39v-3.287h102.745v103.608H233.59c-5.281 0-8.577 2.295-8.577 7.574v15.492h-75.028c-1.561 0-4.435-2.475-4.435-4.83zm-30.359-77.106c0-20.237 16.47-36.7 36.714-36.7s36.713 16.463 36.713 36.7c0 20.238-16.47 36.702-36.713 36.702-20.244 0-36.714-16.464-36.714-36.702zm34.794-66.894h92.27c3.878 0 5.237 4.16 5.237 5.719v11.287H144.748v-8.503c0-7.836 3.677-8.503 5.238-8.503zM242.266 69h-92.282c-5.281 0-9.578 4.295-9.578 9.574v21.424c-17.506 5.008-30.356 21.15-30.356 40.235 0 19.086 12.85 35.227 30.356 40.235v36.86c0 5.28 4.297 9.575 9.578 9.575h75.412c.894 0 1.752-.355 2.385-.988l23.074-23.065c.632-.632.988-1.49.988-2.384V78.574c0-5.28-4.297-9.574-9.578-9.574z"/></g><g><path d="M217.383 120.024h11.203a3.373 3.373 0 1 0 0-6.744h-11.203a3.373 3.373 0 1 0 0 6.744z"/></g><g><path d="M217.383 143.864h11.203a3.373 3.373 0 1 0 0-6.744h-11.203a3.373 3.373 0 1 0 0 6.744z"/></g><g><path d="M217.383 167.704h11.203a3.373 3.373 0 1 0 0-6.744h-11.203a3.373 3.373 0 1 0 0 6.744z"/></g><g><path d="M228.59 191.544a3.373 3.373 0 1 0 0-6.744h-31.557a3.373 3.373 0 1 0 0 6.744z"/></g><g><path d="M144.327 158.805l-16.444-15.22 6.274-6.585 7.375 7.37a3.57 3.57 0 0 0 5.047 0l22.96-23.405 6.254 6.342zm33.78-35.583l-4.116-4.114a5.831 5.831 0 0 0-4.15-1.718c-1.567 0-3.04.61-4.149 1.718l-21.586 21.577-5.966-5.964a5.832 5.832 0 0 0-4.15-1.718 5.83 5.83 0 0 0-4.148 1.718l-4.116 4.114a5.87 5.87 0 0 0 0 8.295l14.231 14.225a5.83 5.83 0 0 0 4.15 1.719 5.83 5.83 0 0 0 4.148-1.718l29.851-29.84a5.87 5.87 0 0 0 0-8.294z"/></g></g></g><g><g><g><path fill="#af2a8b" d="M152.518 178.075c-21.268 0-38.508-17.236-38.508-38.498 0-21.263 17.24-38.497 38.508-38.497"/></g><g><path fill="#851c69" d="M152.52 101.08c21.268 0 38.508 17.234 38.508 38.497 0 21.262-17.24 38.498-38.508 38.498"/></g><g><path fill="none" stroke="#fff" stroke-linecap="round" stroke-linejoin="round" stroke-miterlimit="50" stroke-width="5" d="M130.06 145.921v0l12.737 12.108v0l30.585-31.279v0"/></g><g><path fill="#34375a" d="M189.562 139.182c0 20.65-16.802 37.447-37.448 37.447s-37.448-16.798-37.448-37.447c0-20.652 16.802-37.448 37.448-37.448s37.448 16.796 37.448 37.448zm4.675-.005c0-23.218-18.896-42.107-42.118-42.107-23.223 0-42.119 18.889-42.119 42.107 0 23.215 18.896 42.106 42.119 42.106 23.222 0 42.118-18.89 42.118-42.106z"/></g></g></g></g></g></svg>